<?xml version="1.0" encoding="UTF-8" standalone="no"?>
<!DOCTYPE svg PUBLIC "-//W3C//DTD SVG 1.1//EN" "http://www.w3.org/Graphics/SVG/1.1/DTD/svg11.dtd">
<svg version="1.1" xmlns="http://www.w3.org/2000/svg" xmlns:xlink="http://www.w3.org/1999/xlink" preserveAspectRatio="xMidYMid meet" viewBox="0 0 640 640" width="640" height="640"><defs><path d="M424.75 150.15C435.12 150.15 443.53 158.55 443.53 168.92C443.53 227.81 443.53 385.71 443.53 444.61C443.53 454.98 435.12 463.38 424.75 463.38C360.86 463.38 187.96 463.38 124.07 463.38C113.7 463.38 105.29 454.98 105.29 444.61C105.29 385.71 105.29 227.81 105.29 168.92C105.29 158.55 113.7 150.15 124.07 150.15C187.96 150.15 360.86 150.15 424.75 150.15Z" id="bvexBOldY"></path><path d="M434.62 274.04C446.04 274.04 455.29 283.3 455.29 294.72C455.29 303.38 455.29 308.68 455.29 317.34C455.29 328.76 446.04 338.01 434.62 338.01C411.7 338.01 363.6 338.01 340.67 338.01C329.26 338.01 320 328.76 320 317.34C320 308.68 320 303.38 320 294.72C320 283.3 329.26 274.04 340.67 274.04C363.6 274.04 411.7 274.04 434.62 274.04Z" id="bKOFfeRG"></path><path d="M367.06 306.03C367.06 319.83 357.5 331.03 345.74 331.03C333.97 331.03 324.41 319.83 324.41 306.03C324.41 292.23 333.97 281.03 345.74 281.03C357.5 281.03 367.06 292.23 367.06 306.03Z" id="b2Ucx9y63y"></path><path d="M356.76 306.76C356.76 314.07 351.49 320 345 320C338.51 320 333.24 314.07 333.24 306.76C333.24 299.46 338.51 293.53 345 293.53C351.49 293.53 356.76 299.46 356.76 306.76Z" id="c1UVR1tnjI"></path><path d="" id="f5lE2fX"></path><path d="" id="eI9xD2FC"></path><path d="M111.86 183.24L111.86 183.24C109.97 150.88 109.97 135.2 111.86 136.18C113.75 137.16 220.7 136.18 432.7 133.24L438.38 155.29L438.38 175.88L421.35 168.53L407.15 164.12L126.06 164.12" id="a18J4Om83Y"></path><path d="M111.85 158.24L111.85 158.24C109.97 125.88 109.97 110.2 111.85 111.18C113.73 112.16 219.96 111.18 430.54 108.24L436.18 130.29L436.18 150.88L419.26 143.53L405.15 139.12L125.95 139.12" id="a3AV5JBCmM"></path><path d="M125.88 115.59L125.88 136.18L127.35 115.59" id="a2TdZGAg9x"></path></defs><g><g><g><g></g><use xlink:href="#bvexBOldY" opacity="1" fill="#071e44" fill-opacity="1"></use></g><g><use xlink:href="#bKOFfeRG" opacity="1" fill="#63b1da" fill-opacity="1"></use></g><g><use xlink:href="#b2Ucx9y63y" opacity="1" fill="#09133b" fill-opacity="1"></use></g><g><use xlink:href="#c1UVR1tnjI" opacity="1" fill="#7ac9f2" fill-opacity="1"></use></g><g><g><use xlink:href="#f5lE2fX" opacity="1" fill-opacity="0" stroke="#000000" stroke-width="2" stroke-opacity="1"></use></g></g><g><g><use xlink:href="#eI9xD2FC" opacity="1" fill-opacity="0" stroke="#000000" stroke-width="2" stroke-opacity="1"></use></g></g><g><use xlink:href="#a18J4Om83Y" opacity="1" fill="#e9f1f2" fill-opacity="1"></use><g><use xlink:href="#a18J4Om83Y" opacity="1" fill-opacity="0" stroke="#112d5c" stroke-width="10" stroke-opacity="1"></use></g></g><g><g><filter id="shadow10454089" x="98.44" y="96.24" width="353.74" height="75" filterUnits="userSpaceOnUse" primitiveUnits="userSpaceOnUse"><feFlood></feFlood><feComposite in2="SourceAlpha" operator="in"></feComposite><feGaussianBlur stdDeviation="1"></feGaussianBlur><feOffset dx="4" dy="1" result="afterOffset"></feOffset><feFlood flood-color="#000000" flood-opacity="0.5"></feFlood><feComposite in2="afterOffset" operator="in"></feComposite><feMorphology operator="dilate" radius="1"></feMorphology><feComposite in2="SourceAlpha" operator="out"></feComposite></filter><path d="M111.85 158.24L111.85 158.24C109.97 125.88 109.97 110.2 111.85 111.18C113.73 112.16 219.96 111.18 430.54 108.24L436.18 130.29L436.18 150.88L419.26 143.53L405.15 139.12L125.95 139.12" id="a2PjFSot1R" fill="none" stroke="white" filter="url(#shadow10454089)"></path></g><use xlink:href="#a3AV5JBCmM" opacity="1" fill="#e9f1f2" fill-opacity="1"></use><g><use xlink:href="#a3AV5JBCmM" opacity="1" fill-opacity="0" stroke="#112d5c" stroke-width="10" stroke-opacity="1"></use></g></g><g><g><use xlink:href="#a2TdZGAg9x" opacity="1" fill-opacity="0" stroke="#ffffff" stroke-width="2" stroke-opacity="1"></use></g></g></g></g></svg>