<?xml version="1.0" encoding="UTF-8" standalone="no"?><!-- Generator: Gravit.io --><svg xmlns="http://www.w3.org/2000/svg" xmlns:xlink="http://www.w3.org/1999/xlink" style="isolation:isolate" viewBox="0 0 800 1200" width="800pt" height="1200pt"><defs><clipPath id="_clipPath_lrin3IwJzQtjKBbtwgK7TIOcsscmJmdq"><rect width="800" height="1200"/></clipPath></defs><g clip-path="url(#_clipPath_lrin3IwJzQtjKBbtwgK7TIOcsscmJmdq)"><g><path d=" M 134 591 L 195 622 L 195 1189 L 134 1139 L 134 591 Z " fill="rgb(51,185,51)" vector-effect="non-scaling-stroke" stroke-width="1" stroke="rgb(255,255,255)" stroke-linejoin="miter" stroke-linecap="square" stroke-miterlimit="3"/><path d=" M 195 527 L 134 590 L 195 621 L 257 574 L 195 527 Z " fill="rgb(51,185,51)" vector-effect="non-scaling-stroke" stroke-width="1" stroke="rgb(255,255,255)" stroke-linejoin="miter" stroke-linecap="square" stroke-miterlimit="3"/><path d=" M 257 1153 L 195 1189 L 195 622 L 257 575 L 257 1153 Z " fill="rgb(51,185,51)" vector-effect="non-scaling-stroke" stroke-width="1" stroke="rgb(255,255,255)" stroke-linejoin="miter" stroke-linecap="square" stroke-miterlimit="3"/><path d=" M 634 790 L 678 833 L 678 1189 L 634 1139 L 634 790 Z " fill="rgb(153,183,153)" vector-effect="non-scaling-stroke" stroke-width="1" stroke="rgb(255,255,255)" stroke-linejoin="miter" stroke-linecap="square" stroke-miterlimit="3"/><path d=" M 701 743 L 634 790 L 678 833 L 734 790 L 701 743 Z " fill="rgb(153,183,153)" vector-effect="non-scaling-stroke" stroke-width="1" stroke="rgb(255,255,255)" stroke-linejoin="miter" stroke-linecap="square" stroke-miterlimit="3"/><path d=" M 734 1153 L 678 1189 L 678 833 L 734 790 L 734 1153 Z " fill="rgb(153,183,153)" vector-effect="non-scaling-stroke" stroke-width="1" stroke="rgb(255,255,255)" stroke-linejoin="miter" stroke-linecap="square" stroke-miterlimit="3"/><path d=" M 517 703 L 566 759 L 566 1175 L 517 1104 L 517 703 Z " fill="rgb(91,142,91)" vector-effect="non-scaling-stroke" stroke-width="1" stroke="rgb(255,255,255)" stroke-linejoin="miter" stroke-linecap="square" stroke-miterlimit="3"/><path d=" M 582 663 L 618 716 L 566 759 L 517 703 L 582 663 Z " fill="rgb(91,142,91)" vector-effect="non-scaling-stroke" stroke-width="1" stroke="rgb(255,255,255)" stroke-linejoin="miter" stroke-linecap="square" stroke-miterlimit="3"/><path d=" M 618 1153 L 566 1175 L 566 759 L 618 716 L 618 1153 Z " fill="rgb(91,142,91)" vector-effect="non-scaling-stroke" stroke-width="1" stroke="rgb(255,255,255)" stroke-linejoin="miter" stroke-linecap="square" stroke-miterlimit="3"/><path d=" M 407 622 L 445 683 L 445 1104 L 407 1043 L 407 622 Z " fill="rgb(86,187,86)" vector-effect="non-scaling-stroke" stroke-width="1" stroke="rgb(255,255,255)" stroke-linejoin="miter" stroke-linecap="square" stroke-miterlimit="3"/><path d=" M 459 591 L 492 649 L 445 683 L 407 622 L 459 591 Z " fill="rgb(86,187,86)" vector-effect="non-scaling-stroke" stroke-width="1" stroke="rgb(255,255,255)" stroke-linejoin="miter" stroke-linecap="square" stroke-miterlimit="3"/><path d=" M 492 1088 L 445 1104 L 445 683 L 492 649 L 492 1088 Z " fill="rgb(86,187,86)" vector-effect="non-scaling-stroke" stroke-width="1" stroke="rgb(255,255,255)" stroke-linejoin="miter" stroke-linecap="square" stroke-miterlimit="3"/><path d=" M 271 457 L 327 542 L 327 1088 L 284 1028 L 271 457 Z " fill="rgb(22,204,22)" vector-effect="non-scaling-stroke" stroke-width="1" stroke="rgb(255,255,255)" stroke-linejoin="miter" stroke-linecap="square" stroke-miterlimit="3"/><path d=" M 354 398 L 271 457 L 327 542 L 394 492 L 354 398 Z " fill="rgb(10,221,10)" vector-effect="non-scaling-stroke" stroke-width="1" stroke="rgb(255,255,255)" stroke-linejoin="miter" stroke-linecap="square" stroke-miterlimit="3"/><path d=" M 394 1028 L 327 1088 L 327 542 L 394 492 L 394 1028 Z " fill="rgb(10,221,10)" vector-effect="non-scaling-stroke" stroke-width="1" stroke="rgb(255,255,255)" stroke-linejoin="miter" stroke-linecap="square" stroke-miterlimit="3"/><path d=" M 36 663 L 74 716 L 74 1139 L 36 1088 L 36 663 Z " fill="rgb(66,170,66)" vector-effect="non-scaling-stroke" stroke-width="1" stroke="rgb(255,255,255)" stroke-linejoin="miter" stroke-linecap="square" stroke-miterlimit="3"/><path d=" M 96 591 L 36 663 L 74 716 L 119 649 L 96 591 Z " fill="rgb(66,170,66)"/><path d=" M 119 1117 L 74 1139 L 74 716 L 119 649 L 119 1117 Z " fill="rgb(66,170,66)" vector-effect="non-scaling-stroke" stroke-width="1" stroke="rgb(255,255,255)" stroke-linejoin="miter" stroke-linecap="square" stroke-miterlimit="3"/><defs><filter id="4LmIZu72F5u63wJbivTZsbfLNif55KQV" x="-200%" y="-200%" width="400%" height="400%" filterUnits="objectBoundingBox" color-interpolation-filters="sRGB"><feGaussianBlur xmlns="http://www.w3.org/2000/svg" in="SourceGraphic" stdDeviation="2.146804531419514"/><feOffset xmlns="http://www.w3.org/2000/svg" dx="6" dy="6" result="pf_100_offsetBlur"/><feFlood xmlns="http://www.w3.org/2000/svg" flood-color="#000000" flood-opacity="0.65"/><feComposite xmlns="http://www.w3.org/2000/svg" in2="pf_100_offsetBlur" operator="in" result="pf_100_dropShadow"/><feBlend xmlns="http://www.w3.org/2000/svg" in="SourceGraphic" in2="pf_100_dropShadow" mode="normal"/></filter></defs><g filter="url(#4LmIZu72F5u63wJbivTZsbfLNif55KQV)"><path d="M 455.635 416 L 712.365 416 C 730.377 416 745 430.623 745 448.635 L 745 739.365 C 745 757.377 730.377 772 712.365 772 L 455.635 772 C 437.623 772 423 757.377 423 739.365 L 423 448.635 C 423 430.623 437.623 416 455.635 416 Z" style="stroke:none;fill:#9D2B2B;stroke-miterlimit:10;"/></g><g clip-path="url(#_clipPath_9Ws9M0CD0JSZsngqgrN87rmM1SRuYCsB)"><text transform="matrix(1,0,0,1,438.687,487.728)" style="font-family:'Pavanam';font-weight:400;font-size:48px;font-style:normal;font-variant-ligatures:none;fill:#ffffff;stroke:none;">Average Base </text><text transform="matrix(1,0,0,1,438.687,549.696)" style="font-family:'Pavanam';font-weight:400;font-size:48px;font-style:normal;font-variant-ligatures:none;fill:#ffffff;stroke:none;">Salary</text></g><defs><clipPath id="_clipPath_9Ws9M0CD0JSZsngqgrN87rmM1SRuYCsB"><rect x="0" y="0" width="280.313" height="123.936" transform="matrix(1,0,0,1,438.687,442.032)"/></clipPath></defs><g clip-path="url(#_clipPath_EwtAr0qzA0IuZp5zkxVrRaZzLAlzzi2Z)"><text transform="matrix(1,0,0,1,27.687,950.76)" style="font-family:'Pavanam';font-weight:400;font-size:48px;font-style:normal;font-variant-ligatures:none;fill:#ffffff;stroke:none;">Average Base </text><text transform="matrix(1,0,0,1,27.687,1012.728)" style="font-family:'Pavanam';font-weight:400;font-size:48px;font-style:normal;font-variant-ligatures:none;fill:#ffffff;stroke:none;">Salary</text></g><defs><clipPath id="_clipPath_EwtAr0qzA0IuZp5zkxVrRaZzLAlzzi2Z"><rect x="0" y="0" width="280.313" height="123.936" transform="matrix(1,0,0,1,27.687,905.064)"/></clipPath></defs><path d=" M 470.628 594 C 469.737 594 468.824 594.104 467.947 594.243 C 457.476 595.839 448.578 606.376 448.578 619.714 C 448.578 624.08 449.505 628.376 450.741 632.634 L 441.984 632.634 L 441.984 640.362 L 453.214 640.362 C 453.873 642.506 454.4 644.62 454.862 646.76 C 456.718 655.288 456.909 662.927 450.329 671.272 L 438.687 671.272 L 438.687 679 L 491.437 679 L 491.437 659.681 L 484.844 659.681 L 484.844 671.272 L 458.673 671.272 C 463.259 662.366 463.015 652.935 461.251 644.828 C 460.915 643.291 460.503 641.842 460.117 640.362 L 478.25 640.362 L 478.25 632.634 L 457.954 632.634 C 456.458 627.58 455.172 623.098 455.172 619.718 C 455.172 607.237 466.052 598.3 476.189 603.057 L 478.662 595.932 C 475.972 594.68 473.291 594 470.624 594 L 470.628 594 Z " fill="rgb(255,255,255)"/><g clip-path="url(#_clipPath_M1JGs7Yr220kUuODkOWePTA4TCwZsvaX)"><text transform="matrix(1,0,0,1,491.437,663.103)" style="font-family:'Pacifico';font-weight:400;font-size:48px;font-style:normal;font-variant-ligatures:none;fill:#ffffff;stroke:none;">50,000 </text><text transform="matrix(1,0,0,1,652.338,663.103)" style="font-family:'Pacifico';font-weight:400;font-size:36px;font-style:normal;font-variant-ligatures:none;fill:#ffffff;stroke:none;">/ yr</text></g><defs><clipPath id="_clipPath_M1JGs7Yr220kUuODkOWePTA4TCwZsvaX"><rect x="0" y="0" width="280.563" height="188" transform="matrix(1,0,0,1,491.437,562.772)"/></clipPath></defs><defs><filter id="e47FvIKlm4YFvdF2AyQfKujI1QJ4cNaM" x="-200%" y="-200%" width="400%" height="400%" filterUnits="objectBoundingBox" color-interpolation-filters="sRGB"><feGaussianBlur xmlns="http://www.w3.org/2000/svg" in="SourceGraphic" stdDeviation="2.146804531419514"/><feOffset xmlns="http://www.w3.org/2000/svg" dx="-7" dy="7" result="pf_100_offsetBlur"/><feFlood xmlns="http://www.w3.org/2000/svg" flood-color="#000000" flood-opacity="0.65"/><feComposite xmlns="http://www.w3.org/2000/svg" in2="pf_100_offsetBlur" operator="in" result="pf_100_dropShadow"/><feBlend xmlns="http://www.w3.org/2000/svg" in="SourceGraphic" in2="pf_100_dropShadow" mode="normal"/></filter></defs><g filter="url(#e47FvIKlm4YFvdF2AyQfKujI1QJ4cNaM)"><path d="M 52.57 772 L 276.43 772 C 293.854 772 308 786.146 308 803.57 L 308 1060.43 C 308 1077.854 293.854 1092 276.43 1092 L 52.57 1092 C 35.146 1092 21 1077.854 21 1060.43 L 21 803.57 C 21 786.146 35.146 772 52.57 772 Z" style="stroke:none;fill:#38A7EC;stroke-miterlimit:10;"/></g><path d="M 59.316 815 L 105.684 815 C 110.274 815 114 818.726 114 823.316 L 114 881.684 C 114 886.274 110.274 890 105.684 890 L 59.316 890 C 54.726 890 51 886.274 51 881.684 L 51 823.316 C 51 818.726 54.726 815 59.316 815 Z" style="stroke:none;fill:#FFFFFF;stroke-miterlimit:10;"/><path d=" M 105.75 824 L 93.231 826 L 97.31 830.562 L 89.654 839.124 L 87.363 836.564 L 86.077 835.186 L 84.791 836.56 L 75.346 847.126 L 73.055 844.56 L 71.769 843.188 L 70.483 844.562 L 59.753 856.562 L 62.326 859.44 L 71.769 848.874 L 74.06 851.438 L 75.346 852.812 L 76.632 851.438 L 86.077 840.876 L 88.368 843.436 L 89.654 844.812 L 90.94 843.438 L 99.882 833.438 L 103.962 838 L 105.75 824 Z  M 102.173 842 L 102.173 876 L 105.75 876 L 105.75 842 L 102.173 842 Z  M 95.019 846 L 95.019 876 L 98.596 876 L 98.596 846 L 95.019 846 Z  M 87.865 850 L 87.865 876 L 91.442 876 L 91.442 850 L 87.865 850 Z  M 80.712 854 L 80.712 876 L 84.288 876 L 84.288 854 L 80.712 854 Z  M 73.558 858 L 73.558 876 L 77.135 876 L 77.135 858 L 73.558 858 Z  M 66.404 862 L 66.404 876 L 69.981 876 L 69.981 862 L 66.404 862 Z  M 59.25 866 L 59.25 876 L 62.827 876 L 62.827 866 L 59.25 866 Z " fill="rgb(0,0,0)"/><g clip-path="url(#_clipPath_0404mKyhR6GFBqfG3STp1oGtpBiYEliX)"><text transform="matrix(1,0,0,1,27.687,966.345)" style="font-family:'Peralta';font-weight:400;font-size:32px;font-style:normal;font-variant-ligatures:none;fill:#ffffff;stroke:none;">Increase Rate</text></g><defs><clipPath id="_clipPath_0404mKyhR6GFBqfG3STp1oGtpBiYEliX"><rect x="0" y="0" width="280.313" height="64" transform="matrix(1,0,0,1,27.687,935.032)"/></clipPath></defs><g clip-path="url(#_clipPath_5QcVlRKo14Yg8YhYkloGmweQv6SQzwII)"><text transform="matrix(1,0,0,1,59.25,1029.576)" style="font-family:'Pacifico';font-weight:400;font-size:48px;font-style:normal;font-variant-ligatures:none;fill:#ffffff;stroke:none;">34.12%</text></g><defs><clipPath id="_clipPath_5QcVlRKo14Yg8YhYkloGmweQv6SQzwII"><rect x="0" y="0" width="280.563" height="188" transform="matrix(1,0,0,1,59.25,967.032)"/></clipPath></defs></g></g></svg>