<?xml version="1.0" encoding="UTF-8" standalone="no"?><!-- Generator: Gravit.io --><svg xmlns="http://www.w3.org/2000/svg" xmlns:xlink="http://www.w3.org/1999/xlink" style="isolation:isolate" viewBox="29.375 19.5 749.25 1008.008" width="749.25pt" height="1008.008pt"><g><path d=" M 660.8 120.433 C 727.205 179.816 774.855 262.039 778.404 344.834 C 781.952 428.199 741.906 512.135 723.657 593.217 C 704.901 674.869 708.45 754.237 673.98 793.636 C 639.509 833.035 567.021 831.893 496.053 871.291 C 425.592 910.119 356.145 988.345 294.808 989.487 C 233.979 990.629 180.753 913.545 138.679 838.174 C 96.098 762.802 64.162 688.002 45.407 605.208 C 26.144 522.413 20.061 431.625 50.983 361.964 C 82.411 292.873 151.352 245.481 219.278 186.668 C 287.204 127.856 354.624 57.623 431.168 40.493 C 507.712 23.934 593.887 60.478 660.8 120.433 Z " fill="rgb(7,31,56)"/><path d=" M 154.542 975.281 L 134.126 973.017 L 120.786 989.5 L 116.516 968.289 L 97.554 959.981 L 115.33 949.135 L 116.951 927.517 L 132.208 942.026 L 152.171 936.973 L 143.824 956.785 L 154.542 975.281 Z " fill="rgb(0,255,0)"/><path d=" M 365.988 824.746 L 345.572 822.482 L 332.233 838.965 L 327.962 817.754 L 309 809.446 L 326.776 798.6 L 328.397 776.983 L 343.654 791.491 L 363.617 786.438 L 355.271 806.25 L 365.988 824.746 Z " fill="rgb(255,255,0)"/><path d=" M 756.988 89.403 L 736.572 87.14 L 723.233 103.623 L 718.962 82.412 L 700 74.103 L 717.776 63.258 L 719.397 41.64 L 734.654 56.148 L 754.617 51.096 L 746.271 70.908 L 756.988 89.403 Z " fill="rgb(0,150,136)"/><path d=" M 637 944.763 L 616.584 942.499 L 603.245 958.983 L 598.974 937.772 L 580.012 929.463 L 597.788 918.618 L 599.409 897 L 614.666 911.508 L 634.629 906.456 L 626.282 926.268 L 637 944.763 Z " fill="rgb(0,255,255)"/><path d=" M 546.929 700.781 L 526.513 698.517 L 513.173 715 L 508.902 693.789 L 489.941 685.481 L 507.717 674.635 L 509.338 653.017 L 524.595 667.526 L 544.558 662.473 L 536.211 682.285 L 546.929 700.781 Z " fill="rgb(153,0,255)"/><path d=" M 126.048 147.702 L 105.632 145.439 L 92.292 161.922 L 88.022 140.711 L 69.06 132.402 L 86.836 121.557 L 88.457 99.939 L 103.714 114.447 L 123.677 109.395 L 115.33 129.207 L 126.048 147.702 Z " fill="rgb(255,0,255)"/><path d=" M 154.542 762.763 L 134.126 760.499 L 120.786 776.983 L 116.516 755.772 L 97.554 747.463 L 115.33 736.618 L 116.951 715 L 132.208 729.508 L 152.171 724.456 L 143.824 744.268 L 154.542 762.763 Z " fill="rgb(255,0,0)"/><path d="M 112.515 528 L 695.485 528 C 697.977 528 700 530.023 700 532.515 L 700 544.485 C 700 546.977 697.977 549 695.485 549 L 112.515 549 C 110.023 549 108 546.977 108 544.485 L 108 532.515 C 108 530.023 110.023 528 112.515 528 Z" style="stroke:none;fill:#FFFFFF;stroke-miterlimit:10;"/><ellipse vector-effect="non-scaling-stroke" cx="292.5" cy="538.5" rx="16.5" ry="25.5" fill="rgb(255,255,255)"/><path d=" M 328 528 L 301 528 L 301 549 L 328 549 L 328 528 Z " fill="rgb(255,255,255)" vector-effect="non-scaling-stroke" stroke-width="1" stroke="rgb(255,255,255)" stroke-linejoin="miter" stroke-linecap="square" stroke-miterlimit="3"/><defs><filter id="Q0Njfwbm5qYN6mIfiOZNJZnQrXkBHXX0" x="-200%" y="-200%" width="400%" height="400%" filterUnits="objectBoundingBox" color-interpolation-filters="sRGB"><feGaussianBlur xmlns="http://www.w3.org/2000/svg" in="SourceGraphic" stdDeviation="2.146804531419514"/><feOffset xmlns="http://www.w3.org/2000/svg" dx="6" dy="6" result="pf_100_offsetBlur"/><feFlood xmlns="http://www.w3.org/2000/svg" flood-color="#000000" flood-opacity="0.65"/><feComposite xmlns="http://www.w3.org/2000/svg" in2="pf_100_offsetBlur" operator="in" result="pf_100_dropShadow"/><feBlend xmlns="http://www.w3.org/2000/svg" in="SourceGraphic" in2="pf_100_dropShadow" mode="normal"/></filter></defs><g filter="url(#Q0Njfwbm5qYN6mIfiOZNJZnQrXkBHXX0)"><path d="M 231.23 290 L 401.77 290 C 410.727 290 418 297.273 418 306.23 L 418 447.77 C 418 456.727 410.727 464 401.77 464 L 231.23 464 C 222.273 464 215 456.727 215 447.77 L 215 306.23 C 215 297.273 222.273 290 231.23 290 Z" style="stroke:none;fill:#FFFFFF;stroke-miterlimit:10;"/></g><g clip-path="url(#_clipPath_GfrNwhYiqrXiTKdq6gnbOeb5PPO7NpGr)"><text transform="matrix(1,0,0,1,276,385.58)" style="font-family:'Pacifico';font-weight:400;font-size:60px;font-style:normal;fill:#071f38;stroke:none;">3000</text></g><defs><clipPath id="_clipPath_GfrNwhYiqrXiTKdq6gnbOeb5PPO7NpGr"><rect x="0" y="0" width="156.5" height="139.2" transform="matrix(1,0,0,1,276,307.4)"/></clipPath></defs><path d=" M 259.937 335.977 C 259.099 335.874 258.231 335.841 257.395 335.835 C 247.409 335.725 238.146 341.956 237.018 351.145 C 236.648 354.153 237.156 357.22 237.959 360.297 L 229.721 359.285 L 229.067 364.609 L 239.632 365.906 C 240.071 367.46 240.388 368.977 240.641 370.505 C 241.666 376.594 241.2 381.879 234.303 386.868 L 223.351 385.524 L 222.697 390.848 L 272.325 396.941 L 273.959 383.631 L 267.755 382.87 L 266.775 390.856 L 242.154 387.832 C 247.221 382.226 247.79 375.7 246.816 369.912 C 246.63 368.814 246.365 367.768 246.127 366.704 L 263.186 368.798 L 263.84 363.474 L 244.746 361.13 C 243.765 357.475 242.935 354.239 243.221 351.91 C 244.276 343.312 255.268 338.411 264.403 342.859 L 267.332 338.236 C 264.907 337.063 262.443 336.285 259.934 335.977 L 259.937 335.977 Z " fill="rgb(7,31,56)"/><g clip-path="url(#_clipPath_0TDIQxCqwFRchAR2KiHVPUAnAy4W6SKH)"><text transform="matrix(1,0,0,1,522.105,621.816)" style="font-family:'Pacifico';font-weight:400;font-size:72px;font-style:normal;font-variant-ligatures:none;fill:#ffffff;stroke:none;">10000</text></g><defs><clipPath id="_clipPath_0TDIQxCqwFRchAR2KiHVPUAnAy4W6SKH"><rect x="0" y="0" width="198.25" height="124.2" transform="matrix(1,0,0,1,522.105,528)"/></clipPath></defs><g><path d=" M 704.728 365.141 C 683.252 399.084 636.661 408.153 600.688 385.393 C 564.715 362.633 552.959 316.646 574.435 282.703 C 595.911 248.76 642.502 239.691 678.475 262.451 C 714.447 285.212 726.204 331.198 704.728 365.141 Z " fill="rgb(249,227,174)"/><path d=" M 547.783 349.141 C 551.168 361.153 556.908 372.523 564.678 382.603 L 725.987 351.203 L 737.354 333.237 C 737.323 326.368 736.52 319.483 734.96 312.706 L 547.783 349.141 Z  M 545.642 339.758 L 731.202 303.638 L 713.435 292.396 L 544.223 325.334 C 544.321 330.151 544.796 334.973 545.642 339.758 Z  M 549.266 314.553 L 706.319 283.981 L 700.971 272.772 L 551.343 301.898 C 550.35 306.049 549.656 310.278 549.266 314.553 L 549.266 314.553 Z " fill="rgb(255,239,202)"/><path d=" M 689.082 245.687 C 643.287 216.712 584.008 228.251 556.668 271.462 C 529.327 314.673 544.286 373.183 590.081 402.158 C 635.876 431.133 695.155 419.594 722.495 376.383 C 749.835 333.172 734.877 274.662 689.082 245.687 Z  M 600.688 385.393 C 571.396 366.861 557.373 332.164 566.411 300.582 C 575.456 269.007 605.335 248.313 639.446 250 C 673.563 251.687 703.524 275.352 712.671 307.838 L 713.504 310.978 C 720.542 340.876 708.352 370.982 682.752 386.924 C 658.295 402.145 626.217 401.546 600.688 385.393 Z " fill="rgb(246,211,151)"/><path d=" M 606.102 294.914 L 605.769 303.554 L 610.279 311.251 L 601.392 310.472 L 593.727 314.473 L 594.06 305.833 L 589.55 298.136 L 598.437 298.915 L 606.102 294.914 Z  M 695.812 316.461 L 695.567 322.405 L 698.691 327.758 L 692.542 327.186 L 687.256 329.984 L 687.476 323.98 L 684.358 318.69 L 690.5 319.2 L 695.812 316.461 Z  M 667.849 360.197 L 667.705 364.292 L 669.809 367.901 L 665.63 367.565 L 662.012 369.416 L 662.164 365.368 L 660.039 361.715 L 664.234 362.097 L 667.849 360.197 Z " fill="rgb(255,248,248)"/><path d=" M 647.935 356.596 L 624.245 341.608 L 627.781 336.019 C 631.619 329.948 633.465 322.808 633.084 315.5 L 632.747 307.461 C 632.578 304.203 633.383 301.017 635.064 298.293 L 637.15 294.995 C 641.057 288.82 649.523 287.173 656.067 291.313 L 661.989 295.06 C 668.533 299.201 670.67 307.556 666.763 313.731 C 665.79 315.268 666.327 317.369 667.956 318.399 C 669.585 319.429 671.713 319.015 672.685 317.478 C 678.542 308.222 675.332 295.678 665.525 289.472 L 659.603 285.725 C 649.792 279.518 637.083 281.994 631.228 291.248 L 629.142 294.545 C 626.697 298.41 625.542 302.949 625.779 307.595 L 625.97 311.355 L 623.601 309.856 C 621.966 308.821 619.849 309.233 618.872 310.776 C 617.896 312.32 618.43 314.409 620.066 315.444 L 625.988 319.191 C 625.686 323.846 624.279 328.312 621.878 332.241 L 618.342 337.83 L 606.497 330.335 C 604.862 329.301 602.745 329.713 601.768 331.256 C 600.792 332.799 601.326 334.889 602.961 335.924 L 644.418 362.154 C 646.054 363.189 648.171 362.776 649.148 361.233 C 650.124 359.69 649.59 357.6 647.954 356.566 L 647.935 356.596 Z " fill="rgb(141,108,159)"/><path d=" M 644.31 323.002 C 642.682 321.971 640.554 322.386 639.581 323.922 C 638.609 325.459 639.146 327.56 640.775 328.59 L 649.658 334.211 C 651.287 335.241 653.415 334.827 654.387 333.29 C 655.36 331.753 654.823 329.653 653.194 328.622 L 644.31 323.002 Z  M 696.144 282.708 C 697.781 284.801 699.315 286.964 700.731 289.202 C 701.757 290.83 703.892 291.402 705.502 290.496 C 707.107 289.573 707.582 287.521 706.567 285.896 C 705.012 283.448 703.327 281.076 701.522 278.79 C 700.304 277.384 698.218 277.101 696.781 278.147 C 695.345 279.193 695.063 281.199 696.141 282.707 L 696.144 282.708 Z " fill="rgb(141,108,159)"/><path d=" M 690.85 242.893 C 643.423 212.885 582.021 224.837 553.706 269.588 C 525.392 314.339 540.886 374.945 588.313 404.952 C 635.74 434.959 697.142 423.007 725.456 378.256 C 753.771 333.506 738.276 272.9 690.85 242.893 Z  M 591.849 399.364 C 547.697 371.429 533.27 314.996 559.629 273.335 C 585.988 231.675 643.162 220.546 687.314 248.481 C 731.466 276.416 745.893 332.849 719.534 374.509 C 693.175 416.17 636 427.299 591.849 399.364 Z " fill="rgb(141,108,159)"/><path d=" M 607.76 374.217 C 606.131 373.186 604.003 373.6 603.031 375.137 L 599.495 380.725 C 598.522 382.262 599.059 384.363 600.688 385.393 C 602.317 386.424 604.445 386.009 605.417 384.473 L 608.953 378.884 C 609.925 377.348 609.388 375.247 607.76 374.217 Z  M 625.389 385.676 C 625.878 383.923 624.807 382.039 622.988 381.449 C 621.169 380.86 619.278 381.785 618.748 383.524 L 616.875 389.891 C 616.468 391.63 617.55 393.448 619.335 394.022 C 621.12 394.595 622.979 393.723 623.561 392.039 L 625.389 385.676 Z  M 584.753 349.956 C 584.303 349.154 583.558 348.539 582.677 348.244 C 581.789 347.956 580.839 348.028 580.034 348.423 L 574.014 351.383 C 572.463 352.257 571.947 354.199 572.841 355.805 C 573.734 357.411 575.725 358.121 577.372 357.42 L 583.392 354.46 C 584.197 354.072 584.792 353.378 585.048 352.533 C 585.303 351.688 585.197 350.761 584.753 349.956 Z  M 642.941 388.22 C 642.89 386.418 641.389 384.902 639.541 384.786 C 637.69 384.658 636.146 385.981 636.048 387.776 L 635.951 394.483 C 636.003 396.286 637.502 397.802 639.35 397.922 C 641.198 398.042 642.738 396.723 642.842 394.931 L 642.941 388.22 Z  M 594.687 363.485 C 593.359 362.094 591.184 361.954 589.819 363.171 L 584.881 367.567 C 583.944 368.343 583.543 369.58 583.837 370.791 C 584.131 372.003 585.072 372.996 586.291 373.38 C 587.507 373.763 588.806 373.477 589.677 372.636 L 594.641 368.225 C 595.989 366.994 596.011 364.88 594.69 363.486 L 594.687 363.485 Z  M 577.396 284.577 C 588.272 267.387 606.599 256.117 627.516 253.748 C 648.44 251.382 669.859 258.147 686.12 272.258 C 687.589 273.54 689.801 273.452 691.04 272.084 C 692.28 270.713 692.073 268.551 690.603 267.269 C 682.146 234.445 653.269 209.545 619.036 205.555 C 584.802 201.565 552.971 219.39 540.145 249.733 C 527.318 280.076 536.404 316.059 562.663 338.914 C 563.237 340.607 565.029 341.651 566.776 341.311 C 568.522 340.971 569.636 339.362 569.331 337.617 C 564.573 319.222 567.477 300.119 577.396 284.577 Z  M 716.486 308.952 C 715.698 305.872 714.723 302.825 713.585 299.84 C 713.201 298.615 712.161 297.664 710.887 297.373 C 709.616 297.077 708.319 297.499 707.539 298.464 C 706.753 299.422 706.607 300.758 707.162 301.923 C 708.205 304.656 709.09 307.437 709.813 310.251 C 719.593 348.535 696.086 385.688 657.302 393.245 C 656.025 393.391 654.977 394.227 654.589 395.41 C 654.213 396.593 654.554 397.923 655.472 398.857 C 656.407 399.785 657.755 400.164 658.987 399.829 C 701.463 391.548 727.214 350.849 716.5 308.93 L 716.486 308.952 Z " fill="rgb(141,108,159)"/></g><g clip-path="url(#_clipPath_UbaefuRGgQvg6exfmhXxseTF6H17EbwL)"><text transform="matrix(1,0,0,1,97.554,616.68)" style="font-family:'Pacifico';font-weight:400;font-size:60px;font-style:normal;font-variant-ligatures:none;fill:#ffffff;stroke:none;">0 </text><text transform="matrix(1,0,0,1,146.034,616.68)" style="font-family:'Pacifico';font-weight:400;font-size:60px;font-style:normal;font-variant-ligatures:none;fill:#071f38;stroke:none;">text here</text></g><defs><clipPath id="_clipPath_UbaefuRGgQvg6exfmhXxseTF6H17EbwL"><rect x="0" y="0" width="274" height="105.36" transform="matrix(1,0,0,1,97.554,538.5)"/></clipPath></defs><path d=" M 241.544 951.495 C 240.975 951.501 240.4 951.528 239.819 951.599 C 238.662 951.748 237.394 952.134 236.421 953.096 L 198.424 990.64 C 196.549 992.514 196.549 995.531 198.424 997.406 L 227.485 1026.119 C 229.383 1027.971 232.434 1027.971 234.331 1026.119 L 272.333 988.576 C 273.298 987.619 273.698 986.355 273.848 985.218 C 273.999 984.082 273.952 982.959 273.952 981.861 L 273.952 957.279 C 273.937 954.09 271.324 951.508 268.096 951.495 L 243.216 951.495 C 242.674 951.495 242.112 951.488 241.544 951.495 Z  M 241.596 954.8 C 242.086 954.787 242.649 954.8 243.216 954.8 L 268.096 954.8 C 269.501 954.8 270.605 955.891 270.605 957.279 L 270.605 981.861 C 270.605 983.01 270.598 984.049 270.5 984.804 C 270.403 985.56 270.245 985.935 269.978 986.199 L 231.978 1023.796 C 231.695 1024.078 231.309 1024.236 230.907 1024.236 C 230.505 1024.236 230.119 1024.078 229.835 1023.796 L 229.626 1023.538 L 200.774 995.082 C 200.489 994.802 200.328 994.421 200.328 994.023 C 200.328 993.626 200.489 993.245 200.774 992.965 L 238.826 955.42 C 239.087 955.162 239.518 955 240.289 954.902 C 240.674 954.853 241.105 954.813 241.596 954.8 Z  M 258.897 959.758 C 255.217 959.758 252.206 962.732 252.206 966.368 C 252.206 970.004 255.217 972.978 258.897 972.978 C 262.577 972.978 265.587 970.004 265.587 966.368 C 265.587 962.732 262.577 959.758 258.897 959.758 Z  M 258.897 963.063 C 260.765 963.063 262.242 964.522 262.242 966.368 C 262.242 968.214 260.765 969.673 258.897 969.673 C 257.029 969.673 255.552 968.214 255.552 966.368 C 255.552 964.522 257.029 963.063 258.897 963.063 Z  M 239.714 977.472 C 237.743 977.503 235.865 978.301 234.487 979.693 C 233.687 980.468 233.032 981.376 232.553 982.377 C 232.117 983.29 231.767 984.242 231.508 985.219 L 229.887 983.616 L 228.686 984.856 L 230.986 987.181 C 230.782 987.71 230.568 988.239 230.254 988.833 C 229.973 989.403 229.602 989.926 229.156 990.382 C 228.621 990.911 228.019 991.312 227.378 991.621 C 226.732 991.933 226.047 992.159 225.341 992.294 C 224.634 992.423 223.915 992.474 223.197 992.448 C 222.53 992.437 221.866 992.368 221.212 992.241 L 220.688 995.289 C 221.381 995.431 222.06 995.644 222.675 995.908 C 223.321 996.192 223.907 996.595 224.4 997.096 C 224.928 997.619 225.36 998.167 225.706 998.749 C 226.059 999.329 226.387 999.904 226.699 1000.504 C 227.051 1001.106 227.365 1001.666 227.693 1002.21 C 228.019 1002.752 228.437 1003.254 228.894 1003.707 C 229.606 1004.418 230.416 1005.042 231.299 1005.566 C 232.154 1006.08 233.123 1006.381 234.122 1006.444 L 234.75 1003.5 C 234.127 1003.425 233.514 1003.287 232.92 1003.087 C 232.31 1002.889 231.755 1002.553 231.299 1002.106 C 230.887 1001.71 230.535 1001.257 230.254 1000.762 C 229.986 1000.284 229.725 999.787 229.469 999.316 C 229.195 998.865 228.907 998.381 228.581 997.87 C 228.204 997.309 227.766 996.789 227.275 996.321 C 226.777 995.811 226.193 995.392 225.549 995.082 C 224.935 994.798 224.294 994.527 223.615 994.256 L 223.615 994.152 C 224.348 994.223 225.079 994.276 225.811 994.307 C 226.542 994.347 227.25 994.32 227.954 994.204 C 228.66 994.089 229.379 993.881 230.045 993.585 C 230.71 993.281 231.358 992.803 231.978 992.19 C 232.363 991.81 232.677 991.402 232.92 990.95 C 233.161 990.499 233.351 990.047 233.493 989.607 L 237.257 993.325 L 238.511 992.139 L 234.121 987.801 C 234.285 987.31 234.442 986.826 234.592 986.355 C 234.744 985.882 234.918 985.416 235.114 984.96 C 235.31 984.502 235.507 984.024 235.795 983.565 C 236.074 983.101 236.454 982.661 236.892 982.223 C 237.377 981.725 237.965 981.337 238.617 981.086 C 239.257 980.848 239.923 980.795 240.604 980.828 C 241.283 980.866 241.928 981.002 242.589 981.293 C 243.25 981.584 243.87 981.99 244.419 982.532 C 245.739 983.838 246.307 985.257 246.091 986.768 C 245.882 988.278 244.999 989.842 243.425 991.466 L 245.725 993.791 C 248.13 991.494 249.365 989.189 249.385 986.87 C 249.403 984.547 248.391 982.378 246.352 980.364 C 245.545 979.563 244.609 978.899 243.583 978.401 C 242.618 977.924 241.572 977.626 240.498 977.523 C 240.238 977.493 239.976 977.476 239.714 977.472 Z " fill="rgb(7,31,56)"/></g></svg>