<?xml version="1.0" encoding="UTF-8" standalone="no"?><!-- Generator: Gravit.io --><svg xmlns="http://www.w3.org/2000/svg" xmlns:xlink="http://www.w3.org/1999/xlink" style="isolation:isolate" viewBox="0 0 800 1200" width="800pt" height="1200pt"><defs><clipPath id="_clipPath_6t2LgcF2HlOpHj0J8am7CPFemHSfwgDW"><rect width="800" height="1200"/></clipPath></defs><g clip-path="url(#_clipPath_6t2LgcF2HlOpHj0J8am7CPFemHSfwgDW)"><g><path d="M 153.07 385 L 358.93 385 C 422.991 385 475 437.009 475 501.07 L 475 738.93 C 475 802.991 422.991 855 358.93 855 L 153.07 855 C 89.009 855 37 802.991 37 738.93 L 37 501.07 C 37 437.009 89.009 385 153.07 385 Z" style="stroke:none;fill:#82A9D2;stroke-miterlimit:10;"/><path d="M 507.94 765 L 740.06 765 C 758.24 765 773 779.76 773 797.94 L 773 1006.56 C 773 1024.74 758.24 1039.5 740.06 1039.5 L 507.94 1039.5 C 489.76 1039.5 475 1024.74 475 1006.56 L 475 797.94 C 475 779.76 489.76 765 507.94 765 Z" style="stroke:none;fill:#82A9D2;stroke-miterlimit:10;"/><defs><filter id="tWyqnnF9sK7GPkC0pNyUYtBlWbIVKEiz" x="-200%" y="-200%" width="400%" height="400%" filterUnits="objectBoundingBox" color-interpolation-filters="sRGB"><feGaussianBlur xmlns="http://www.w3.org/2000/svg" in="SourceGraphic" stdDeviation="2.146804531419514"/><feOffset xmlns="http://www.w3.org/2000/svg" dx="-5" dy="0" result="pf_100_offsetBlur"/><feFlood xmlns="http://www.w3.org/2000/svg" flood-color="#000000" flood-opacity="0.65"/><feComposite xmlns="http://www.w3.org/2000/svg" in2="pf_100_offsetBlur" operator="in" result="pf_100_dropShadow"/><feBlend xmlns="http://www.w3.org/2000/svg" in="SourceGraphic" in2="pf_100_dropShadow" mode="normal"/></filter></defs><g filter="url(#tWyqnnF9sK7GPkC0pNyUYtBlWbIVKEiz)"><ellipse vector-effect="non-scaling-stroke" cx="623.9999999999999" cy="608.25" rx="155.5" ry="156.75" fill="rgb(7,31,56)"/></g><path d=" M 410 385 L 408 475 Q 391.155 537.028 376 537 Q 360.845 536.972 301 561 L 159 597 L 37 625 L 37 385 L 410 385 Z " fill="rgb(7,31,56)" vector-effect="non-scaling-stroke" stroke-width="1" stroke="rgb(0,0,0)" stroke-linejoin="miter" stroke-linecap="square" stroke-miterlimit="3"/><path d=" M 475 608 L 264 582 Q 220.401 609.718 238 670 Q 255.599 730.282 286 765 L 395 797 L 475 823 L 475 608 Z " fill="rgb(7,31,56)" vector-effect="non-scaling-stroke" stroke-width="1" stroke="rgb(0,0,0)" stroke-linejoin="miter" stroke-linecap="square" stroke-miterlimit="3"/><path d=" M 37 625 L 202 692 Q 252.69 697.43 223 745 Q 193.31 792.57 137 855 L 37 855 L 37 625 Z " fill="rgb(7,31,56)" vector-effect="non-scaling-stroke" stroke-width="1" stroke="rgb(0,0,0)" stroke-linejoin="miter" stroke-linecap="square" stroke-miterlimit="3"/><path d=" M 455 1100 L 475 1039.5 L 773 1039.5 L 756 1119 L 455 1100 Z " fill="rgb(7,31,56)" vector-effect="non-scaling-stroke" stroke-width="1" stroke="rgb(0,0,0)" stroke-linejoin="miter" stroke-linecap="square" stroke-miterlimit="3"/><path d=" M 37 855 L 37 1039.5 L 159 1061 Q 192.761 1054.486 178 1003 C 163.239 951.514 212.092 906.254 178 887 Q 143.908 867.746 37 855 Z " fill="rgb(7,31,56)" vector-effect="non-scaling-stroke" stroke-width="1" stroke="rgb(0,0,0)" stroke-linejoin="miter" stroke-linecap="square" stroke-miterlimit="3"/><path d=" M 202 1039.5 L 455 1039.5 L 455 960 L 442 868 Q 448.556 850.845 380 855 Q 311.444 859.155 228 855 Q 206.394 882.556 202 902 Q 197.606 921.444 202 1039.5 Z " fill="rgb(7,31,56)" vector-effect="non-scaling-stroke" stroke-width="1" stroke="rgb(0,0,0)" stroke-linejoin="miter" stroke-linecap="square" stroke-miterlimit="3"/></g></g></svg>