<?xml version="1.0" encoding="UTF-8" standalone="no"?><!-- Generator: Gravit.io --><svg xmlns="http://www.w3.org/2000/svg" xmlns:xlink="http://www.w3.org/1999/xlink" style="isolation:isolate" viewBox="190 398 276.47 264.267" width="276.47pt" height="264.267pt"><g><circle vector-effect="non-scaling-stroke" cx="202.5" cy="427.49999999999994" r="12.5" fill="rgb(7,31,56)"/><circle vector-effect="non-scaling-stroke" cx="268.5" cy="427.49999999999994" r="12.5" fill="rgb(7,31,56)"/><circle vector-effect="non-scaling-stroke" cx="337.5" cy="427.49999999999994" r="12.5" fill="rgb(7,31,56)"/><ellipse vector-effect="non-scaling-stroke" cx="395.15182186234836" cy="425.0303643724696" rx="13.5" ry="12.5" fill="rgb(7,31,56)"/><circle vector-effect="non-scaling-stroke" cx="451.49999999999994" cy="427.4999999999999" r="12.5" fill="rgb(7,31,56)"/><circle vector-effect="non-scaling-stroke" cx="202.5" cy="501.5" r="12.5" fill="rgb(7,31,56)"/><circle vector-effect="non-scaling-stroke" cx="202.5" cy="575.5" r="12.5" fill="rgb(7,31,56)"/><circle vector-effect="non-scaling-stroke" cx="202.5" cy="649.5" r="12.5" fill="rgb(7,31,56)"/><circle vector-effect="non-scaling-stroke" cx="268.5" cy="501.5" r="12.5" fill="rgb(7,31,56)"/><circle vector-effect="non-scaling-stroke" cx="268.5" cy="575.5" r="12.5" fill="rgb(7,31,56)"/><circle vector-effect="non-scaling-stroke" cx="268.5" cy="649.6781376518218" r="12.5" fill="rgb(7,31,56)"/><circle vector-effect="non-scaling-stroke" cx="334.5" cy="501.5" r="12.5" fill="rgb(7,31,56)"/><circle vector-effect="non-scaling-stroke" cx="334.5" cy="575.5" r="12.5" fill="rgb(7,31,56)"/><circle vector-effect="non-scaling-stroke" cx="337.5" cy="427.49999999999994" r="12.5" fill="rgb(7,31,56)"/><circle vector-effect="non-scaling-stroke" cx="337.5" cy="649.6781376518218" r="12.5" fill="rgb(7,31,56)"/><ellipse vector-effect="non-scaling-stroke" cx="397.6214574898788" cy="504.0587044534411" rx="13.5" ry="12.5" fill="rgb(7,31,56)"/><ellipse vector-effect="non-scaling-stroke" cx="401.5" cy="575.5" rx="13.5" ry="12.5" fill="rgb(7,31,56)"/><ellipse vector-effect="non-scaling-stroke" cx="401.5" cy="649.5" rx="13.5" ry="12.5" fill="rgb(7,31,56)"/><circle vector-effect="non-scaling-stroke" cx="451.49999999999994" cy="501.5" r="12.5" fill="rgb(7,31,56)"/><circle vector-effect="non-scaling-stroke" cx="451.49999999999994" cy="575.5000000000001" r="12.5" fill="rgb(7,31,56)"/><circle vector-effect="non-scaling-stroke" cx="453.9696356275303" cy="649.7672064777327" r="12.5" fill="rgb(7,31,56)"/></g></svg>