<?xml version="1.0" encoding="UTF-8" standalone="no"?><!-- Generator: Gravit.io --><svg xmlns="http://www.w3.org/2000/svg" xmlns:xlink="http://www.w3.org/1999/xlink" style="isolation:isolate" viewBox="0 0 767 1200" width="767pt" height="1200pt"><defs><clipPath id="_clipPath_4osgeDwzkX3WGB0neeNRfX76rPAiUyRW"><rect width="767" height="1200"/></clipPath></defs><g clip-path="url(#_clipPath_4osgeDwzkX3WGB0neeNRfX76rPAiUyRW)"><g><defs><filter id="nKwODYg5L3kkvQTo39mcOhXdyJey2Wpo" x="-200%" y="-200%" width="400%" height="400%" filterUnits="objectBoundingBox" color-interpolation-filters="sRGB"><feGaussianBlur xmlns="http://www.w3.org/2000/svg" in="SourceGraphic" stdDeviation="2.146804531419514"/><feOffset xmlns="http://www.w3.org/2000/svg" dx="0" dy="0" result="pf_100_offsetBlur"/><feFlood xmlns="http://www.w3.org/2000/svg" flood-color="#000000" flood-opacity="0.65"/><feComposite xmlns="http://www.w3.org/2000/svg" in2="pf_100_offsetBlur" operator="in" result="pf_100_dropShadow"/><feBlend xmlns="http://www.w3.org/2000/svg" in="SourceGraphic" in2="pf_100_dropShadow" mode="normal"/></filter></defs><g filter="url(#nKwODYg5L3kkvQTo39mcOhXdyJey2Wpo)"><path d="M 188.27 309 L 617.73 309 C 633.609 309 646.5 321.891 646.5 337.77 L 646.5 691.23 C 646.5 707.109 633.609 720 617.73 720 L 188.27 720 C 172.391 720 159.5 707.109 159.5 691.23 L 159.5 337.77 C 159.5 321.891 172.391 309 188.27 309 Z" style="stroke:none;fill:#E8E8E8;stroke-miterlimit:10;"/></g><path d="M 170.521 309 L 635.479 309 C 641.561 309 646.5 313.939 646.5 320.021 L 646.5 632.979 C 646.5 639.061 641.561 644 635.479 644 L 170.521 644 C 164.439 644 159.5 639.061 159.5 632.979 L 159.5 320.021 C 159.5 313.939 164.439 309 170.521 309 Z" style="stroke:none;fill:#000000;stroke-miterlimit:10;"/><rect x="193" y="342" width="426" height="274" transform="matrix(1,0,0,1,0,0)" fill="rgb(255,255,255)"/><defs><filter id="zU0tOeXOS42jPmX6CccWJnJQNFVsbLyn" x="-200%" y="-200%" width="400%" height="400%" filterUnits="objectBoundingBox" color-interpolation-filters="sRGB"><feGaussianBlur xmlns="http://www.w3.org/2000/svg" in="SourceGraphic" stdDeviation="2.146804531419514"/><feOffset xmlns="http://www.w3.org/2000/svg" dx="0" dy="0" result="pf_100_offsetBlur"/><feFlood xmlns="http://www.w3.org/2000/svg" flood-color="#000000" flood-opacity="0.65"/><feComposite xmlns="http://www.w3.org/2000/svg" in2="pf_100_offsetBlur" operator="in" result="pf_100_dropShadow"/><feBlend xmlns="http://www.w3.org/2000/svg" in="SourceGraphic" in2="pf_100_dropShadow" mode="normal"/></filter></defs><g filter="url(#zU0tOeXOS42jPmX6CccWJnJQNFVsbLyn)"><path d=" M 357 720 L 344 790 L 305 818 L 305 842 L 326 842 L 494 842 L 494 842 L 511 842 L 511 818 L 475 790 L 460 720 L 357 720 Z " fill="rgb(232,232,232)"/></g><rect x="193" y="342" width="426" height="51" transform="matrix(1,0,0,1,0,0)" fill="rgb(74,166,232)"/><rect x="381" y="357" width="54" height="23" transform="matrix(1,0,0,1,0,0)" fill="rgb(255,255,255)"/><rect x="537" y="357" width="54" height="23" transform="matrix(1,0,0,1,0,0)" fill="rgb(255,255,255)"/><rect x="464" y="357" width="47" height="23" transform="matrix(1,0,0,1,0,0)" fill="rgb(255,255,255)"/><rect x="228" y="434" width="153" height="21" transform="matrix(1,0,0,1,0,0)" fill="rgb(185,185,185)"/><rect x="193" y="736" width="77.5" height="21" transform="matrix(1,0,0,1,0,0)" fill="rgb(185,185,185)"/><rect x="228" y="479" width="129" height="19" transform="matrix(1,0,0,1,0,0)" fill="rgb(235,235,235)"/><rect x="228" y="514.5" width="129" height="18.5" transform="matrix(1,0,0,1,0,0)" fill="rgb(235,235,235)"/><rect x="-1" y="-1" width="2" height="2" transform="matrix(1,0,0,1,0,0)" fill="rgb(235,235,235)"/><path d="M 234.63 552 L 362.37 552 C 366.029 552 369 554.971 369 558.63 L 369 579.37 C 369 583.029 366.029 586 362.37 586 L 234.63 586 C 230.971 586 228 583.029 228 579.37 L 228 558.63 C 228 554.971 230.971 552 234.63 552 Z" style="stroke:none;fill:#4AA6E8;stroke-miterlimit:10;"/><rect x="435" y="434" width="156" height="152" transform="matrix(1,0,0,1,0,0)" fill="rgb(235,235,235)"/><g clip-path="url(#_clipPath_aV0Ief9HR64fKdrnHqrqXVxube2gQB4o)"><text transform="matrix(1,0,0,1,198,380.12)" style="font-family:'Paytone One';font-weight:400;font-size:28px;font-style:normal;fill:#ffffff;stroke:none;">MY Business</text></g><defs><clipPath id="_clipPath_aV0Ief9HR64fKdrnHqrqXVxube2gQB4o"><rect x="0" y="0" width="171" height="39.088" transform="matrix(1,0,0,1,198,348.956)"/></clipPath></defs><defs><filter id="PqPFKDabcqdHchDlqnxOYinX2WHWke5w" x="-200%" y="-200%" width="400%" height="400%" filterUnits="objectBoundingBox" color-interpolation-filters="sRGB"><feGaussianBlur xmlns="http://www.w3.org/2000/svg" in="SourceGraphic" stdDeviation="2.146804531419514"/><feOffset xmlns="http://www.w3.org/2000/svg" dx="0" dy="0" result="pf_100_offsetBlur"/><feFlood xmlns="http://www.w3.org/2000/svg" flood-color="#000000" flood-opacity="0.65"/><feComposite xmlns="http://www.w3.org/2000/svg" in2="pf_100_offsetBlur" operator="in" result="pf_100_dropShadow"/><feBlend xmlns="http://www.w3.org/2000/svg" in="SourceGraphic" in2="pf_100_dropShadow" mode="normal"/></filter></defs><g filter="url(#PqPFKDabcqdHchDlqnxOYinX2WHWke5w)"><path d="M 19.438 434 L 264.063 434 C 267.615 434 270.5 436.885 270.5 440.438 L 270.5 825.063 C 270.5 828.615 267.615 831.5 264.062 831.5 L 19.438 831.5 C 15.885 831.5 13 828.615 13 825.063 L 13 440.438 C 13 436.885 15.885 434 19.438 434 Z" style="stroke:none;fill:#E8E8E8;stroke-miterlimit:10;"/><path d="M 19.438 434 L 264.063 434 C 267.615 434 270.5 436.885 270.5 440.438 L 270.5 825.063 C 270.5 828.615 267.615 831.5 264.062 831.5 L 19.438 831.5 C 15.885 831.5 13 828.615 13 825.063 L 13 440.438 C 13 436.885 15.885 434 19.438 434 Z" style="fill:none;stroke:#000000;stroke-width:4;stroke-linecap:square;stroke-miterlimit:2;"/></g><path d="M 47.18 476.5 L 240.82 476.5 C 244.231 476.5 247 479.269 247 482.68 L 247 783.82 C 247 787.231 244.231 790 240.82 790 L 47.18 790 C 43.769 790 41 787.231 41 783.82 L 41 482.68 C 41 479.269 43.769 476.5 47.18 476.5 Z" style="stroke:none;fill:#FFFFFF;stroke-miterlimit:10;"/><path d="M 47.18 476.5 L 240.82 476.5 C 244.231 476.5 247 479.269 247 482.68 L 247 783.82 C 247 787.231 244.231 790 240.82 790 L 47.18 790 C 43.769 790 41 787.231 41 783.82 L 41 482.68 C 41 479.269 43.769 476.5 47.18 476.5 Z" style="fill:none;stroke:#000000;stroke-width:4;stroke-linecap:square;stroke-miterlimit:2;"/><ellipse vector-effect="non-scaling-stroke" cx="98.5" cy="461.6875000000001" rx="8.5" ry="6.687500000000057" fill="rgb(0,0,0)"/><rect x="118" y="455" width="75" height="6.688" transform="matrix(1,0,0,1,0,0)" fill="rgb(0,0,0)"/><mask id="_mask_h1M6daAOBReXk1NxOJOW3SJSvkf8fQZq"><ellipse vector-effect="non-scaling-stroke" cx="140.74999999999997" cy="808" rx="18.75" ry="14" fill="white" stroke="none"/></mask><ellipse vector-effect="non-scaling-stroke" cx="140.74999999999997" cy="808" rx="18.75" ry="14" fill="rgb(255,255,255)"/><ellipse vector-effect="non-scaling-stroke" cx="140.74999999999997" cy="808" rx="18.75" ry="14" fill="rgb(255,255,255)" mask="url(#_mask_h1M6daAOBReXk1NxOJOW3SJSvkf8fQZq)" stroke-width="2" stroke="rgb(93,93,93)" stroke-linejoin="miter" stroke-linecap="square" stroke-miterlimit="3"/><path d="M 48.29 479 L 239.71 479 C 243.733 479 247 482.267 247 486.29 L 247 525.71 C 247 529.733 243.733 533 239.71 533 L 48.29 533 C 44.267 533 41 529.733 41 525.71 L 41 486.29 C 41 482.267 44.267 479 48.29 479 Z" style="stroke:none;fill:#4AA6E8;stroke-miterlimit:10;"/><g clip-path="url(#_clipPath_aM9744UKzUR70oe1Nop1VYRgx5SdWUOS)"><text transform="matrix(1,0,0,1,54.75,509.123)" style="font-family:'Paytone One';font-weight:400;font-size:19px;font-style:normal;fill:#ffffff;stroke:none;">MY Business</text></g><defs><clipPath id="_clipPath_aM9744UKzUR70oe1Nop1VYRgx5SdWUOS"><rect x="0" y="0" width="172" height="26.524" transform="matrix(1,0,0,1,54.75,487.976)"/></clipPath></defs><rect x="198" y="488.5" width="30" height="26" transform="matrix(1,0,0,1,0,0)" fill="rgb(255,255,255)"/><rect x="89.25" y="552" width="103" height="146" transform="matrix(1,0,0,1,0,0)" fill="rgb(232,232,232)"/><path d="M 73.2 720 L 208.8 720 C 211.118 720 213 721.882 213 724.2 L 213 757.8 C 213 760.118 211.118 762 208.8 762 L 73.2 762 C 70.882 762 69 760.118 69 757.8 L 69 724.2 C 69 721.882 70.882 720 73.2 720 Z" style="stroke:none;fill:#4AA6E8;stroke-miterlimit:10;"/><defs><filter id="LQ6GGJB2D08fNu4Gy9nRM7J4OR8XGpx2" x="-200%" y="-200%" width="400%" height="400%" filterUnits="objectBoundingBox" color-interpolation-filters="sRGB"><feGaussianBlur xmlns="http://www.w3.org/2000/svg" in="SourceGraphic" stdDeviation="2.146804531419514"/><feOffset xmlns="http://www.w3.org/2000/svg" dx="0" dy="0" result="pf_100_offsetBlur"/><feFlood xmlns="http://www.w3.org/2000/svg" flood-color="#000000" flood-opacity="0.65"/><feComposite xmlns="http://www.w3.org/2000/svg" in2="pf_100_offsetBlur" operator="in" result="pf_100_dropShadow"/><feBlend xmlns="http://www.w3.org/2000/svg" in="SourceGraphic" in2="pf_100_dropShadow" mode="normal"/></filter></defs><g filter="url(#LQ6GGJB2D08fNu4Gy9nRM7J4OR8XGpx2)"><path d="M 180.435 655 L 284.065 655 C 288.72 655 292.5 658.78 292.5 663.435 L 292.5 850.565 C 292.5 855.22 288.72 859 284.065 859 L 180.435 859 C 175.78 859 172 855.22 172 850.565 L 172 663.435 C 172 658.78 175.78 655 180.435 655 Z" style="stroke:none;fill:#EBEBEB;stroke-miterlimit:10;"/><path d="M 180.435 655 L 284.065 655 C 288.72 655 292.5 658.78 292.5 663.435 L 292.5 850.565 C 292.5 855.22 288.72 859 284.065 859 L 180.435 859 C 175.78 859 172 855.22 172 850.565 L 172 663.435 C 172 658.78 175.78 655 180.435 655 Z" style="fill:none;stroke:#000000;stroke-width:2;stroke-linecap:square;stroke-miterlimit:2;"/></g><defs><filter id="9ALzMDD7BxAi3mtJMHY47mxRWLZYfTru" x="-200%" y="-200%" width="400%" height="400%" filterUnits="objectBoundingBox" color-interpolation-filters="sRGB"><feGaussianBlur xmlns="http://www.w3.org/2000/svg" in="SourceGraphic" stdDeviation="2.146804531419514"/><feOffset xmlns="http://www.w3.org/2000/svg" dx="0" dy="0" result="pf_100_offsetBlur"/><feFlood xmlns="http://www.w3.org/2000/svg" flood-color="#000000" flood-opacity="0.65"/><feComposite xmlns="http://www.w3.org/2000/svg" in2="pf_100_offsetBlur" operator="in" result="pf_100_dropShadow"/><feBlend xmlns="http://www.w3.org/2000/svg" in="SourceGraphic" in2="pf_100_dropShadow" mode="normal"/></filter></defs><g filter="url(#9ALzMDD7BxAi3mtJMHY47mxRWLZYfTru)"><path d="M 196.197 681.75 L 268.303 681.75 C 271.171 681.75 273.5 684.079 273.5 686.947 L 273.5 827.053 C 273.5 829.921 271.171 832.25 268.303 832.25 L 196.197 832.25 C 193.329 832.25 191 829.921 191 827.053 L 191 686.947 C 191 684.079 193.329 681.75 196.197 681.75 Z" style="stroke:none;fill:#EBEBEB;stroke-miterlimit:10;"/><path d="M 196.197 681.75 L 268.303 681.75 C 271.171 681.75 273.5 684.079 273.5 686.947 L 273.5 827.053 C 273.5 829.921 271.171 832.25 268.303 832.25 L 196.197 832.25 C 193.329 832.25 191 829.921 191 827.053 L 191 686.947 C 191 684.079 193.329 681.75 196.197 681.75 Z" style="fill:none;stroke:#000000;stroke-width:2;stroke-linecap:square;stroke-miterlimit:2;"/></g><path d="M 257.949 668.572 L 219.399 669.1 C 218.86 669.107 218.41 668.676 218.396 668.137 L 218.3 664.518 C 218.286 663.979 218.712 663.535 219.251 663.528 L 257.801 663 C 258.34 662.993 258.79 663.424 258.804 663.963 L 258.9 667.582 C 258.914 668.121 258.488 668.565 257.949 668.572 Z" style="stroke:none;fill:#171717;stroke-miterlimit:10;"/><ellipse vector-effect="non-scaling-stroke" cx="208.00000000000003" cy="669.0977358563596" rx="5" ry="6" fill="rgb(23,23,23)"/><mask id="_mask_R08pgCbbSj1Y1Nj9V1a8OsA1vOMqmCVG"><ellipse vector-effect="non-scaling-stroke" cx="233.05" cy="848.5" rx="7.75" ry="8.5" fill="white" stroke="none"/></mask><ellipse vector-effect="non-scaling-stroke" cx="233.05" cy="848.5" rx="7.75" ry="8.5" fill="rgb(255,255,255)"/><ellipse vector-effect="non-scaling-stroke" cx="233.05" cy="848.5" rx="7.75" ry="8.5" fill="rgb(255,255,255)" mask="url(#_mask_R08pgCbbSj1Y1Nj9V1a8OsA1vOMqmCVG)" stroke-width="2" stroke="rgb(93,93,93)" stroke-linejoin="miter" stroke-linecap="square" stroke-miterlimit="3"/><path d="M 194.535 681 L 271.965 681 C 273.364 681 274.5 682.136 274.5 683.535 L 274.5 717.465 C 274.5 718.864 273.364 720 271.965 720 L 194.535 720 C 193.136 720 192 718.864 192 717.465 L 192 683.535 C 192 682.136 193.136 681 194.535 681 Z" style="stroke:none;fill:#4AA6E8;stroke-miterlimit:10;"/><rect x="198" y="732.5" width="72.5" height="75.5" transform="matrix(1,0,0,1,0,0)" fill="rgb(209,209,209)"/><defs><filter id="vMhTAClP3dGczv6CqETSZI89PvZBaOmM" x="-200%" y="-200%" width="400%" height="400%" filterUnits="objectBoundingBox" color-interpolation-filters="sRGB"><feGaussianBlur xmlns="http://www.w3.org/2000/svg" in="SourceGraphic" stdDeviation="2.146804531419514"/><feOffset xmlns="http://www.w3.org/2000/svg" dx="0" dy="0" result="pf_100_offsetBlur"/><feFlood xmlns="http://www.w3.org/2000/svg" flood-color="#000000" flood-opacity="0.65"/><feComposite xmlns="http://www.w3.org/2000/svg" in2="pf_100_offsetBlur" operator="in" result="pf_100_dropShadow"/><feBlend xmlns="http://www.w3.org/2000/svg" in="SourceGraphic" in2="pf_100_dropShadow" mode="normal"/></filter></defs><g filter="url(#vMhTAClP3dGczv6CqETSZI89PvZBaOmM)"><path d="M 422.975 569 L 708.025 569 C 724.293 569 737.5 582.207 737.5 598.475 L 737.5 829.525 C 737.5 845.793 724.293 859 708.025 859 L 422.975 859 C 406.707 859 393.5 845.793 393.5 829.525 L 393.5 598.475 C 393.5 582.207 406.707 569 422.975 569 Z" style="stroke:none;fill:#E8E8E8;stroke-miterlimit:10;"/><path d="M 422.975 569 L 708.025 569 C 724.293 569 737.5 582.207 737.5 598.475 L 737.5 829.525 C 737.5 845.793 724.293 859 708.025 859 L 422.975 859 C 406.707 859 393.5 845.793 393.5 829.525 L 393.5 598.475 C 393.5 582.207 406.707 569 422.975 569 Z" style="fill:none;stroke:#000000;stroke-width:2;stroke-linecap:square;stroke-miterlimit:2;"/></g><path d="M 457.744 589.75 L 681.256 589.75 C 700.432 589.75 716 605.318 716 624.494 L 716 787.256 C 716 806.432 700.432 822 681.256 822 L 457.744 822 C 438.568 822 423 806.432 423 787.256 L 423 624.494 C 423 605.318 438.568 589.75 457.744 589.75 Z" style="stroke:none;fill:#FFFFFF;stroke-miterlimit:10;"/><path d=" M 357 842 L 760 842 L 737.5 859 L 406 859 L 357 842 Z " fill="rgb(232,232,232)" vector-effect="non-scaling-stroke" stroke-width="1" stroke="rgb(116,116,116)" stroke-linejoin="miter" stroke-linecap="square" stroke-miterlimit="3"/><mask id="_mask_K5R1R2bY83NHnxVUoruMAcVU6wTGyRHi"><rect x="550" y="831" width="54" height="1" fill="white" stroke="none"/></mask><rect x="550" y="831" width="54" height="1" transform="matrix(1,0,0,1,0,0)" fill="rgb(0,0,0)"/><rect x="550" y="831" width="54" height="1" transform="matrix(1,0,0,1,0,0)" fill="rgb(0,0,0)" mask="url(#_mask_K5R1R2bY83NHnxVUoruMAcVU6wTGyRHi)" vector-effect="non-scaling-stroke" stroke-width="4" stroke="rgb(0,0,0)" stroke-linejoin="miter" stroke-linecap="square" stroke-miterlimit="2"/><path d="M 433.536 589.75 L 705.464 589.75 C 711.279 589.75 716 594.471 716 600.286 L 716 644.464 C 716 650.279 711.279 655 705.464 655 L 433.536 655 C 427.721 655 423 650.279 423 644.464 L 423 600.286 C 423 594.471 427.721 589.75 433.536 589.75 Z" style="stroke:none;fill:#4AA6E8;stroke-miterlimit:10;"/><g clip-path="url(#_clipPath_xeSJMK0EJ9a5goRJolBUqCyA3iA1hi0U)"><text transform="matrix(1,0,0,1,435,625.091)" style="font-family:'Paytone One';font-weight:400;font-size:20px;font-style:normal;fill:#ffffff;stroke:none;">MY Business</text></g><defs><clipPath id="_clipPath_xeSJMK0EJ9a5goRJolBUqCyA3iA1hi0U"><rect x="0" y="0" width="123" height="27.92" transform="matrix(1,0,0,1,435,602.831)"/></clipPath></defs><rect x="447" y="681.75" width="118.5" height="24.125" transform="matrix(1,0,0,1,0,0)" fill="rgb(162,162,162)"/><rect x="447" y="720" width="103" height="24.5" transform="matrix(1,0,0,1,0,0)" fill="rgb(232,232,232)"/><path d="M 451.8 762 L 545.2 762 C 547.849 762 550 764.151 550 766.8 L 550 789.2 C 550 791.849 547.849 794 545.2 794 L 451.8 794 C 449.151 794 447 791.849 447 789.2 L 447 766.8 C 447 764.151 449.151 762 451.8 762 Z" style="stroke:none;fill:#4AA6E8;stroke-miterlimit:10;"/><rect x="591" y="668.75" width="103" height="127" transform="matrix(1,0,0,1,0,0)" fill="rgb(232,232,232)"/><rect x="577" y="616" width="30" height="17.25" transform="matrix(1,0,0,1,0,0)" fill="rgb(235,235,235)"/><rect x="625.5" y="616.791" width="30" height="17.25" transform="matrix(1,0,0,1,0,0)" fill="rgb(235,235,235)"/><rect x="671" y="616.791" width="30" height="17.25" transform="matrix(1,0,0,1,0,0)" fill="rgb(235,235,235)"/></g></g></svg>