<?xml version="1.0" encoding="UTF-8" standalone="no"?><!-- Generator: Gravit.io --><svg xmlns="http://www.w3.org/2000/svg" xmlns:xlink="http://www.w3.org/1999/xlink" style="isolation:isolate" viewBox="0 0 800 1200" width="800pt" height="1200pt"><defs><clipPath id="_clipPath_EpaNJlCxDGjlzFS0DmrnKQOMAQ7kMusr"><rect width="800" height="1200"/></clipPath></defs><g clip-path="url(#_clipPath_EpaNJlCxDGjlzFS0DmrnKQOMAQ7kMusr)"><g><path d=" M 395 522 L 357 561 L 318 576 L 305 561 L 281 561 L 253 548 L 193 522 L 133 468 L 105 412 L 105 352 L 105 286 L 133 241 L 170 187 L 193 170 L 253 150 L 357 131 L 408 131 L 457 131 L 520 150 L 659 213 L 683 268 L 683 324 L 683 576 L 647 614 L 625 664 L 595 694 L 554 737 L 533 737 L 488 756 L 440 771 L 395 771 L 357 771 L 318 771 L 305 726 L 318 713 L 333 713 L 382 713 L 440 713 L 488 694 L 520 681 L 565 664 L 580 634 L 610 601 L 610 561 L 625 509 L 625 445 L 625 324 L 625 268 L 595 226 L 533 187 L 440 187 L 357 187 L 294 187 L 253 213 L 193 226 L 170 301 L 170 352 L 193 391 L 253 445 L 294 445 L 333 468 L 382 468 L 408 468 L 440 488 L 440 509 L 440 522 L 395 522 Z " fill="rgb(223,240,240)"/><path d=" M 178 361 L 213 339 L 241 322 L 262 322 L 286 322 L 305 322 L 333 322 L 348 309 L 378 309 L 412 309 L 473 309 L 498 309 L 580 309 L 623 339 L 623 339 L 623 361 L 610 361 L 593 389 L 593 415 L 593 436 L 593 464 L 580 528 L 565 586 L 554 601 L 524 601 L 473 636 L 445 636 L 445 601 L 473 586 L 509 558 L 554 543 L 554 511 L 565 464 L 565 436 L 565 376 L 580 361 L 565 339 L 473 339 L 333 350 L 241 350 L 228 376 L 213 389 L 198 389 L 178 361 Z " fill="rgb(223,240,240)"/></g></g></svg>