<?xml version="1.0" standalone="no"?><svg xmlns="http://www.w3.org/2000/svg" viewBox="0 0 1440 320"><path fill="#071f38" fill-opacity="1" d="M0,224L40,208C80,192,160,160,240,170.7C320,181,400,235,480,256C560,277,640,267,720,224C800,181,880,107,960,96C1040,85,1120,139,1200,186.7C1280,235,1360,277,1400,298.7L1440,320L1440,320L1400,320C1360,320,1280,320,1200,320C1120,320,1040,320,960,320C880,320,800,320,720,320C640,320,560,320,480,320C400,320,320,320,240,320C160,320,80,320,40,320L0,320Z"></path></svg>