<?xml version="1.0" encoding="UTF-8" standalone="no"?><!-- Generator: Gravit.io --><svg xmlns="http://www.w3.org/2000/svg" xmlns:xlink="http://www.w3.org/1999/xlink" style="isolation:isolate" viewBox="0 0 800 1200" width="800pt" height="1200pt"><defs><clipPath id="_clipPath_ASjp17DdrnQ9C82m23qnOgTou7Bzoryg"><rect width="800" height="1200"/></clipPath></defs><g clip-path="url(#_clipPath_ASjp17DdrnQ9C82m23qnOgTou7Bzoryg)"><path d=" M 159 745 L 264 795 L 264 221 L 159 198 L 159 745 Z " fill="rgb(7,31,56)" vector-effect="non-scaling-stroke" stroke-width="20" stroke="rgb(255,255,255)" stroke-linejoin="miter" stroke-linecap="square" stroke-miterlimit="3"/><path d=" M 185 264 L 236 286 L 236 359 L 185 322 L 185 264 Z " fill="rgb(7,31,56)" vector-effect="non-scaling-stroke" stroke-width="20" stroke="rgb(255,255,255)" stroke-linejoin="miter" stroke-linecap="square" stroke-miterlimit="3"/><path d=" M 185 406 L 236 439.5 L 236 523.422 L 185 496 L 185 406 Z " fill="rgb(7,31,56)" vector-effect="non-scaling-stroke" stroke-width="20" stroke="rgb(255,255,255)" stroke-linejoin="miter" stroke-linecap="square" stroke-miterlimit="3"/><path d=" M 185 589 L 236 604 L 236 694 L 185 666 L 185 589 Z " fill="rgb(7,31,56)" vector-effect="non-scaling-stroke" stroke-width="20" stroke="rgb(255,255,255)" stroke-linejoin="miter" stroke-linecap="square" stroke-miterlimit="3"/><path d=" M 402 84 L 264 221 L 159 198 L 275 41 L 402 84 Z " fill="rgb(7,31,56)" vector-effect="non-scaling-stroke" stroke-width="1" stroke="rgb(0,0,0)" stroke-linejoin="miter" stroke-linecap="square" stroke-miterlimit="3"/><path d=" M 264 795 L 348 767 L 348 303 L 565 322 L 565 728 L 348 767 L 348 303 L 348 767 L 264 795 Z " fill="rgb(255,255,255)" vector-effect="non-scaling-stroke" stroke-width="1" stroke="rgb(0,0,0)" stroke-linejoin="miter" stroke-linecap="square" stroke-miterlimit="3"/><path d=" M 580 322 L 773 24 L 337 24 L 337 41 L 348 64 L 367 41 L 739 41 L 565 286 L 348 264 L 348 303 L 580 322 Z " fill="rgb(7,31,56)" vector-effect="non-scaling-stroke" stroke-width="1" stroke="rgb(0,0,0)" stroke-linejoin="miter" stroke-linecap="square" stroke-miterlimit="3"/><path d=" M 752 535 L 565 728 L 565 337 L 580 337 L 580 322 L 773 24 L 784 535 L 752 535 Z " fill="rgb(255,255,255)" vector-effect="non-scaling-stroke" stroke-width="1" stroke="rgb(0,0,0)" stroke-linejoin="miter" stroke-linecap="square" stroke-miterlimit="3"/><path d=" M 406.5 84 L 427.5 198 L 352.5 264 L 352.5 767 L 268.5 795 L 268.5 221 L 406.5 84 Z " fill="rgb(7,31,56)" vector-effect="non-scaling-stroke" stroke-width="1" stroke="rgb(0,0,0)" stroke-linejoin="miter" stroke-linecap="square" stroke-miterlimit="3"/><path d=" M 348 173.247 L 392.333 135 L 414.5 203.845 L 371.398 241 L 348 173.247 Z " fill="rgb(255,255,255)" vector-effect="non-scaling-stroke" stroke-width="1" stroke="rgb(0,0,0)" stroke-linejoin="miter" stroke-linecap="square" stroke-miterlimit="3"/><path d=" M 275 64 L 185 187 L 264 198 L 367 99 L 275 64 Z " fill="rgb(255,255,255)" vector-effect="non-scaling-stroke" stroke-width="1" stroke="rgb(0,0,0)" stroke-linejoin="miter" stroke-linecap="square" stroke-miterlimit="3"/><path d=" M 20.75 852.737 L 524.24 1205.211 L 866.75 591.179 L 734.313 556.211 L 509.398 1045.759 L 97.244 799.586 L 165.746 640.134 L 136.062 556.211 L 20.75 852.737 Z " fill="rgb(7,31,56)" vector-effect="non-scaling-stroke" stroke-width="1" stroke="rgb(0,0,0)" stroke-linejoin="miter" stroke-linecap="square" stroke-miterlimit="3"/><defs><filter id="wKWUuinXj8GM6nubRehA4ZhG21CpWUfG" x="-200%" y="-200%" width="400%" height="400%" filterUnits="objectBoundingBox" color-interpolation-filters="sRGB"><feGaussianBlur xmlns="http://www.w3.org/2000/svg" in="SourceGraphic" stdDeviation="2.146804531419514"/><feOffset xmlns="http://www.w3.org/2000/svg" dx="0" dy="0" result="pf_100_offsetBlur"/><feFlood xmlns="http://www.w3.org/2000/svg" flood-color="#000000" flood-opacity="0.65"/><feComposite xmlns="http://www.w3.org/2000/svg" in2="pf_100_offsetBlur" operator="in" result="pf_100_dropShadow"/><feBlend xmlns="http://www.w3.org/2000/svg" in="SourceGraphic" in2="pf_100_dropShadow" mode="normal" result="_out_S0hkkTvQw6jCf5FDRiNdEZP3bF55VEix"/><feOffset xmlns="http://www.w3.org/2000/svg" in="_out_S0hkkTvQw6jCf5FDRiNdEZP3bF55VEix" dx="0" dy="0"/><feGaussianBlur xmlns="http://www.w3.org/2000/svg" stdDeviation="2.146804531419514" result="pf_101_offsetBlur"/><feComposite xmlns="http://www.w3.org/2000/svg" in="_out_S0hkkTvQw6jCf5FDRiNdEZP3bF55VEix" in2="pf_101_offsetBlur" result="pf_101_inverse" operator="out"/><feFlood xmlns="http://www.w3.org/2000/svg" flood-color="#000000" flood-opacity="0.5" result="pf_101_color"/><feComposite xmlns="http://www.w3.org/2000/svg" in="pf_101_color" in2="pf_101_inverse" operator="in" result="pf_101_shadow"/><feComposite xmlns="http://www.w3.org/2000/svg" in="pf_101_shadow" in2="_out_S0hkkTvQw6jCf5FDRiNdEZP3bF55VEix" operator="over" result="_out_LliMI5YspnUJY1Cb4Wauhh4BZZWC9IrQ"/><feOffset xmlns="http://www.w3.org/2000/svg" in="_out_LliMI5YspnUJY1Cb4Wauhh4BZZWC9IrQ" dx="0" dy="0"/><feGaussianBlur xmlns="http://www.w3.org/2000/svg" stdDeviation="2.146804531419514" result="pf_102_offsetBlur"/><feComposite xmlns="http://www.w3.org/2000/svg" in="_out_LliMI5YspnUJY1Cb4Wauhh4BZZWC9IrQ" in2="pf_102_offsetBlur" result="pf_102_inverse" operator="out"/><feFlood xmlns="http://www.w3.org/2000/svg" flood-color="#000000" flood-opacity="0.5" result="pf_102_color"/><feComposite xmlns="http://www.w3.org/2000/svg" in="pf_102_color" in2="pf_102_inverse" operator="in" result="pf_102_shadow"/><feComposite xmlns="http://www.w3.org/2000/svg" in="pf_102_shadow" in2="_out_LliMI5YspnUJY1Cb4Wauhh4BZZWC9IrQ" operator="over" result="_out_psz5gjovC6of5KZyaTMSHLwfQ39FoAl4"/><feMerge><feMergeNode in="_out_psz5gjovC6of5KZyaTMSHLwfQ39FoAl4"/></feMerge><feGaussianBlur xmlns="http://www.w3.org/2000/svg" stdDeviation="2.146804531419514"/></filter></defs><g filter="url(#wKWUuinXj8GM6nubRehA4ZhG21CpWUfG)"><path d=" M 371.398 64 L 371.398 41 L 732.563 41 L 715 64 L 554 264 L 406.5 241 L 427.5 221 L 451 198 L 427.5 198 L 427.5 135 L 371.398 64 Z " fill="rgb(232,232,232)"/></g><path d=" M 784 535 L 752 535 L 659 632.922 L 659 589 L 670 589 L 736.563 439.5 L 784 455" fill="rgb(7,31,56)"/><line x1="1070" y1="439.5" x2="1067" y2="439.5"/><path d=" M 352.5 303 L 565 322 L 580 322 L 659 203.845 L 659 604 L 627 666 L 565 728 L 352.5 767 L 352.5 303 Z " fill="rgb(255,255,255)" vector-effect="non-scaling-stroke" stroke-width="1" stroke="rgb(0,0,0)" stroke-linejoin="miter" stroke-linecap="square" stroke-miterlimit="3"/><path d=" M 773 24 L 659 203.845 L 659 589 L 670 589 L 732.563 439.5 L 784 455 L 773 24 Z " fill="rgb(7,31,56)" vector-effect="non-scaling-stroke" stroke-width="1" stroke="rgb(0,0,0)" stroke-linejoin="miter" stroke-linecap="square" stroke-miterlimit="3"/><path d=" M 696 221 L 739 159 L 739 264 L 696 303 L 696 221 Z " fill="rgb(255,255,255)" vector-effect="non-scaling-stroke" stroke-width="1" stroke="rgb(0,0,0)" stroke-linejoin="miter" stroke-linecap="square" stroke-miterlimit="3"/><path d=" M 352.5 359 L 580 389 L 659 303 L 659 337 L 597 406 L 580 419 L 352.5 389 L 352.5 359 Z " fill="rgb(7,31,56)" vector-effect="non-scaling-stroke" stroke-width="1" stroke="rgb(0,0,0)" stroke-linejoin="miter" stroke-linecap="square" stroke-miterlimit="3"/><path d=" M 352.5 466 L 580 483 L 659 406 L 659 466 L 580 523.422 L 352.5 507 L 352.5 466 Z " fill="rgb(7,31,56)" vector-effect="non-scaling-stroke" stroke-width="1" stroke="rgb(0,0,0)" stroke-linejoin="miter" stroke-linecap="square" stroke-miterlimit="3"/><path d=" M 352.5 563 L 565 589 L 659 535 L 659 589 L 565 640 L 352.5 604 L 352.5 563 Z " fill="rgb(7,31,56)" vector-effect="non-scaling-stroke" stroke-width="1" stroke="rgb(0,0,0)" stroke-linejoin="miter" stroke-linecap="square" stroke-miterlimit="3"/><path d=" M 352.5 666 L 565 694 L 659 604 L 659 653 L 565 728 L 352.5 694 L 352.5 666 Z " fill="rgb(7,31,56)" vector-effect="non-scaling-stroke" stroke-width="1" stroke="rgb(0,0,0)" stroke-linejoin="miter" stroke-linecap="square" stroke-miterlimit="3"/><path d=" M 696 359 L 752 303 L 752 389 L 715 439.5 L 696 359 Z " fill="rgb(255,255,255)" vector-effect="non-scaling-stroke" stroke-width="1" stroke="rgb(0,0,0)" stroke-linejoin="miter" stroke-linecap="square" stroke-miterlimit="3"/><path d=" M 715 507 L 752 455 L 752 523.422 L 715 549 L 715 507 Z " fill="rgb(255,255,255)" vector-effect="non-scaling-stroke" stroke-width="1" stroke="rgb(0,0,0)" stroke-linejoin="miter" stroke-linecap="square" stroke-miterlimit="3"/><path d=" M 352.5 303 L 414.5 303 L 414.5 359 L 352.5 359 L 352.5 303 Z " fill="rgb(0,255,255)" vector-effect="non-scaling-stroke" stroke-width="1" stroke="rgb(0,0,0)" stroke-linejoin="miter" stroke-linecap="square" stroke-miterlimit="3"/><path d=" M 473 374 L 414.5 374 L 414.5 303 L 427.5 303 L 473 303 L 473 374 Z " fill="rgb(77,170,170)" vector-effect="non-scaling-stroke" stroke-width="1" stroke="rgb(0,0,0)" stroke-linejoin="miter" stroke-linecap="square" stroke-miterlimit="3"/><path d=" M 541 389 L 485 374 L 473 374 L 473 303 L 473 322 L 541 322 L 541 389 Z " fill="rgb(0,255,255)" vector-effect="non-scaling-stroke" stroke-width="1" stroke="rgb(0,0,0)" stroke-linejoin="miter" stroke-linecap="square" stroke-miterlimit="3"/><path d=" M 580 322 L 580 389 L 541 389 L 541 322 L 580 322 Z " fill="rgb(0,255,255)" vector-effect="non-scaling-stroke" stroke-width="1" stroke="rgb(0,0,0)" stroke-linejoin="miter" stroke-linecap="square" stroke-miterlimit="3"/><path d=" M 608 286 L 610 359 L 580 374 L 580 322 L 608 286 Z " fill="rgb(107,191,191)" vector-effect="non-scaling-stroke" stroke-width="1" stroke="rgb(0,0,0)" stroke-linejoin="miter" stroke-linecap="square" stroke-miterlimit="3"/><path d=" M 627 241 L 642 322 L 610 359 L 610 286 L 627 241 Z " fill="rgb(0,255,255)" vector-effect="non-scaling-stroke" stroke-width="1" stroke="rgb(0,0,0)" stroke-linejoin="miter" stroke-linecap="square" stroke-miterlimit="3"/><path d=" M 352.5 389 L 352.5 466 L 392.333 466 L 414.5 466 L 414.5 406 L 352.5 389 Z " fill="rgb(123,191,191)" vector-effect="non-scaling-stroke" stroke-width="1" stroke="rgb(0,0,0)" stroke-linejoin="miter" stroke-linecap="square" stroke-miterlimit="3"/><path d=" M 473 406 L 473 466 L 414.5 466 L 414.5 406 L 473 406 Z " fill="rgb(0,255,255)" vector-effect="non-scaling-stroke" stroke-width="1" stroke="rgb(0,0,0)" stroke-linejoin="miter" stroke-linecap="square" stroke-miterlimit="3"/><path d=" M 526.49 406 L 526.49 483 L 473 466 L 473 406 L 526.49 406 Z " fill="rgb(113,189,189)" vector-effect="non-scaling-stroke" stroke-width="1" stroke="rgb(0,0,0)" stroke-linejoin="miter" stroke-linecap="square" stroke-miterlimit="3"/><path d=" M 580 419 L 580 483 L 541 483 L 541 419 L 580 419 Z " fill="rgb(0,255,255)" vector-effect="non-scaling-stroke" stroke-width="1" stroke="rgb(0,0,0)" stroke-linejoin="miter" stroke-linecap="square" stroke-miterlimit="3"/><path d=" M 627 389 L 627 439.5 L 580 483 L 580 419 L 627 389 Z " fill="rgb(108,179,179)" vector-effect="non-scaling-stroke" stroke-width="1" stroke="rgb(0,0,0)" stroke-linejoin="miter" stroke-linecap="square" stroke-miterlimit="3"/><path d=" M 352.5 507 L 414.5 507 L 414.5 563 L 352.5 563 L 352.5 507 Z " fill="rgb(0,255,255)" vector-effect="non-scaling-stroke" stroke-width="1" stroke="rgb(0,0,0)" stroke-linejoin="miter" stroke-linecap="square" stroke-miterlimit="3"/><path d=" M 473 507 L 473 576 L 414.5 563 L 414.5 507 L 473 507 Z " fill="rgb(104,168,168)" vector-effect="non-scaling-stroke" stroke-width="1" stroke="rgb(0,0,0)" stroke-linejoin="miter" stroke-linecap="square" stroke-miterlimit="3"/><path d=" M 541 523.422 L 541 576 L 473 576 L 473 507 L 541 523.422 Z " fill="rgb(0,255,255)" vector-effect="non-scaling-stroke" stroke-width="1" stroke="rgb(0,0,0)" stroke-linejoin="miter" stroke-linecap="square" stroke-miterlimit="3"/><path d=" M 580 523.422 L 580 589 L 565 589 L 541 576 L 541 523.422 L 580 523.422 Z " fill="rgb(120,195,195)" vector-effect="non-scaling-stroke" stroke-width="1" stroke="rgb(0,0,0)" stroke-linejoin="miter" stroke-linecap="square" stroke-miterlimit="3"/><path d=" M 627 496 L 627 549 L 580 589 L 580 523.422 L 627 496 Z " fill="rgb(0,255,255)" vector-effect="non-scaling-stroke" stroke-width="1" stroke="rgb(0,0,0)" stroke-linejoin="miter" stroke-linecap="square" stroke-miterlimit="3"/><path d=" M 352.5 604 L 352.5 666 L 414.5 679 L 414.5 604 L 352.5 604 Z " fill="rgb(109,185,185)" vector-effect="non-scaling-stroke" stroke-width="1" stroke="rgb(0,0,0)" stroke-linejoin="miter" stroke-linecap="square" stroke-miterlimit="3"/><path d=" M 473 632.922 L 473 694 L 427.5 679 L 414.5 666 L 414.5 616 L 473 632.922 Z " fill="rgb(0,255,255)" vector-effect="non-scaling-stroke" stroke-width="1" stroke="rgb(0,0,0)" stroke-linejoin="miter" stroke-linecap="square" stroke-miterlimit="3"/><path d=" M 526.49 632.922 L 526.49 694 L 473 694 L 473 632.922 L 526.49 632.922 Z " fill="rgb(111,193,193)" vector-effect="non-scaling-stroke" stroke-width="1" stroke="rgb(0,0,0)" stroke-linejoin="miter" stroke-linecap="square" stroke-miterlimit="3"/><path d=" M 565 632.922 L 565 694 L 541 694 L 526.49 640 L 565 632.922 Z " fill="rgb(0,255,255)" vector-effect="non-scaling-stroke" stroke-width="1" stroke="rgb(0,0,0)" stroke-linejoin="miter" stroke-linecap="square" stroke-miterlimit="3"/><path d=" M 608 616 L 608 653 L 565 694 L 565 640 L 608 616 Z " fill="rgb(105,172,172)" vector-effect="non-scaling-stroke" stroke-width="1" stroke="rgb(0,0,0)" stroke-linejoin="miter" stroke-linecap="square" stroke-miterlimit="3"/><path d=" M 642 589 L 642 632.922 L 610 640 L 610 604 L 642 589 Z " fill="rgb(0,255,255)" vector-effect="non-scaling-stroke" stroke-width="1" stroke="rgb(0,0,0)" stroke-linejoin="miter" stroke-linecap="square" stroke-miterlimit="3"/><path d=" M 402 728 L 406.5 589 L 511.648 616 L 511.648 728 L 485 728 L 485 666 L 427.5 653 L 427.5 711 L 402 728 Z " fill="rgb(7,31,56)" vector-effect="non-scaling-stroke" stroke-width="1" stroke="rgb(0,0,0)" stroke-linejoin="miter" stroke-linecap="square" stroke-miterlimit="3"/></g></svg>