<?xml version="1.0" encoding="UTF-8" standalone="no"?><!-- Generator: Gravit.io --><svg xmlns="http://www.w3.org/2000/svg" xmlns:xlink="http://www.w3.org/1999/xlink" style="isolation:isolate" viewBox="0 0 800 1200" width="800pt" height="1200pt"><defs><clipPath id="_clipPath_1VkmMV5U33RGRV1qCmMK94vJPzVU0URC"><rect width="800" height="1200"/></clipPath></defs><g clip-path="url(#_clipPath_1VkmMV5U33RGRV1qCmMK94vJPzVU0URC)"><g><path d=" M 487.128 321.846 C 580.549 280.87 706.379 142.498 761.751 176.115 C 816.704 208.646 802.037 415.341 770.297 551.191 C 738.557 687.04 689.744 752.044 690.173 836.792 C 691.287 921.277 742.329 1025.243 727.975 1053.248 C 714.04 1082.341 634.291 1034.387 579.533 1010.522 C 524.775 986.658 495.539 984.182 440.932 1023.945 C 386.591 1062.357 306.726 1140.568 221.907 1134.526 C 135.985 1127.659 45.375 1035.186 40.757 939.564 C 35.72 842.854 117.778 743.817 105.147 598.834 C 92.252 455.202 -15.333 265.622 -3.016 199.69 C 8.616 134.022 139.047 191.178 235.187 249.053 C 331.593 305.578 393.707 362.822 487.128 321.846 Z " fill="rgb(254,237,230)"/><rect x="67" y="1250" width="43" height="65" transform="matrix(1,0,0,1,0,0)" fill="rgb(254,237,230)"/><path d="M 35 301 L 750.3 301 C 761.338 301 770.3 309.962 770.3 321 L 770.3 947 C 770.3 958.038 761.338 967 750.3 967 L 35 967 C 23.962 967 15 958.038 15 947 L 15 321 C 15 309.962 23.962 301 35 301 Z" style="stroke:none;fill:#E8E8E8;stroke-miterlimit:10;"/><path d="M 22.875 301 L 762.425 301 C 766.771 301 770.3 304.529 770.3 308.875 L 770.3 338.125 C 770.3 342.471 766.771 346 762.425 346 L 22.875 346 C 18.529 346 15 342.471 15 338.125 L 15 308.875 C 15 304.529 18.529 301 22.875 301 Z" style="stroke:none;fill:#464646;stroke-miterlimit:10;"/><ellipse vector-effect="non-scaling-stroke" cx="40.757110689624085" cy="323.50000000000006" rx="11.621444655187958" ry="11.249999999999943" fill="rgb(235,235,235)"/><ellipse vector-effect="non-scaling-stroke" cx="79.37855534481204" cy="323.50000000000006" rx="11.621444655187958" ry="11.249999999999943" fill="rgb(235,235,235)"/><ellipse vector-effect="non-scaling-stroke" cx="116.76889972461541" cy="323.50000000000006" rx="11.621444655187958" ry="11.249999999999943" fill="rgb(235,235,235)"/><rect x="40.757" y="374" width="181.15" height="32" transform="matrix(1,0,0,1,0,0)" fill="rgb(255,255,255)"/><mask id="_mask_zKHzYLAxVc233rmnGgbVx5yYqng21pkZ"><rect x="79.379" y="462" width="648.596" height="425" fill="white" stroke="none"/></mask><rect x="79.379" y="462" width="648.596" height="425" transform="matrix(1,0,0,1,0,0)" fill="rgb(255,255,255)"/><rect x="79.379" y="462" width="648.596" height="425" transform="matrix(1,0,0,1,0,0)" fill="rgb(255,255,255)" mask="url(#_mask_zKHzYLAxVc233rmnGgbVx5yYqng21pkZ)" vector-effect="non-scaling-stroke" stroke-width="2" stroke="rgb(255,255,255)" stroke-linejoin="miter" stroke-linecap="square" stroke-miterlimit="2"/><path d="M 129.575 505 L 379.845 505 C 386.912 505 392.65 510.738 392.65 517.805 L 392.65 689.195 C 392.65 696.262 386.912 702 379.845 702 L 129.575 702 C 122.508 702 116.77 696.262 116.77 689.195 L 116.77 517.805 C 116.77 510.738 122.508 505 129.575 505 Z" style="stroke:none;fill:#071F38;stroke-miterlimit:10;"/><path d="M 419.55 505 L 659.69 505 C 662.201 505 664.24 507.039 664.24 509.55 L 664.24 526.45 C 664.24 528.961 662.201 531 659.69 531 L 419.55 531 C 417.039 531 415 528.961 415 526.45 L 415 509.55 C 415 507.039 417.039 505 419.55 505 Z" style="stroke:none;fill:#071F38;stroke-miterlimit:10;"/><path d="M 420.073 571 L 707.927 571 C 710.727 571 713 573.273 713 576.073 L 713 598.427 C 713 601.227 710.727 603.5 707.927 603.5 L 420.073 603.5 C 417.273 603.5 415 601.227 415 598.427 L 415 576.073 C 415 573.273 417.273 571 420.073 571 Z" style="stroke:none;fill:#071F38;stroke-miterlimit:10;"/><path d="M 420.073 620.12 L 707.927 620.12 C 710.727 620.12 713 622.393 713 625.193 L 713 647.547 C 713 650.347 710.727 652.62 707.927 652.62 L 420.073 652.62 C 417.273 652.62 415 650.347 415 647.547 L 415 625.193 C 415 622.393 417.273 620.12 420.073 620.12 Z" style="stroke:none;fill:#071F38;stroke-miterlimit:10;"/><path d="M 420.073 669.8 L 707.927 669.8 C 710.727 669.8 713 672.073 713 674.873 L 713 697.227 C 713 700.027 710.727 702.3 707.927 702.3 L 420.073 702.3 C 417.273 702.3 415 700.027 415 697.227 L 415 674.873 C 415 672.073 417.273 669.8 420.073 669.8 Z" style="stroke:none;fill:#071F38;stroke-miterlimit:10;"/><path d="M 420.073 721.5 L 707.927 721.5 C 710.727 721.5 713 723.773 713 726.573 L 713 748.927 C 713 751.727 710.727 754 707.927 754 L 420.073 754 C 417.273 754 415 751.727 415 748.927 L 415 726.573 C 415 723.773 417.273 721.5 420.073 721.5 Z" style="stroke:none;fill:#071F38;stroke-miterlimit:10;"/><path d="M 138.309 779.5 L 688.311 779.5 C 692.163 779.5 695.29 782.627 695.29 786.479 L 695.29 805.021 C 695.29 808.873 692.163 812 688.311 812 L 138.309 812 C 134.457 812 131.33 808.873 131.33 805.021 L 131.33 786.479 C 131.33 782.627 134.457 779.5 138.309 779.5 Z" style="stroke:none;fill:#071F38;stroke-miterlimit:10;"/><path d="M 139.999 822.88 L 690.001 822.88 C 693.853 822.88 696.98 826.007 696.98 829.859 L 696.98 848.401 C 696.98 852.253 693.853 855.38 690.001 855.38 L 139.999 855.38 C 136.147 855.38 133.02 852.253 133.02 848.401 L 133.02 829.859 C 133.02 826.007 136.147 822.88 139.999 822.88 Z" style="stroke:none;fill:#071F38;stroke-miterlimit:10;"/><defs><filter id="4yF6ab2mPQdBM4VZ8oOgzdCBfZtiKciL" x="-200%" y="-200%" width="400%" height="400%" filterUnits="objectBoundingBox" color-interpolation-filters="sRGB"><feGaussianBlur xmlns="http://www.w3.org/2000/svg" in="SourceGraphic" stdDeviation="2.146804531419514"/><feOffset xmlns="http://www.w3.org/2000/svg" dx="0" dy="0" result="pf_100_offsetBlur"/><feFlood xmlns="http://www.w3.org/2000/svg" flood-color="#000000" flood-opacity="0.65"/><feComposite xmlns="http://www.w3.org/2000/svg" in2="pf_100_offsetBlur" operator="in" result="pf_100_dropShadow"/><feBlend xmlns="http://www.w3.org/2000/svg" in="SourceGraphic" in2="pf_100_dropShadow" mode="normal"/></filter></defs><g filter="url(#4yF6ab2mPQdBM4VZ8oOgzdCBfZtiKciL)"><path d="M 73.52 868 L 518.48 868 C 530.148 868 539.62 877.473 539.62 889.14 L 539.62 1148.86 C 539.62 1160.527 530.148 1170 518.48 1170 L 73.52 1170 C 61.852 1170 52.38 1160.527 52.38 1148.86 L 52.38 889.14 C 52.38 877.473 61.852 868 73.52 868 Z" style="stroke:none;fill:#EBEBEB;stroke-miterlimit:10;"/></g><path d="M 92.991 908 L 499.389 908 C 506.901 908 513 914.099 513 921.612 L 513 1121.248 C 513 1128.761 506.901 1134.86 499.389 1134.86 L 92.991 1134.86 C 85.479 1134.86 79.38 1128.761 79.38 1121.248 L 79.38 921.612 C 79.38 914.099 85.479 908 92.991 908 Z" style="stroke:none;fill:#FFFFFF;stroke-miterlimit:10;"/><path d="M 185.689 939.56 L 428.241 939.56 C 435.244 939.56 440.93 945.246 440.93 952.25 L 440.93 974.31 C 440.93 981.314 435.244 987 428.241 987 L 185.689 987 C 178.686 987 173 981.314 173 974.31 L 173 952.25 C 173 945.246 178.686 939.56 185.689 939.56 Z" style="stroke:none;fill:#071F38;stroke-miterlimit:10;"/><path d="M 225.127 1010.52 L 400.463 1010.52 C 402.238 1010.52 403.68 1011.962 403.68 1013.738 L 403.68 1018.212 C 403.68 1019.988 402.238 1021.43 400.463 1021.43 L 225.127 1021.43 C 223.352 1021.43 221.91 1019.988 221.91 1018.212 L 221.91 1013.738 C 221.91 1011.962 223.352 1010.52 225.127 1010.52 Z" style="stroke:none;fill:#071F38;stroke-miterlimit:10;"/><path d="M 93.975 1053.25 L 499.125 1053.25 C 500.767 1053.25 502.1 1054.583 502.1 1056.224 L 502.1 1064.026 C 502.1 1065.667 500.767 1067 499.125 1067 L 93.975 1067 C 92.333 1067 91 1065.667 91 1064.026 L 91 1056.224 C 91 1054.583 92.333 1053.25 93.975 1053.25 Z" style="stroke:none;fill:#071F38;stroke-miterlimit:10;"/><path d="M 93.975 1081 L 499.125 1081 C 500.767 1081 502.1 1082.333 502.1 1083.974 L 502.1 1091.776 C 502.1 1093.417 500.767 1094.75 499.125 1094.75 L 93.975 1094.75 C 92.333 1094.75 91 1093.417 91 1091.776 L 91 1083.974 C 91 1082.333 92.333 1081 93.975 1081 Z" style="stroke:none;fill:#071F38;stroke-miterlimit:10;"/><path d="M 93.975 1106 L 499.125 1106 C 500.767 1106 502.1 1107.333 502.1 1108.974 L 502.1 1116.776 C 502.1 1118.417 500.767 1119.75 499.125 1119.75 L 93.975 1119.75 C 92.333 1119.75 91 1118.417 91 1116.776 L 91 1108.974 C 91 1107.333 92.333 1106 93.975 1106 Z" style="stroke:none;fill:#071F38;stroke-miterlimit:10;"/><defs><filter id="5jOAixWBJ1w0h5sUWmxSdTTdhvC3AqeI" x="-200%" y="-200%" width="400%" height="400%" filterUnits="objectBoundingBox" color-interpolation-filters="sRGB"><feGaussianBlur xmlns="http://www.w3.org/2000/svg" in="SourceGraphic" stdDeviation="2.146804531419514"/><feOffset xmlns="http://www.w3.org/2000/svg" dx="0" dy="0" result="pf_100_offsetBlur"/><feFlood xmlns="http://www.w3.org/2000/svg" flood-color="#000000" flood-opacity="0.65"/><feComposite xmlns="http://www.w3.org/2000/svg" in2="pf_100_offsetBlur" operator="in" result="pf_100_dropShadow"/><feBlend xmlns="http://www.w3.org/2000/svg" in="SourceGraphic" in2="pf_100_dropShadow" mode="normal"/></filter></defs><g filter="url(#5jOAixWBJ1w0h5sUWmxSdTTdhvC3AqeI)"><path d="M 490.273 95 L 708.697 95 C 719.334 95 727.97 103.636 727.97 114.273 L 727.97 415.727 C 727.97 426.364 719.334 435 708.697 435 L 490.273 435 C 479.636 435 471 426.364 471 415.727 L 471 114.273 C 471 103.636 479.636 95 490.273 95 Z" style="stroke:none;fill:#EBEBEB;stroke-miterlimit:10;"/></g><path d="M 509.717 116 L 690.413 116 C 702.879 116 713 126.121 713 138.587 L 713 397.413 C 713 409.879 702.879 420 690.413 420 L 509.717 420 C 497.251 420 487.13 409.879 487.13 397.413 L 487.13 138.587 C 487.13 126.121 497.251 116 509.717 116 Z" style="stroke:none;fill:#FFFFFF;stroke-miterlimit:10;"/><path d="M 536.48 139 L 655.76 139 C 660.44 139 664.24 142.8 664.24 147.48 L 664.24 183.52 C 664.24 188.2 660.44 192 655.76 192 L 536.48 192 C 531.8 192 528 188.2 528 183.52 L 528 147.48 C 528 142.8 531.8 139 536.48 139 Z" style="stroke:none;fill:#071F38;stroke-miterlimit:10;"/><path d="M 569.55 211 L 628.45 211 C 631.513 211 634 213.487 634 216.55 L 634 220.45 C 634 223.513 631.513 226 628.45 226 L 569.55 226 C 566.487 226 564 223.513 564 220.45 L 564 216.55 C 564 213.487 566.487 211 569.55 211 Z" style="stroke:none;fill:#071F38;stroke-miterlimit:10;"/><path d="M 507.455 268 L 697.645 268 C 700.601 268 703 270.399 703 273.355 L 703 279.645 C 703 282.601 700.601 285 697.645 285 L 507.455 285 C 504.499 285 502.1 282.601 502.1 279.645 L 502.1 273.355 C 502.1 270.399 504.499 268 507.455 268 Z" style="stroke:none;fill:#071F38;stroke-miterlimit:10;"/><path d="M 507.455 292.5 L 697.645 292.5 C 700.601 292.5 703 294.899 703 297.855 L 703 304.145 C 703 307.101 700.601 309.5 697.645 309.5 L 507.455 309.5 C 504.499 309.5 502.1 307.101 502.1 304.145 L 502.1 297.855 C 502.1 294.899 504.499 292.5 507.455 292.5 Z" style="stroke:none;fill:#071F38;stroke-miterlimit:10;"/><path d="M 507.455 317.75 L 697.645 317.75 C 700.601 317.75 703 320.149 703 323.105 L 703 329.395 C 703 332.351 700.601 334.75 697.645 334.75 L 507.455 334.75 C 504.499 334.75 502.1 332.351 502.1 329.395 L 502.1 323.105 C 502.1 320.149 504.499 317.75 507.455 317.75 Z" style="stroke:none;fill:#071F38;stroke-miterlimit:10;"/><path d="M 504.965 346 L 695.155 346 C 698.111 346 700.51 348.399 700.51 351.355 L 700.51 357.645 C 700.51 360.601 698.111 363 695.155 363 L 504.965 363 C 502.009 363 499.61 360.601 499.61 357.645 L 499.61 351.355 C 499.61 348.399 502.009 346 504.965 346 Z" style="stroke:none;fill:#071F38;stroke-miterlimit:10;"/><path d="M 504.965 374 L 695.155 374 C 698.111 374 700.51 376.399 700.51 379.355 L 700.51 385.645 C 700.51 388.601 698.111 391 695.155 391 L 504.965 391 C 502.009 391 499.61 388.601 499.61 385.645 L 499.61 379.355 C 499.61 376.399 502.009 374 504.965 374 Z" style="stroke:none;fill:#071F38;stroke-miterlimit:10;"/><path d="M 106.33 139 L 239.38 139 C 247.841 139 254.71 145.869 254.71 154.33 L 254.71 269.67 C 254.71 278.131 247.841 285 239.38 285 L 106.33 285 C 97.869 285 91 278.131 91 269.67 L 91 154.33 C 91 145.869 97.869 139 106.33 139 Z" style="stroke:none;fill:#071F38;stroke-miterlimit:10;"/><g><path d=" M 110.454 234.642 C 111.699 229.184 112.407 226.349 110.228 218.877 C 105.779 203.765 97.045 193.282 122.866 179.845 C 128.278 176.301 132.525 171.409 135.118 165.734 C 138.125 158.699 147.628 153.91 156.449 155.676 C 163.492 157.11 166.449 154.521 171.32 152.973 C 173.885 152.152 187.685 149.334 198.081 159.687 C 207.069 168.662 211.784 172.586 220.912 175.221 C 230.612 178.035 239.23 185.004 235.474 200.113 C 233.093 209.729 231.324 211.207 234.057 215.932 C 236.119 219.542 247.313 245.169 225.42 253.831 C 216.33 257.446 216.636 253.551 207.715 263.407 C 197.449 274.732 171.681 279.678 159.714 274.361 C 143.924 267.359 147.74 267.258 137.733 267.645 C 120.077 268.357 106.027 254.072 110.454 234.642 Z " fill-rule="evenodd" fill="rgb(227,17,76)"/><clipPath id="_clipPath_YpSzLuVbU8i3oFH0Q7SU2B3ZLZ6ZLk2s"><path d=" M 110.454 234.642 C 111.699 229.184 112.407 226.349 110.228 218.877 C 105.779 203.765 97.045 193.282 122.866 179.845 C 128.278 176.301 132.525 171.409 135.118 165.734 C 138.125 158.699 147.628 153.91 156.449 155.676 C 163.492 157.11 166.449 154.521 171.32 152.973 C 173.885 152.152 187.685 149.334 198.081 159.687 C 207.069 168.662 211.784 172.586 220.912 175.221 C 230.612 178.035 239.23 185.004 235.474 200.113 C 233.093 209.729 231.324 211.207 234.057 215.932 C 236.119 219.542 247.313 245.169 225.42 253.831 C 216.33 257.446 216.636 253.551 207.715 263.407 C 197.449 274.732 171.681 279.678 159.714 274.361 C 143.924 267.359 147.74 267.258 137.733 267.645 C 120.077 268.357 106.027 254.072 110.454 234.642 Z " fill-rule="evenodd" fill="rgb(255,255,255)"/></clipPath><g clip-path="url(#_clipPath_YpSzLuVbU8i3oFH0Q7SU2B3ZLZ6ZLk2s)"><g><path d=" M 115.018 231.555 C 116.262 226.072 116.971 223.262 114.767 215.792 C 110.315 200.655 101.61 190.195 127.428 176.733 C 132.841 173.19 137.088 168.298 139.68 162.622 C 142.69 155.612 152.193 150.823 161.014 152.589 C 168.055 153.998 171.014 151.434 175.883 149.861 C 178.448 149.04 192.247 146.223 202.646 156.6 C 211.633 165.575 216.346 169.474 225.45 172.136 C 235.177 174.948 243.795 181.917 240.037 197.001 C 237.656 206.617 235.887 208.096 238.622 212.845 C 240.683 216.455 251.877 242.082 229.985 250.744 C 220.894 254.359 221.2 250.464 212.28 260.32 C 202.014 271.645 176.246 276.591 164.278 271.274 C 148.488 264.272 152.302 264.147 142.297 264.558 C 124.64 265.245 110.591 250.984 115.018 231.555 Z " fill-rule="evenodd" fill="rgb(239,34,92)"/></g></g><path d=" M 183.185 155.618 C 185.47 155.637 192.366 155.544 195.945 163.949 C 198.214 169.181 192.317 169.841 189.705 165.306 C 188.285 163.003 185.924 161.345 183.158 160.707 C 176.794 159.121 179.223 155.555 183.185 155.618 Z  M 224.265 180.741 C 225.679 180.828 229.994 180.987 232.099 187.87 C 233.444 192.157 229.755 192.52 228.187 188.772 C 227.473 186.995 226.021 185.57 224.16 184.819 C 220.22 183.34 221.78 180.538 224.263 180.716 L 224.265 180.741 Z  M 219.024 178.918 C 219.827 179.004 220.409 179.653 220.309 180.405 C 220.235 181.155 219.535 181.707 218.731 181.621 C 217.956 181.532 217.401 180.885 217.475 180.156 C 217.549 179.405 218.249 178.854 219.024 178.918 Z " fill-rule="evenodd" fill="rgb(245,117,153)"/><path d=" M 189.963 231.345 C 190.539 232.665 190.916 234.055 191.083 235.476 C 191.21 236.829 191.102 238.195 190.763 239.521 L 190.62 240.078 C 189.807 242.664 188.207 244.98 186.017 246.742 C 184.202 248.281 182.114 249.512 179.849 250.376 L 179.591 250.471 C 177.798 251.124 175.94 251.602 174.047 251.898 L 173.153 252.017 C 171.85 252.149 170.539 252.185 169.232 252.126 C 167.741 252.025 166.268 251.765 164.843 251.353 C 162.972 250.757 161.254 249.811 159.792 248.572 C 158.761 247.661 157.897 246.597 157.236 245.422 L 157.202 245.325 L 157.321 244.82 L 157.859 244.901 C 158.252 245.357 158.676 245.788 159.128 246.192 C 161.165 247.972 163.812 249.021 166.609 249.155 C 168.127 249.288 169.659 249.218 171.16 248.947 L 172.6 248.686 L 173.565 248.461 C 174.217 248.311 174.866 248.111 175.489 247.938 L 175.957 247.802 L 176.887 247.481 L 177.613 247.251 L 178.206 247.031 L 178.826 246.809 L 179.52 246.506 L 180.318 246.195 L 180.959 245.897 L 181.392 245.665 C 184.145 244.326 186.466 242.318 188.107 239.853 C 189.17 238.032 189.663 235.971 189.527 233.91 C 189.495 233.168 189.409 232.406 189.217 231.652 L 189.211 231.578 L 189.463 231.062 L 189.963 231.345 L 189.963 231.345 Z  M 155.352 187.451 L 156.06 188.686 L 156.062 188.711 L 155.584 190.064 L 154.252 190.689 L 143.959 191.495 L 142.518 191.062 L 141.863 189.823 L 142.315 188.472 L 143.645 187.822 L 153.964 187.014 L 155.379 187.449 L 155.352 187.451 Z  M 196.392 175.081 L 197.527 176.01 L 197.612 177.442 L 196.634 178.512 L 187.34 182.912 L 185.86 183.003 L 184.727 182.099 L 184.725 182.074 L 184.641 180.666 L 185.62 179.597 L 194.914 175.197 L 196.392 175.081 Z " fill="rgb(46,13,25)"/><path d=" M 170.949 199.109 C 172.397 198.946 179.841 198.041 185.836 194.916 C 192.521 191.44 206.337 188.82 224.551 189.478 L 230.026 189.198 L 230.821 197.325 C 230.821 197.325 228.121 198.107 228.073 201.908 C 227.785 207.058 227.185 212.192 226.277 217.285 C 224.971 225.031 216.088 227.563 214.458 228.112 C 212.336 228.824 199.604 231.707 190.194 227.853 C 180.811 223.997 176.46 211.16 176.46 211.16 C 176.46 211.16 175.876 208.451 174.862 207.712 C 173.905 207.017 173.614 206.345 171.509 206.262 C 169.444 206.672 169.26 207.381 168.423 208.216 C 167.536 209.104 167.408 211.869 167.408 211.869 C 167.408 211.869 165.106 225.201 156.412 230.498 C 147.744 235.767 134.718 234.901 132.511 234.528 C 130.815 234.239 121.648 233.145 119.125 225.674 C 118.016 222.362 115.598 214.535 114.957 210.764 C 114.319 207.017 111.529 206.665 111.529 206.665 L 111.077 198.511 L 116.502 197.938 C 134.418 194.45 148.473 194.888 155.618 197.282 C 160.562 198.741 165.754 199.36 170.949 199.109 Z " fill-rule="evenodd" fill="rgb(0,0,0)"/><path d=" M 139.871 199.657 C 139.871 199.657 124.573 199.613 122.496 205.98 C 120.447 212.369 119.987 224.813 127.645 228.333 C 135.274 231.83 142.497 230.148 142.497 230.148 C 142.497 230.148 127.278 230.769 126.169 218.646 C 125.179 208.028 126.765 204.554 130.813 202.326 C 134.889 200.121 139.869 199.632 139.869 199.632 L 139.871 199.657 Z  M 203.687 194.66 C 203.687 194.66 188.389 194.617 186.311 200.984 C 184.236 207.375 183.803 219.817 191.46 223.336 C 199.063 226.836 206.287 225.154 206.287 225.154 C 206.287 225.154 191.067 225.774 189.985 213.65 C 188.994 203.032 190.581 199.558 194.629 197.33 C 198.705 195.125 203.685 194.636 203.685 194.636 L 203.687 194.66 Z " fill-rule="evenodd" fill="rgb(255,255,255)"/></g></g></g></svg>