<?xml version="1.0" encoding="UTF-8" standalone="no"?><!-- Generator: Gravit.io --><svg xmlns="http://www.w3.org/2000/svg" xmlns:xlink="http://www.w3.org/1999/xlink" style="isolation:isolate" viewBox="0 0 800 1170" width="800pt" height="1170pt"><defs><clipPath id="_clipPath_VkQudzGt4F6TdKZfVCRVKBNqSimxKYY5"><rect width="800" height="1170"/></clipPath></defs><g clip-path="url(#_clipPath_VkQudzGt4F6TdKZfVCRVKBNqSimxKYY5)"><g><path d=" M 570.307 374.135 C 655.237 427.961 774.248 466.605 776.953 525.262 C 779.658 583.918 665.515 663.277 605.469 767.479 C 544.882 872.37 537.849 1002.104 482.671 1078.013 C 427.494 1153.921 323.629 1175.313 268.452 1112.516 C 213.815 1049.719 207.864 901.353 160.801 788.181 C 113.737 675.008 25.561 597.03 15.824 513.531 C 6.628 430.722 75.87 343.082 150.523 287.186 C 225.175 231.98 305.237 208.517 370.152 230.6 C 435.067 252.682 485.376 321 570.307 374.135 Z " fill="rgb(149,159,250)"/><defs><filter id="gDv2S3oPbnCQQJ6lxKP2XwtmurTwR1Jp" x="-200%" y="-200%" width="400%" height="400%" filterUnits="objectBoundingBox" color-interpolation-filters="sRGB"><feGaussianBlur xmlns="http://www.w3.org/2000/svg" in="SourceGraphic" stdDeviation="2.146804531419514"/><feOffset xmlns="http://www.w3.org/2000/svg" dx="10" dy="10" result="pf_100_offsetBlur"/><feFlood xmlns="http://www.w3.org/2000/svg" flood-color="#000000" flood-opacity="0.65"/><feComposite xmlns="http://www.w3.org/2000/svg" in2="pf_100_offsetBlur" operator="in" result="pf_100_dropShadow"/><feBlend xmlns="http://www.w3.org/2000/svg" in="SourceGraphic" in2="pf_100_dropShadow" mode="normal"/></filter></defs><g filter="url(#gDv2S3oPbnCQQJ6lxKP2XwtmurTwR1Jp)"><path d=" M 374.474 778.265 L 408.932 924.25 L 443.39 1070.235 C 446.486 1083.351 438.058 1094 424.581 1094 L 368.865 1094 L 313.149 1094 C 299.672 1094 291.245 1083.351 294.34 1070.235 L 328.798 924.25 L 363.256 778.265 C 366.352 765.149 371.379 765.149 374.474 778.265 Z " fill="rgb(255,255,255)"/></g><defs><filter id="iIXDjHHbPuAMkEDu5w9zBHT89wluQnpK" x="-200%" y="-200%" width="400%" height="400%" filterUnits="objectBoundingBox" color-interpolation-filters="sRGB"><feGaussianBlur xmlns="http://www.w3.org/2000/svg" in="SourceGraphic" stdDeviation="2.146804531419514"/><feOffset xmlns="http://www.w3.org/2000/svg" dx="5" dy="6" result="pf_100_offsetBlur"/><feFlood xmlns="http://www.w3.org/2000/svg" flood-color="#000000" flood-opacity="0.65"/><feComposite xmlns="http://www.w3.org/2000/svg" in2="pf_100_offsetBlur" operator="in" result="pf_100_dropShadow"/><feBlend xmlns="http://www.w3.org/2000/svg" in="SourceGraphic" in2="pf_100_dropShadow" mode="normal"/></filter></defs><g filter="url(#iIXDjHHbPuAMkEDu5w9zBHT89wluQnpK)"><path d="M 118.55 518 L 633.45 518 C 643.136 518 651 525.864 651 535.55 L 651 973.45 C 651 983.136 643.136 991 633.45 991 L 118.55 991 C 108.864 991 101 983.136 101 973.45 L 101 535.55 C 101 525.864 108.864 518 118.55 518 Z" style="stroke:none;fill:#FFFFFF;stroke-miterlimit:10;"/></g><path d="M 117.533 518 L 634.467 518 C 643.592 518 651 525.408 651 534.533 L 651 898.467 C 651 907.592 643.592 915 634.467 915 L 117.533 915 C 108.408 915 101 907.592 101 898.467 L 101 534.533 C 101 525.408 108.408 518 117.533 518 Z" style="stroke:none;fill:#2B2B40;stroke-miterlimit:10;"/><rect x="131" y="541" width="492" height="338" transform="matrix(1,0,0,1,0,0)" fill="rgb(184,184,249)"/><rect x="131" y="541" width="492" height="34" transform="matrix(1,0,0,1,0,0)" fill="rgb(18,72,159)"/><ellipse vector-effect="non-scaling-stroke" cx="150.55089986237112" cy="557.9999999999999" rx="10.25" ry="10" fill="rgb(185,185,185)"/><ellipse vector-effect="non-scaling-stroke" cx="188.75" cy="557.9999999999999" rx="10.25" ry="10" fill="rgb(185,185,185)"/><ellipse vector-effect="non-scaling-stroke" cx="232.75" cy="557.9999999999999" rx="10.25" ry="10" fill="rgb(185,185,185)"/><rect x="160.801" y="608" width="433.199" height="161" transform="matrix(1,0,0,1,0,0)" fill="rgb(255,255,255)"/><rect x="188.75" y="630.5" width="160.25" height="102.319" transform="matrix(1,0,0,1,0,0)" fill="rgb(255,153,0)"/><path d="M 378.363 630.5 L 567.947 630.5 C 569.251 630.5 570.31 631.559 570.31 632.863 L 570.31 650.638 C 570.31 651.941 569.251 653 567.947 653 L 378.363 653 C 377.059 653 376 651.941 376 650.638 L 376 632.863 C 376 631.559 377.059 630.5 378.363 630.5 Z" style="stroke:none;fill:#D1D1D1;stroke-miterlimit:10;"/><path d="M 378.363 666.75 L 567.947 666.75 C 569.251 666.75 570.31 667.809 570.31 669.113 L 570.31 686.888 C 570.31 688.191 569.251 689.25 567.947 689.25 L 378.363 689.25 C 377.059 689.25 376 688.191 376 686.888 L 376 669.113 C 376 667.809 377.059 666.75 378.363 666.75 Z" style="stroke:none;fill:#D1D1D1;stroke-miterlimit:10;"/><path d="M 388.675 716.5 L 471.395 716.5 C 477.618 716.5 482.67 721.552 482.67 727.775 L 482.67 732.725 C 482.67 738.948 477.618 744 471.395 744 L 388.675 744 C 382.452 744 377.4 738.948 377.4 732.725 L 377.4 727.775 C 377.4 721.552 382.452 716.5 388.675 716.5 Z" style="stroke:none;fill:#FF9900;stroke-miterlimit:10;"/><rect x="178.5" y="786" width="115.5" height="15" transform="matrix(1,0,0,1,0,0)" fill="rgb(130,141,244)"/><rect x="178.5" y="807" width="115.5" height="16" transform="matrix(1,0,0,1,0,0)" fill="rgb(130,141,244)"/><rect x="178.5" y="832" width="115.5" height="39" transform="matrix(1,0,0,1,0,0)" fill="rgb(130,141,244)"/><rect x="314.536" y="781.5" width="279.464" height="89.5" transform="matrix(1,0,0,1,0,0)" fill="rgb(130,141,244)"/><g><path d=" M 313.553 714.379 L 313.553 716.618 C 313.553 717.787 314.474 718.723 315.626 718.723 C 316.778 718.723 317.699 717.787 317.699 716.618 L 317.699 714.379 L 313.553 714.379 Z  M 296.408 716.618 C 296.408 717.787 297.33 718.723 298.481 718.723 C 299.633 718.723 300.555 717.787 300.555 716.618 L 300.555 714.379 L 296.441 714.379 L 296.408 716.618 Z  M 266.792 716.618 C 266.792 717.787 267.713 718.723 268.865 718.723 C 270.017 718.723 270.938 717.787 270.938 716.618 L 270.938 714.379 L 266.825 714.379 L 266.792 716.618 Z  M 249.647 716.618 C 249.647 717.787 250.568 718.723 251.72 718.723 C 252.872 718.723 253.793 717.787 253.793 716.618 L 253.793 714.379 L 249.68 714.379 L 249.68 716.618 L 249.647 716.618 Z  M 232.502 716.618 C 232.502 717.787 233.424 718.723 234.576 718.723 C 235.727 718.723 236.649 717.787 236.649 716.618 L 236.649 714.379 L 232.535 714.379 L 232.535 716.618 L 232.502 716.618 L 232.502 716.618 Z  M 215.358 716.618 C 215.358 717.787 216.279 718.723 217.431 718.723 C 218.583 718.723 219.504 717.787 219.504 716.618 L 219.504 714.379 L 215.391 714.379 L 215.391 716.618 L 215.358 716.618 L 215.358 716.618 Z  M 278.869 656.776 C 281.933 665.914 289.334 672.865 298.545 675.257 C 307.756 677.649 317.534 675.159 324.544 668.637 C 325.33 667.882 326.408 667.527 327.48 667.67 C 328.553 667.812 329.505 668.438 330.072 669.372 C 329.974 669.439 329.908 669.506 329.809 669.573 C 323.542 675.408 315.344 678.64 306.84 678.627 C 292.262 678.627 279.329 669.239 274.624 655.172 L 273.801 653 C 276.072 653.067 278.112 654.537 278.869 656.776 L 278.869 656.776 Z " fill="rgb(239,81,35)"/><path d=" M 331.455 706.727 C 329.523 708.931 326.758 710.195 323.853 710.202 L 209.763 710.202 C 206.835 710.202 204.103 709.033 202.063 706.895 C 200.023 704.756 198.937 701.949 199.003 699.009 L 199.003 698.809 C 199.069 695.568 200.549 692.561 203.018 690.556 C 207.888 686.58 216.279 680.499 229.179 673.248 L 231.153 677.592 C 231.377 678.1 231.792 678.495 232.305 678.69 C 232.819 678.885 233.388 678.862 233.885 678.627 C 234.905 678.16 235.365 676.923 234.905 675.854 L 232.831 671.243 C 234.312 670.441 235.826 669.639 237.406 668.838 L 239.577 673.682 C 239.801 674.19 240.216 674.586 240.73 674.781 C 241.243 674.975 241.812 674.953 242.309 674.718 C 243.329 674.25 243.79 673.014 243.329 671.945 L 241.091 666.966 C 242.605 666.231 244.119 665.463 245.698 664.694 L 248.002 669.807 C 248.226 670.314 248.641 670.71 249.154 670.905 C 249.667 671.099 250.236 671.077 250.733 670.842 C 251.753 670.375 252.214 669.138 251.753 668.069 L 249.45 662.957 C 251.095 662.188 252.806 661.42 254.55 660.618 L 256.854 665.73 C 257.078 666.238 257.493 666.634 258.006 666.828 C 258.519 667.023 259.088 667.001 259.585 666.766 C 260.605 666.298 261.066 665.062 260.605 663.993 L 258.335 658.947 C 259.881 658.279 261.461 657.611 263.073 656.909 L 265.278 661.821 C 265.502 662.329 265.917 662.724 266.43 662.919 C 266.944 663.114 267.512 663.091 268.009 662.857 C 269.029 662.389 269.49 661.153 269.029 660.083 L 266.89 655.339 C 267.878 654.938 268.865 654.537 269.885 654.136 L 270.806 656.575 C 276.072 672.246 290.584 682.804 306.906 682.804 C 315.725 682.804 324.215 679.73 330.994 674.083 L 333.264 692.661 C 333.166 692.728 333.1 692.761 333.001 692.828 L 332.902 692.895 C 327.551 697.228 320.924 699.616 314.08 699.677 L 222.268 700.179 C 221.117 700.179 220.228 701.114 220.228 702.284 C 220.228 703.42 221.149 704.355 222.268 704.355 L 314.08 703.854 C 321.122 703.821 328.065 701.549 333.791 697.405 L 333.923 698.608 C 334.285 701.582 333.363 704.522 331.455 706.727 Z " fill="rgb(1,118,151)"/></g><ellipse vector-effect="non-scaling-stroke" cx="370.3999875537753" cy="957.6007840491877" rx="25.60001244622464" ry="28.400784049187678" fill="rgb(235,235,235)"/><defs><filter id="XnGAUsoEVzFpGeALJFdYWDdNwFxYqSzc" x="-200%" y="-200%" width="400%" height="400%" filterUnits="objectBoundingBox" color-interpolation-filters="sRGB"><feGaussianBlur xmlns="http://www.w3.org/2000/svg" in="SourceGraphic" stdDeviation="2.146804531419514"/><feOffset xmlns="http://www.w3.org/2000/svg" dx="10" dy="0" result="pf_100_offsetBlur"/><feFlood xmlns="http://www.w3.org/2000/svg" flood-color="#000000" flood-opacity="0.65"/><feComposite xmlns="http://www.w3.org/2000/svg" in2="pf_100_offsetBlur" operator="in" result="pf_100_dropShadow"/><feBlend xmlns="http://www.w3.org/2000/svg" in="SourceGraphic" in2="pf_100_dropShadow" mode="normal"/></filter></defs><g filter="url(#XnGAUsoEVzFpGeALJFdYWDdNwFxYqSzc)"><path d="M 513.54 815 L 682.46 815 C 692.693 815 701 823.307 701 833.54 L 701 1128.46 C 701 1138.693 692.693 1147 682.46 1147 L 513.54 1147 C 503.307 1147 495 1138.693 495 1128.46 L 495 833.54 C 495 823.307 503.307 815 513.54 815 Z" style="stroke:none;fill:#FFFFFF;stroke-miterlimit:10;"/></g><rect x="495" y="854" width="206" height="48" transform="matrix(1,0,0,1,0,0)" fill="rgb(18,72,159)"/><path d="M 568.105 832 L 637.895 832 C 639.609 832 641 833.391 641 835.105 L 641 837.895 C 641 839.609 639.609 841 637.895 841 L 568.105 841 C 566.391 841 565 839.609 565 837.895 L 565 835.105 C 565 833.391 566.391 832 568.105 832 Z" style="stroke:none;fill:#2E2E2E;stroke-miterlimit:10;"/><ellipse vector-effect="non-scaling-stroke" cx="547.5" cy="836.4999999999998" rx="6.5" ry="4.5" fill="rgb(46,46,46)"/><g><path d=" M 670 897.5 C 659.8 897.5 651.5 889.2 651.5 879 C 651.5 868.8 659.8 860.5 670 860.5 C 680.2 860.5 688.5 868.8 688.5 879 C 688.5 889.2 680.2 897.5 670 897.5 Z " fill="rgb(152,204,253)"/><path d=" M 670 861 C 679.926 861 688 869.074 688 879 C 688 888.926 679.926 897 670 897 C 660.074 897 652 888.926 652 879 C 652 869.074 660.074 861 670 861 Z  M 670 860 C 659.508 860 651 868.508 651 879 C 651 889.492 659.508 898 670 898 C 680.492 898 689 889.492 689 879 C 689 868.508 680.492 860 670 860 Z " fill="rgb(71,136,199)"/><path d=" M 663.988 887.133 L 661.868 885.012 L 676.012 870.867 L 678.132 872.988 L 663.988 887.133 Z " fill="rgb(255,255,255)"/><path d=" M 661.867 872.988 L 663.988 870.868 L 678.133 885.012 L 676.012 887.132 L 661.867 872.988 Z " fill="rgb(255,255,255)"/><path d=" M 678.133 872.988 L 676.012 870.868 L 670 876.877 L 663.988 870.867 L 661.868 872.987 L 667.877 879 L 661.867 885.012 L 663.987 887.132 L 670 881.123 L 676.012 887.133 L 678.132 885.013 L 672.123 879 L 678.133 872.988 Z " fill="rgb(255,255,255)"/></g><rect x="495" y="902" width="206" height="203" transform="matrix(1,0,0,1,0,0)" fill="rgb(184,184,249)"/><rect x="515" y="915" width="174" height="160" transform="matrix(1,0,0,1,0,0)" fill="rgb(255,255,255)"/><rect x="530" y="931.214" width="145" height="91.437" transform="matrix(1,0,0,1,0,0)" fill="rgb(255,153,0)"/><g><path d=" M 635.324 1005.45 L 635.324 1007.689 C 635.324 1008.858 636.03 1009.794 636.913 1009.794 C 637.796 1009.794 638.503 1008.858 638.503 1007.689 L 638.503 1005.45 L 635.324 1005.45 Z  M 622.18 1007.689 C 622.18 1008.858 622.886 1009.794 623.769 1009.794 C 624.652 1009.794 625.359 1008.858 625.359 1007.689 L 625.359 1005.45 L 622.205 1005.45 L 622.18 1007.689 Z  M 599.474 1007.689 C 599.474 1008.858 600.18 1009.794 601.063 1009.794 C 601.946 1009.794 602.653 1008.858 602.653 1007.689 L 602.653 1005.45 L 599.499 1005.45 L 599.474 1007.689 Z  M 586.329 1007.689 C 586.329 1008.858 587.036 1009.794 587.919 1009.794 C 588.802 1009.794 589.508 1008.858 589.508 1007.689 L 589.508 1005.45 L 586.355 1005.45 L 586.355 1007.689 L 586.329 1007.689 Z  M 573.185 1007.689 C 573.185 1008.858 573.892 1009.794 574.775 1009.794 C 575.658 1009.794 576.364 1008.858 576.364 1007.689 L 576.364 1005.45 L 573.21 1005.45 L 573.21 1007.689 L 573.185 1007.689 L 573.185 1007.689 Z  M 560.041 1007.689 C 560.041 1008.858 560.747 1009.794 561.63 1009.794 C 562.513 1009.794 563.22 1008.858 563.22 1007.689 L 563.22 1005.45 L 560.066 1005.45 L 560.066 1007.689 L 560.041 1007.689 L 560.041 1007.689 Z  M 608.733 947.847 C 611.082 956.986 616.756 963.936 623.818 966.328 C 630.88 968.721 638.376 966.231 643.75 959.708 C 644.353 958.954 645.18 958.598 646.002 958.741 C 646.824 958.884 647.554 959.509 647.989 960.443 C 647.913 960.51 647.863 960.577 647.787 960.644 C 642.982 966.479 636.697 969.711 630.177 969.699 C 619.001 969.699 609.086 960.31 605.478 946.243 L 604.847 944.071 C 606.588 944.138 608.152 945.608 608.733 947.847 L 608.733 947.847 Z " fill="rgb(239,81,35)"/><path d=" M 649.048 997.799 C 647.568 1000.002 645.448 1001.266 643.221 1001.274 L 555.752 1001.274 C 553.507 1001.274 551.413 1000.104 549.848 997.966 C 548.284 995.827 547.452 993.021 547.502 990.08 L 547.502 989.88 C 547.553 986.639 548.688 983.632 550.58 981.627 C 554.314 977.651 560.747 971.57 570.637 964.319 L 572.151 968.663 C 572.322 969.171 572.641 969.566 573.034 969.761 C 573.428 969.956 573.864 969.933 574.245 969.699 C 575.027 969.231 575.38 967.995 575.027 966.926 L 573.437 962.315 C 574.573 961.513 575.733 960.711 576.944 959.909 L 578.609 964.754 C 578.781 965.262 579.099 965.657 579.493 965.852 C 579.886 966.047 580.322 966.024 580.703 965.789 C 581.485 965.322 581.839 964.085 581.485 963.016 L 579.77 958.038 C 580.93 957.303 582.091 956.534 583.302 955.766 L 585.068 960.878 C 585.24 961.386 585.558 961.781 585.951 961.976 C 586.345 962.171 586.781 962.148 587.162 961.914 C 587.944 961.446 588.297 960.21 587.944 959.14 L 586.178 954.028 C 587.44 953.26 588.751 952.491 590.089 951.689 L 591.855 956.802 C 592.026 957.309 592.344 957.705 592.738 957.9 C 593.132 958.094 593.568 958.072 593.949 957.837 C 594.731 957.37 595.084 956.133 594.731 955.064 L 592.99 950.019 C 594.176 949.351 595.387 948.682 596.623 947.981 L 598.313 952.892 C 598.485 953.4 598.803 953.796 599.197 953.99 C 599.59 954.185 600.026 954.163 600.407 953.928 C 601.189 953.46 601.542 952.224 601.189 951.155 L 599.549 946.41 C 600.306 946.009 601.063 945.608 601.845 945.207 L 602.552 947.646 C 606.588 963.317 617.714 973.875 630.228 973.875 C 636.989 973.875 643.498 970.801 648.695 965.155 L 650.436 983.732 C 650.36 983.799 650.31 983.832 650.234 983.899 L 650.159 983.966 C 646.056 988.299 640.975 990.687 635.728 990.749 L 565.339 991.25 C 564.456 991.25 563.775 992.185 563.775 993.355 C 563.775 994.491 564.481 995.426 565.339 995.426 L 635.728 994.925 C 641.127 994.892 646.45 992.62 650.84 988.477 L 650.941 989.68 C 651.218 992.653 650.512 995.594 649.048 997.799 Z " fill="rgb(1,118,151)"/></g><path d="M 573.943 1037 L 633.347 1037 C 636.461 1037 638.99 1039.529 638.99 1042.645 L 638.99 1051.515 C 638.99 1054.631 636.461 1057.16 633.347 1057.16 L 573.943 1057.16 C 570.829 1057.16 568.3 1054.631 568.3 1051.515 L 568.3 1042.645 C 568.3 1039.529 570.829 1037 573.943 1037 Z" style="stroke:none;fill:#FF9900;stroke-miterlimit:10;"/><ellipse vector-effect="non-scaling-stroke" cx="597.9999999999998" cy="1125.6" rx="15.100000000000023" ry="15.399999999999864" fill="rgb(235,235,235)"/><line x1="682" y1="770" x2="695" y2="756" vector-effect="non-scaling-stroke" stroke-width="4" stroke="rgb(7,31,56)" stroke-linejoin="miter" stroke-linecap="square" stroke-miterlimit="3"/><line x1="707" y1="734" x2="720" y2="714" vector-effect="non-scaling-stroke" stroke-width="4" stroke="rgb(7,31,56)" stroke-linejoin="miter" stroke-linecap="square" stroke-miterlimit="3"/><line x1="732.713" y1="696.29" x2="744.287" y2="675.432" vector-effect="non-scaling-stroke" stroke-width="4" stroke="rgb(7,31,56)" stroke-linejoin="miter" stroke-linecap="square" stroke-miterlimit="3"/><line x1="755" y1="656.858" x2="766.573" y2="636" vector-effect="non-scaling-stroke" stroke-width="4" stroke="rgb(7,31,56)" stroke-linejoin="miter" stroke-linecap="square" stroke-miterlimit="3"/><line x1="777" y1="612.7" x2="789.654" y2="585" vector-effect="non-scaling-stroke" stroke-width="4" stroke="rgb(0,0,0)" stroke-linejoin="miter" stroke-linecap="square" stroke-miterlimit="3"/><line x1="789.654" y1="512" x2="789.654" y2="548" vector-effect="non-scaling-stroke" stroke-width="4" stroke="rgb(7,31,56)" stroke-linejoin="miter" stroke-linecap="square" stroke-miterlimit="3"/><path d=" M 777 488 Q 742.892 444.535 732.713 461 Q 722.535 477.465 720 488 L 732.713 461 L 744.287 461 L 755 461 L 777 488 Z " fill="rgb(255,255,255)" vector-effect="non-scaling-stroke" stroke-width="4" stroke="rgb(7,31,56)" stroke-linejoin="miter" stroke-linecap="square" stroke-miterlimit="3"/><line x1="713.5" y1="500.5" x2="700.5" y2="523.5" vector-effect="non-scaling-stroke" stroke-width="4" stroke="rgb(7,31,56)" stroke-linejoin="miter" stroke-linecap="square" stroke-miterlimit="3"/><line x1="695" y1="536.5" x2="682" y2="559.5" vector-effect="non-scaling-stroke" stroke-width="4" stroke="rgb(7,31,56)" stroke-linejoin="miter" stroke-linecap="square" stroke-miterlimit="3"/><polygon points="671.537,523.5,707,562.069,656.3,573.9" fill="rgb(235,235,235)"/></g></g></svg>