<?xml version="1.0" encoding="UTF-8" standalone="no"?><!-- Generator: Gravit.io --><svg xmlns="http://www.w3.org/2000/svg" xmlns:xlink="http://www.w3.org/1999/xlink" style="isolation:isolate" viewBox="0 0 800 1200" width="800pt" height="1200pt"><defs><clipPath id="_clipPath_A1tHXBzofSIFsZMkFD2OkQZRXknnC1PA"><rect width="800" height="1200"/></clipPath></defs><g clip-path="url(#_clipPath_A1tHXBzofSIFsZMkFD2OkQZRXknnC1PA)"><defs><filter id="Yig0oAUMjEgeEOAXbk0F9WYJvrZW8ZTE" x="-200%" y="-200%" width="400%" height="400%" filterUnits="objectBoundingBox" color-interpolation-filters="sRGB"><feOffset xmlns="http://www.w3.org/2000/svg" in="SourceGraphic" dx="0" dy="0"/><feGaussianBlur xmlns="http://www.w3.org/2000/svg" stdDeviation="2.146804531419514" result="pf_100_offsetBlur"/><feComposite xmlns="http://www.w3.org/2000/svg" in="SourceGraphic" in2="pf_100_offsetBlur" result="pf_100_inverse" operator="out"/><feFlood xmlns="http://www.w3.org/2000/svg" flood-color="#000000" flood-opacity="0.5" result="pf_100_color"/><feComposite xmlns="http://www.w3.org/2000/svg" in="pf_100_color" in2="pf_100_inverse" operator="in" result="pf_100_shadow"/><feComposite xmlns="http://www.w3.org/2000/svg" in="pf_100_shadow" in2="SourceGraphic" operator="over"/><feGaussianBlur xmlns="http://www.w3.org/2000/svg" stdDeviation="1.8462518970207822"/></filter></defs><g filter="url(#Yig0oAUMjEgeEOAXbk0F9WYJvrZW8ZTE)"><linearGradient id="_lgradient_3" x1="-0.10768979098459178" y1="0.23818561088283702" x2="1.0671887934511453" y2="0.7863260794904974" gradientTransform="matrix(769.663,0,0,1051.145,39.927,54.855)" gradientUnits="userSpaceOnUse"><stop offset="0%" stop-opacity="1" style="stop-color:rgb(103,215,232)"/><stop offset="100%" stop-opacity="1" style="stop-color:rgb(0,0,0)"/></linearGradient><path d=" M 103 136.037 L 161 98.81 Q 152.317 82.888 161 98.81 Q 191.585 25.305 215 74.722 Q 238.415 124.139 264 98.81 Q 356.338 66.348 350 115.234 C 343.662 164.119 344.866 166.764 384 199.541 Q 423.134 232.319 473 161.22 Q 542.211 150.224 531 215.965 Q 519.789 281.706 610 335.31 Q 672.458 266.624 696 335.31 C 719.542 403.996 768.085 458.533 732 500.64 C 695.915 542.748 631.648 628.228 696 688.964 Q 760.352 749.701 790 799.55 L 790 799.55 Q 837.789 873.417 769 859.77 C 700.211 846.122 671.711 867.349 672 916.705 Q 672.289 966.06 647 1025.1 Q 572.655 1154.137 543 1076.561 Q 513.345 998.985 451 1060.137 Q 405.739 1151.863 350 1060.137 C 294.261 968.412 283.141 992.654 264 975.83 Q 244.859 959.005 185 963.786 Q 146.831 987.288 140 916.705 C 133.169 846.122 107.944 849.491 127 846.631 L 45 768.892 Q 53.486 808.756 45 740.425 C 36.514 672.093 32.979 571.277 82 596.992 C 131.021 622.707 176.69 631.852 185 584.948 Q 193.31 538.045 127 500.64 Q 141.563 642.384 103 545.532 Q 64.437 448.679 114 369.252 Q 118.894 229.058 82 255.382 Q 45.106 281.706 82 183.118 L 103 136.037 Z " fill="url(#_lgradient_3)"/></g><defs><filter id="TdTy4LWyEjLgozELUQtNnVhZRT6Hz7vh" x="-200%" y="-200%" width="400%" height="400%" filterUnits="objectBoundingBox" color-interpolation-filters="sRGB"><feGaussianBlur xmlns="http://www.w3.org/2000/svg" in="SourceGraphic" stdDeviation="4.293609062839028"/><feOffset xmlns="http://www.w3.org/2000/svg" dx="11" dy="36" result="pf_100_offsetBlur"/><feFlood xmlns="http://www.w3.org/2000/svg" flood-color="#000000" flood-opacity="0.65"/><feComposite xmlns="http://www.w3.org/2000/svg" in2="pf_100_offsetBlur" operator="in" result="pf_100_dropShadow"/><feBlend xmlns="http://www.w3.org/2000/svg" in="SourceGraphic" in2="pf_100_dropShadow" mode="normal"/></filter></defs><g filter="url(#TdTy4LWyEjLgozELUQtNnVhZRT6Hz7vh)"><path d="M 256.154 235 L 566.846 235 C 578.521 235 588 244.479 588 256.154 L 588 986.846 C 588 998.521 578.521 1008 566.846 1008 L 256.154 1008 C 244.479 1008 235 998.521 235 986.846 L 235 256.154 C 235 244.479 244.479 235 256.154 235 Z" style="stroke:none;fill:#EBEBEB;stroke-miterlimit:10;"/></g><rect x="251.5" y="308" width="320" height="584" transform="matrix(1,0,0,1,0,0)" fill="rgb(7,31,56)"/><path d="M 375.2 939 L 442.8 939 C 447.326 939 451 942.674 451 947.2 L 451 970.8 C 451 975.326 447.326 979 442.8 979 L 375.2 979 C 370.674 979 367 975.326 367 970.8 L 367 947.2 C 367 942.674 370.674 939 375.2 939 Z" style="stroke:none;fill:#071F38;stroke-miterlimit:10;"/><circle vector-effect="non-scaling-stroke" cx="290" cy="275" r="9" fill="rgb(7,31,56)"/><rect x="344" y="270.5" width="107" height="9" transform="matrix(1,0,0,1,0,0)" fill="rgb(7,31,56)"/><rect x="473" y="270.5" width="27" height="13.5" transform="matrix(1,0,0,1,0,0)" fill="rgb(7,31,56)"/><path d=" M 471.999 522.721 L 696 524.55 L 696 751.099 L 537 751.099 L 500 782.55 L 473 799.55 L 473 751.099 L 451 751.099 L 451 543.55 C 451 531.96 460.409 522.627 471.999 522.721 Z " fill="rgb(255,255,255)" vector-effect="non-scaling-stroke" stroke-width="1" stroke="rgb(0,0,0)" stroke-linejoin="miter" stroke-linecap="square" stroke-miterlimit="3"/><path d="M 478.5 622 L 680.5 622 C 683.26 622 685.5 624.24 685.5 627 L 685.5 632.5 C 685.5 635.26 683.26 637.5 680.5 637.5 L 478.5 637.5 C 475.74 637.5 473.5 635.26 473.5 632.5 L 473.5 627 C 473.5 624.24 475.74 622 478.5 622 Z" style="stroke:none;fill:#071F38;stroke-miterlimit:10;"/><path d="M 478.5 622 L 680.5 622 C 683.26 622 685.5 624.24 685.5 627 L 685.5 632.5 C 685.5 635.26 683.26 637.5 680.5 637.5 L 478.5 637.5 C 475.74 637.5 473.5 635.26 473.5 632.5 L 473.5 627 C 473.5 624.24 475.74 622 478.5 622 Z" style="fill:none;stroke:#000000;stroke-width:1;stroke-linecap:square;stroke-miterlimit:2;"/><path d="M 478.5 569.5 L 680.5 569.5 C 683.26 569.5 685.5 571.741 685.5 574.501 L 685.5 575.929 C 685.5 578.689 683.26 580.93 680.5 580.93 L 478.5 580.93 C 475.74 580.93 473.5 578.689 473.5 575.929 L 473.5 574.501 C 473.5 571.741 475.74 569.5 478.5 569.5 Z" style="stroke:none;fill:#071F38;stroke-linecap:square;stroke-miterlimit:2;"/><path d="M 478.5 569.5 L 680.5 569.5 C 683.26 569.5 685.5 571.741 685.5 574.501 L 685.5 575.929 C 685.5 578.689 683.26 580.93 680.5 580.93 L 478.5 580.93 C 475.74 580.93 473.5 578.689 473.5 575.929 L 473.5 574.501 C 473.5 571.741 475.74 569.5 478.5 569.5 Z" style="fill:none;stroke:#000000;stroke-width:1;stroke-linecap:square;stroke-miterlimit:2;"/><path d="M 478.5 593.25 L 680.5 593.25 C 683.26 593.25 685.5 595.49 685.5 598.25 L 685.5 602.75 C 685.5 605.51 683.26 607.75 680.5 607.75 L 478.5 607.75 C 475.74 607.75 473.5 605.51 473.5 602.75 L 473.5 598.25 C 473.5 595.49 475.74 593.25 478.5 593.25 Z" style="stroke:none;fill:#071F38;stroke-linecap:square;stroke-miterlimit:2;"/><path d="M 478.5 593.25 L 680.5 593.25 C 683.26 593.25 685.5 595.49 685.5 598.25 L 685.5 602.75 C 685.5 605.51 683.26 607.75 680.5 607.75 L 478.5 607.75 C 475.74 607.75 473.5 605.51 473.5 602.75 L 473.5 598.25 C 473.5 595.49 475.74 593.25 478.5 593.25 Z" style="fill:none;stroke:#000000;stroke-width:1;stroke-linecap:square;stroke-miterlimit:2;"/><path d="M 478.359 652.2 L 679.641 652.2 C 682.598 652.2 685 654.602 685 657.561 L 685 664.709 C 685 667.668 682.598 670.07 679.641 670.07 L 478.359 670.07 C 475.402 670.07 473 667.668 473 664.709 L 473 657.561 C 473 654.602 475.402 652.2 478.359 652.2 Z" style="stroke:none;fill:#071F38;stroke-linecap:square;stroke-miterlimit:2;"/><defs><filter id="yGyqJCzNVp5P6sJmxwHDytTFN3D6Kjil" x="-200%" y="-200%" width="400%" height="400%" filterUnits="objectBoundingBox" color-interpolation-filters="sRGB"><feGaussianBlur xmlns="http://www.w3.org/2000/svg" in="SourceGraphic" stdDeviation="2.146804531419514"/><feOffset xmlns="http://www.w3.org/2000/svg" dx="11" dy="12" result="pf_100_offsetBlur"/><feFlood xmlns="http://www.w3.org/2000/svg" flood-color="#000000" flood-opacity="0.65"/><feComposite xmlns="http://www.w3.org/2000/svg" in2="pf_100_offsetBlur" operator="in" result="pf_100_dropShadow"/><feBlend xmlns="http://www.w3.org/2000/svg" in="SourceGraphic" in2="pf_100_dropShadow" mode="normal" result="_out_O7DbwynyNdv5Wk89GmAzNHgkE2Th8afX"/><feGaussianBlur xmlns="http://www.w3.org/2000/svg" in="_out_O7DbwynyNdv5Wk89GmAzNHgkE2Th8afX" stdDeviation="2.146804531419514"/><feOffset xmlns="http://www.w3.org/2000/svg" dx="0" dy="0" result="pf_101_offsetBlur"/><feFlood xmlns="http://www.w3.org/2000/svg" flood-color="#000000" flood-opacity="0.65"/><feComposite xmlns="http://www.w3.org/2000/svg" in2="pf_101_offsetBlur" operator="in" result="pf_101_dropShadow"/><feBlend xmlns="http://www.w3.org/2000/svg" in="_out_O7DbwynyNdv5Wk89GmAzNHgkE2Th8afX" in2="pf_101_dropShadow" mode="normal" result="_out_eBdru08V3Jl6mvWE8G5OywrH95dknfjD"/><feMerge><feMergeNode in="_out_eBdru08V3Jl6mvWE8G5OywrH95dknfjD"/></feMerge><feGaussianBlur xmlns="http://www.w3.org/2000/svg" stdDeviation="2.146804531419514"/></filter></defs><g filter="url(#yGyqJCzNVp5P6sJmxwHDytTFN3D6Kjil)"><mask id="_mask_8aWrjYSOZxrFGJp2EvaZiRbggR3fbB0z"><ellipse vector-effect="non-scaling-stroke" cx="173.9635499475524" cy="460.46623098303985" rx="170.03645005244755" ry="189.96623098303988" fill="white" stroke="none"/></mask><ellipse vector-effect="non-scaling-stroke" cx="173.9635499475524" cy="460.46623098303985" rx="170.03645005244755" ry="189.96623098303988" fill="rgb(255,255,255)"/><ellipse vector-effect="non-scaling-stroke" cx="173.9635499475524" cy="460.46623098303985" rx="170.03645005244755" ry="189.96623098303988" fill="rgb(255,255,255)" mask="url(#_mask_8aWrjYSOZxrFGJp2EvaZiRbggR3fbB0z)" stroke-width="2" stroke="rgb(255,255,255)" stroke-linejoin="miter" stroke-linecap="square" stroke-miterlimit="3"/></g><defs><filter id="r3Q90Y9HcGH8B6uRWrAP1i0AQY5Aj7bt" x="-200%" y="-200%" width="400%" height="400%" filterUnits="objectBoundingBox" color-interpolation-filters="sRGB"><feGaussianBlur xmlns="http://www.w3.org/2000/svg" in="SourceGraphic" stdDeviation="2.146804531419514"/><feOffset xmlns="http://www.w3.org/2000/svg" dx="12" dy="12" result="pf_100_offsetBlur"/><feFlood xmlns="http://www.w3.org/2000/svg" flood-color="#000000" flood-opacity="0.65"/><feComposite xmlns="http://www.w3.org/2000/svg" in2="pf_100_offsetBlur" operator="in" result="pf_100_dropShadow"/><feBlend xmlns="http://www.w3.org/2000/svg" in="SourceGraphic" in2="pf_100_dropShadow" mode="normal"/><feGaussianBlur xmlns="http://www.w3.org/2000/svg" stdDeviation="2.146804531419514" result="_out_vBQ2K1lyP4ijBoWYocW2VRtzxDaV2UmP"/><feGaussianBlur xmlns="http://www.w3.org/2000/svg" stdDeviation="2.146804531419514" in="_out_vBQ2K1lyP4ijBoWYocW2VRtzxDaV2UmP"/></filter></defs><g filter="url(#r3Q90Y9HcGH8B6uRWrAP1i0AQY5Aj7bt)"><path d=" M 271.438 596.839 L 306.692 650.432 Q 313.118 607.382 297.464 586.512 Q 281.81 565.641 271.438 596.839 Z " fill="rgb(255,255,255)"/></g><path d="M 51.975 350 L 286.955 350 C 293.603 350 299 355.397 299 362.045 L 299 556.955 C 299 563.603 293.603 569 286.955 569 L 51.975 569 C 45.327 569 39.93 563.603 39.93 556.955 L 39.93 362.045 C 39.93 355.397 45.327 350 51.975 350 Z" style="stroke:none;fill:#EBEBEB;stroke-linecap:square;stroke-miterlimit:2;"/><path d="M 51.975 350 L 286.955 350 C 293.603 350 299 355.397 299 362.045 L 299 556.955 C 299 563.603 293.603 569 286.955 569 L 51.975 569 C 45.327 569 39.93 563.603 39.93 556.955 L 39.93 362.045 C 39.93 355.397 45.327 350 51.975 350 Z" style="fill:none;stroke:#000000;stroke-width:12;stroke-linecap:square;stroke-miterlimit:2;"/><mask id="_mask_CEOxl2j9yRW4RPAOVS7LX3bNRT2U97VJ"><polygon points="179.284,420.086,297.368,563.785,47.055,566.561" fill="white" stroke="none"/></mask><polygon points="179.284,420.086,297.368,563.785,47.055,566.561" fill="rgb(235,235,235)"/><polygon points="179.284,420.086,297.368,563.785,47.055,566.561" fill="rgb(235,235,235)" mask="url(#_mask_CEOxl2j9yRW4RPAOVS7LX3bNRT2U97VJ)" vector-effect="non-scaling-stroke" stroke-width="10" stroke="rgb(7,31,56)" stroke-linejoin="miter" stroke-linecap="square" stroke-miterlimit="3"/><mask id="_mask_hHNcldEdEx8UmZBinNcJ2gtxgYwMPM7h"><polygon points="169.464,460.466,44.427,350,294.5,350" fill="white" stroke="none"/></mask><polygon points="169.464,460.466,44.427,350,294.5,350" fill="rgb(235,235,235)"/><polygon points="169.464,460.466,44.427,350,294.5,350" fill="rgb(235,235,235)" mask="url(#_mask_hHNcldEdEx8UmZBinNcJ2gtxgYwMPM7h)" vector-effect="non-scaling-stroke" stroke-width="12" stroke="rgb(7,31,56)" stroke-linejoin="miter" stroke-linecap="square" stroke-miterlimit="3"/></g></svg>