<svg id="ekhtDmU3JXd1" xmlns="http://www.w3.org/2000/svg" xmlns:xlink="http://www.w3.org/1999/xlink" viewBox="0 0 383 480" shape-rendering="geometricPrecision" text-rendering="geometricPrecision"><defs><filter id="ekhtDmU3JXd2-filter" x="-400%" width="600%" y="-400%" height="600%"><feGaussianBlur id="ekhtDmU3JXd2-filter-blur-0" stdDeviation="43,4" result="result"/></filter><linearGradient id="ekhtDmU3JXd2-fill" x1="0.239862" y1="0.262915" x2="1" y2="0.500000" spreadMethod="pad" gradientUnits="objectBoundingBox"><stop id="ekhtDmU3JXd2-fill-0" offset="18%" stop-color="rgb(55,200,186)"/><stop id="ekhtDmU3JXd2-fill-1" offset="52%" stop-color="rgb(14,102,193)"/><stop id="ekhtDmU3JXd2-fill-2" offset="53%" stop-color="rgb(20,115,192)"/></linearGradient></defs><ellipse id="ekhtDmU3JXd2" rx="171.626132" ry="139.055572" transform="matrix(0.99503124389152 0 0 1.78742763728656 194.16214718999956 248.55177341000035)" opacity="0.41" filter="url(#ekhtDmU3JXd2-filter)" fill="url(#ekhtDmU3JXd2-fill)" stroke="none" stroke-width="0"/><path id="ekhtDmU3JXd3" d="M279.045553,154.828633L299.869848,200.642082Q265.162689,221.466377,259.609544,225.631236Q254.056399,229.796095,244.338395,258.950108L294.316703,350.577007Q297.093275,360.295010,305.422993,370.013015Q313.752711,379.731020,338.741866,358.906725L355.401302,417.214751Q363.731019,411.661606,345.683297,425.544469Q327.635575,439.427332,306.811280,439.427332L266.550976,417.214751Q258.221259,415.826464,244.338395,382.507592Q230.455531,349.188720,233.232104,350.577007Q240.173535,367.236442,217.960954,315.869848Q195.748373,264.503254,206.854664,225.631236Q211.019523,190.924077,223.514100,183.982646Q236.008677,177.041215,236.008677,177.041215L244.338395,168.711497L279.045553,154.828633Z" transform="matrix(0.99989676193111 -0.01436890669717 0.01436890669717 0.99989676193111 -127.77194084009164 -46.42549497688515)" fill="rgb(7,31,56)" stroke="rgb(63,87,135)" stroke-width="1.280000"/><path id="ekhtDmU3JXd4" d="M345.683297,193.700651Q346.040328,188.147505,359,200.642082Q371.959672,213.136659,377.613883,225.631236L395.661605,270.056399L395.661605,303.375271L377.613883,350.577007L358,338.082430C358,338.082430,372.060738,303.375271,372.060738,303.375271C368.871800,308.419906,375.277153,285.350110,377.613883,281.162690L372.060738,258.950108L365.119306,240L355.401302,225.631236L334.741866,210.360087L345.683297,193.700651Z" transform="matrix(0.97307907016924 -0.23047152361751 0.23047152361751 0.97307907016924 -167.97116483857604 22.42975895047979)" fill="rgb(7,31,56)" stroke="rgb(63,87,135)" stroke-width="1.280000"/><path id="ekhtDmU3JXd5" d="M345.683297,193.700651Q346.040328,188.147505,359,200.642082Q371.959672,213.136659,377.613883,225.631236L395.661605,270.056399L395.661605,303.375271L377.613883,350.577007L358,338.082430C358,338.082430,372.060738,303.375271,372.060738,303.375271C368.871800,308.419906,375.277153,285.350110,377.613883,281.162690L372.060738,258.950108L365.119306,240L355.401302,225.631236L334.741866,210.360087L345.683297,193.700651Z" transform="matrix(0.72070871285644 -0.15703386515024 0.14013885066873 0.64316885144497 -74.13164247522658 98.85844609468998)" fill="rgb(7,31,56)" stroke="rgb(63,87,135)" stroke-width="1.280000"/><path id="ekhtDmU3JXd6" d="M345.683297,193.700651Q346.040328,188.147505,359,200.642082Q371.959672,213.136659,377.613883,225.631236L395.661605,270.056399L395.661605,303.375271L377.613883,350.577007L358,338.082430C358,338.082430,372.060738,303.375271,372.060738,303.375271C368.871800,308.419906,375.277153,285.350110,377.613883,281.162690L372.060738,258.950108L365.119306,240L355.401302,225.631236L334.741866,210.360087L345.683297,193.700651Z" transform="matrix(0.41947350675369 -0.14311786865719 0.15244470455454 0.44681013912173 11.32731530914558 157.28082576725657)" fill="rgb(7,31,56)" stroke="rgb(63,87,135)" stroke-width="1.280000"/><rect id="ekhtDmU3JXd7" width="40.274074" height="46.581417" rx="7.190000" ry="7.190000" transform="matrix(1 0 0 1 217.93049710369911 37.55381899999995)" fill="rgb(7,31,56)" stroke="none" stroke-width="0"/><path id="ekhtDmU3JXd8" d="M317.251289,108.247216L331.486145,131.537925L347.527081,108.247216L317.251289,108.247216Z" transform="matrix(1 0 0 1 -93.83202938499991 -70.69339700499992)" fill="rgb(255,255,255)" stroke="rgb(63,87,135)" stroke-width="1.280000"/><rect id="ekhtDmU3JXd9" width="41.138215" height="50.670573" rx="5.290000" ry="5.290000" transform="matrix(1 0 0 1 90.81580704999998 376.08912140499990)" fill="rgb(7,31,56)" stroke="none" stroke-width="0"/><path id="ekhtDmU3JXd10" d="M206.854664,402.463442L223.769288,427.798728L244.338395,402.463442L206.854664,402.463442Z" transform="matrix(-1 -0 0 -1.29288438454880 336.98144402999992 947.09839390856200)" fill="rgb(255,255,255)" stroke="rgb(63,87,135)" stroke-width="1.280000"/></svg>