<?xml version="1.0" encoding="UTF-8" standalone="no"?><!-- Generator: Gravit.io --><svg xmlns="http://www.w3.org/2000/svg" xmlns:xlink="http://www.w3.org/1999/xlink" style="isolation:isolate" viewBox="0 0 800 1170" width="800pt" height="1170pt"><defs><clipPath id="_clipPath_rlPQdTamCYmMUH1P0xp9dLHRAsuBXaPn"><rect width="800" height="1170"/></clipPath></defs><g clip-path="url(#_clipPath_rlPQdTamCYmMUH1P0xp9dLHRAsuBXaPn)"><g><path d=" M 601.459 116.385 C 662.716 196.697 684.837 335.852 717.167 460.694 C 748.93 586.331 791.469 696.86 780.125 796.256 C 768.781 895.652 704.121 983.121 635.491 1030.036 C 566.861 1076.951 494.26 1084.107 431.301 1088.878 C 367.776 1092.854 314.46 1094.445 256.039 1084.903 C 197.618 1076.156 135.227 1056.276 92.687 1003 C 49.58 949.724 27.46 863.05 25.191 778.762 C 22.922 693.679 41.072 610.981 68.298 537.03 C 96.09 463.08 132.391 397.876 180.035 308.816 C 227.112 218.962 284.398 105.253 362.671 59.928 C 441.511 13.808 540.77 35.278 601.459 116.385 Z " fill="rgb(7,31,56)"/><defs><filter id="ormvXbAZOoPTNXJfOP7OqFcXSso1tJid" x="-200%" y="-200%" width="400%" height="400%" filterUnits="objectBoundingBox" color-interpolation-filters="sRGB"><feGaussianBlur xmlns="http://www.w3.org/2000/svg" in="SourceGraphic" stdDeviation="2.146804531419514"/><feOffset xmlns="http://www.w3.org/2000/svg" dx="10" dy="10" result="pf_100_offsetBlur"/><feFlood xmlns="http://www.w3.org/2000/svg" flood-color="#000000" flood-opacity="0.65"/><feComposite xmlns="http://www.w3.org/2000/svg" in2="pf_100_offsetBlur" operator="in" result="pf_100_dropShadow"/><feBlend xmlns="http://www.w3.org/2000/svg" in="SourceGraphic" in2="pf_100_dropShadow" mode="normal"/></filter></defs><g filter="url(#ormvXbAZOoPTNXJfOP7OqFcXSso1tJid)"><path d="M 192.201 397 L 638.799 397 C 675.888 397 706 427.112 706 464.201 L 706 881.799 C 706 918.888 675.888 949 638.799 949 L 192.201 949 C 155.112 949 125 918.888 125 881.799 L 125 464.201 C 125 427.112 155.112 397 192.201 397 Z" style="stroke:none;fill:#FFFFFF;stroke-miterlimit:10;"/></g><path d="M 205.44 446 L 642.59 446 C 656.614 446 668 457.386 668 471.41 L 668 882.59 C 668 896.614 656.614 908 642.59 908 L 205.44 908 C 191.416 908 180.03 896.614 180.03 882.59 L 180.03 471.41 C 180.03 457.386 191.416 446 205.44 446 Z" style="stroke:none;fill:#AEBDD2;stroke-miterlimit:10;"/><ellipse vector-effect="non-scaling-stroke" cx="154.51740344815263" cy="669.5" rx="21.517403448152635" ry="22.5" fill="rgb(209,209,209)"/><path d="M 194.485 446 L 653.545 446 C 661.523 446 668 452.477 668 460.455 L 668 490.545 C 668 498.523 661.523 505 653.545 505 L 194.485 505 C 186.507 505 180.03 498.523 180.03 490.545 L 180.03 460.455 C 180.03 452.477 186.507 446 194.485 446 Z" style="stroke:none;fill:#B9B9B9;stroke-miterlimit:10;"/><path d="M 278.226 453.7 L 579.274 453.7 C 591.519 453.7 601.46 463.627 601.46 475.855 L 601.46 475.855 C 601.46 488.083 591.519 498.01 579.274 498.01 L 278.226 498.01 C 265.981 498.01 256.04 488.083 256.04 475.855 L 256.04 475.855 C 256.04 463.627 265.981 453.7 278.226 453.7 Z" style="stroke:none;fill:#FFFFFF;stroke-miterlimit:10;"/><g><path d=" M 575.172 482.524 C 572.87 484.485 569.995 485.553 567.032 485.548 C 559.881 485.548 554.086 479.458 554.086 471.947 C 554.086 464.435 559.881 458.345 567.032 458.345 C 574.182 458.345 579.977 464.435 579.977 471.947 C 579.982 475.06 578.965 478.08 577.098 480.498 L 587.414 491.336 L 585.487 493.361 L 575.172 482.524 L 575.172 482.524 Z  M 578.615 471.947 C 578.615 478.668 573.429 484.117 567.031 484.117 C 560.634 484.117 555.447 478.668 555.447 471.947 C 555.447 465.226 560.634 459.777 567.031 459.777 C 573.428 459.777 578.614 465.226 578.614 471.947 L 578.615 471.947 Z " fill-rule="evenodd" fill="rgb(0,0,0)"/><rect x="551" y="455.103" width="39.5" height="41.5" transform="matrix(1,0,0,1,0,0)" fill="none"/></g><g clip-path="url(#_clipPath_lNGpjukgrqKJ23ULt99bW7miZOmshz4m)"><text transform="matrix(1,0,0,1,287.5,481.435)" style="font-family:'Orienta';font-weight:400;font-size:20px;font-style:normal;fill:#000000;stroke:none;">flights Ticket Booking</text></g><defs><clipPath id="_clipPath_lNGpjukgrqKJ23ULt99bW7miZOmshz4m"><rect x="0" y="0" width="206" height="23.9" transform="matrix(1,0,0,1,287.5,462.235)"/></clipPath></defs><rect x="192" y="537.03" width="457" height="139.97" transform="matrix(1,0,0,1,0,0)" fill="rgb(255,255,255)"/><path d="M 217.917 585 L 280.583 585 C 284.4 585 287.5 588.1 287.5 591.917 L 287.5 648.083 C 287.5 651.9 284.4 655 280.583 655 L 217.917 655 C 214.1 655 211 651.9 211 648.083 L 211 591.917 C 211 588.1 214.1 585 217.917 585 Z" style="stroke:none;fill:#FF9900;stroke-miterlimit:10;"/><rect x="211" y="542" width="34" height="36" transform="matrix(-1,0,0,-1,456,1120)" fill="rgb(46,46,46)"/><g clip-path="url(#_clipPath_lfPLkCqb73S0M3PY5cxhVEG24OorHH1s)"><text transform="matrix(1,0,0,1,213,569.424)" style="font-family:'Passero One';font-weight:400;font-size:24px;font-style:normal;fill:#ffffff;stroke:none;">AD</text></g><defs><clipPath id="_clipPath_lfPLkCqb73S0M3PY5cxhVEG24OorHH1s"><rect x="0" y="0" width="29" height="28.57" transform="matrix(1,0,0,1,213,548.096)"/></clipPath></defs><g clip-path="url(#_clipPath_yKCApdfMXC6w0iVl4GIi9gt8pZJBSzNW)"><text transform="matrix(1,0,0,1,256.039,568.25)" style="font-family:'Passero One';font-weight:400;font-size:20px;font-style:normal;fill:#5e5ed9;stroke:none;">WWW.FLIightbooking.com</text></g><defs><clipPath id="_clipPath_yKCApdfMXC6w0iVl4GIi9gt8pZJBSzNW"><rect x="0" y="0" width="211" height="23.809" transform="matrix(1,0,0,1,256.039,550.477)"/></clipPath></defs><line x1="491.647" y1="559.882" x2="482.347" y2="550.5" vector-effect="non-scaling-stroke" stroke-width="4" stroke="rgb(0,0,0)" stroke-linejoin="miter" stroke-linecap="square" stroke-miterlimit="3"/><line x1="480.267" y1="572.5" x2="489.767" y2="563.1" vector-effect="non-scaling-stroke" stroke-width="5" stroke="rgb(0,0,0)" stroke-linejoin="miter" stroke-linecap="square" stroke-miterlimit="3"/><g clip-path="url(#_clipPath_jDHVtnC9mtNvv11snIf0S0U5Z4dNFQRo)"><text transform="matrix(1,0,0,1,500.5,567.873)" style="font-family:'Passero One';font-weight:400;font-size:20px;font-style:normal;fill:#000000;stroke:none;">Booking</text></g><defs><clipPath id="_clipPath_jDHVtnC9mtNvv11snIf0S0U5Z4dNFQRo"><rect x="0" y="0" width="67" height="23.809" transform="matrix(1,0,0,1,500.5,550.1)"/></clipPath></defs><g clip-path="url(#_clipPath_CpwyjfTlqUjXjLHMqdWEcx3m3QD74ni0)"><text transform="matrix(1,0,0,1,289.539,613.578)" style="font-family:'Passero One';font-weight:400;font-size:25px;font-style:normal;fill:#000000;stroke:none;">Book Flighs Ticket  |  FlightsBooking</text></g><defs><clipPath id="_clipPath_CpwyjfTlqUjXjLHMqdWEcx3m3QD74ni0"><rect x="0" y="0" width="357" height="29.761" transform="matrix(1,0,0,1,289.539,591.361)"/></clipPath></defs><g clip-path="url(#_clipPath_Fw3SP1rm9BKMoNe6TbY0oQUsS9wEPDrR)"><text transform="matrix(1,0,0,1,289.539,640.36)" style="font-family:'Red Hat Display';font-weight:400;font-size:20px;font-style:normal;fill:#464646;stroke:none;">Book airlines ticket for or </text><text transform="matrix(1,0,0,1,293.839,666.82)" style="font-family:'Red Hat Display';font-weight:400;font-size:20px;font-style:normal;fill:#464646;stroke:none;">of any countery</text></g><defs><clipPath id="_clipPath_Fw3SP1rm9BKMoNe6TbY0oQUsS9wEPDrR"><rect x="0" y="0" width="220" height="49.5" transform="matrix(1,0,0,1,289.539,620)"/></clipPath></defs><rect x="194.461" y="692" width="454.539" height="116" transform="matrix(1,0,0,1,0,0)" fill="rgb(209,209,209)"/><rect x="211" y="710.872" width="93" height="78.256" transform="matrix(1,0,0,1,0,0)" fill="rgb(235,235,235)"/><rect x="325" y="710.872" width="296" height="39.128" transform="matrix(1,0,0,1,0,0)" fill="rgb(235,235,235)"/><rect x="325" y="767" width="265.5" height="22.128" transform="matrix(1,0,0,1,0,0)" fill="rgb(235,235,235)"/><rect x="192" y="841" width="457" height="67" transform="matrix(1,0,0,1,0,0)" fill="rgb(209,209,209)"/><rect x="211" y="856" width="93" height="52" transform="matrix(1,0,0,1,0,0)" fill="rgb(232,232,232)"/><rect x="325" y="856" width="310.491" height="38" transform="matrix(1,0,0,1,0,0)" fill="rgb(232,232,232)"/><g><path d=" M 494.132 317.774 L 492.597 307.582 L 484.476 301.913 L 492.349 298.58 L 493.32 288.755 L 499.736 296.859 L 508.507 296.38 L 504.581 304.829 L 509.002 314.383 L 500.11 311.383 L 494.132 317.774 Z  M 546.023 308.344 L 544.781 300.159 L 538.234 295.646 L 544.562 292.911 L 545.344 285.03 L 550.523 291.549 L 557.507 291.124 L 554.418 297.898 L 557.91 305.542 L 550.831 303.22 L 546.023 308.344 Z  M 597.885 253.738 L 596.644 245.552 L 590.096 241.04 L 596.425 238.305 L 597.207 230.424 L 602.386 236.942 L 609.404 236.595 L 606.217 243.319 L 609.807 251.013 L 602.693 248.613 L 597.885 253.738 L 597.885 253.738 Z  M 416.523 250.738 L 415.281 242.553 L 408.797 238.012 L 415.097 235.383 L 415.845 227.424 L 421.023 233.943 L 428.042 233.596 L 424.918 240.292 L 428.445 248.014 L 421.331 245.614 L 416.523 250.738 Z  M 420.013 188.09 L 418.736 179.827 L 412.286 175.364 L 418.552 172.657 L 419.397 164.748 L 424.513 171.295 L 431.497 170.87 L 428.407 177.643 L 431.9 185.288 L 424.884 182.938 L 420.013 188.09 Z  M 513.722 75.729 L 495.59 101.22 L 573.12 83.771 L 571.986 61.126 L 513.722 75.729 L 513.722 75.729 Z  M 575.399 128.407 L 574.217 105.318 L 480.287 128.143 L 509.985 143.23 L 575.399 128.407 L 575.399 128.407 Z  M 570.876 39.213 L 568.765 -1.499 L 533.595 47.879 L 570.876 39.213 Z  M 537.565 157.124 L 577.865 177.515 L 576.398 148.044 L 537.565 157.124 L 537.565 157.124 Z " fill="rgb(238,55,39)"/><path d=" M 576.711 182.029 C 578.057 182.728 579.517 182.675 580.623 181.884 C 581.728 181.094 582.34 179.666 582.262 178.06 L 573.168 -0.77 C 573.135 -2.163 572.59 -3.566 571.665 -4.638 C 570.741 -5.71 569.523 -6.353 568.308 -6.408 C 568.084 -6.401 567.924 -6.423 567.735 -6.338 C 567.448 -6.303 567.099 -6.24 566.784 -6.099 C 566.407 -5.931 566.064 -5.684 565.755 -5.361 C 565.601 -5.199 565.447 -5.037 565.327 -4.797 L 473.985 123.335 C 473.129 124.462 472.963 126.117 473.432 127.674 C 473.901 129.231 474.972 130.612 476.338 131.303 L 576.711 182.029 Z  M 565.17 11.916 L 573.199 170.116 L 484.403 125.188 L 565.17 11.916 Z  M 500.868 292.634 L 495.821 286.242 L 490.573 279.569 L 489.798 287.633 L 489.044 295.408 L 482.841 298.087 L 476.45 300.851 L 483.095 305.413 L 489.447 309.826 L 490.717 317.906 L 491.965 326.274 L 496.864 321.016 L 501.644 315.998 L 508.562 318.299 L 515.773 320.748 L 512.212 312.948 L 508.755 305.381 L 511.85 298.791 L 515.031 291.883 L 507.886 292.287 L 500.868 292.634 L 500.868 292.634 Z  M 504.581 304.829 L 509.002 314.383 L 500.208 311.432 L 494.229 317.824 L 492.694 307.631 L 484.608 302.04 L 492.482 298.707 L 493.515 288.854 L 499.931 296.958 L 508.64 296.506 L 504.581 304.829 Z  M 551.655 287.324 L 547.846 282.517 L 542.598 275.844 L 541.822 283.908 L 541.257 289.739 L 536.628 291.715 L 530.236 294.479 L 536.881 299.04 L 541.694 302.375 L 542.573 308.398 L 543.822 316.766 L 548.721 311.508 L 552.232 307.707 L 557.47 309.458 L 564.681 311.907 L 561.12 304.107 L 558.528 298.478 L 560.85 293.535 L 564.065 286.705 L 556.921 287.109 L 551.655 287.324 L 551.655 287.324 Z  M 554.418 297.898 L 557.91 305.542 L 550.831 303.22 L 546.023 308.344 L 544.781 300.159 L 538.234 295.646 L 544.499 292.939 L 545.281 285.058 L 550.46 291.577 L 557.479 291.23 L 554.418 297.898 L 554.418 297.898 Z  M 603.518 232.717 L 599.708 227.911 L 594.46 221.237 L 593.685 229.301 L 593.12 235.133 L 588.49 237.109 L 582.099 239.872 L 588.744 244.434 L 593.557 247.769 L 594.436 253.792 L 595.684 262.16 L 600.583 256.902 L 604.095 253.101 L 609.332 254.851 L 616.544 257.3 L 612.982 249.501 L 610.391 243.871 L 612.712 238.929 L 615.928 232.099 L 608.783 232.502 L 603.518 232.717 L 603.518 232.717 Z  M 606.217 243.319 L 609.709 250.964 L 602.631 248.641 L 597.822 253.766 L 596.581 245.58 L 590.096 241.04 L 596.362 238.333 L 597.144 230.452 L 602.323 236.97 L 609.341 236.623 L 606.217 243.319 L 606.217 243.319 Z  M 407.255 241.491 L 412.068 244.826 L 412.948 250.848 L 414.196 259.217 L 419.095 253.959 L 422.607 250.158 L 427.844 251.908 L 435.055 254.357 L 431.494 246.558 L 428.903 240.928 L 431.224 235.985 L 434.439 229.156 L 427.295 229.559 L 422.127 229.823 L 418.318 225.017 L 413.07 218.343 L 412.294 226.407 L 411.729 232.239 L 407.1 234.215 L 400.708 236.979 L 407.255 241.491 L 407.255 241.491 Z  M 415.097 235.383 L 415.879 227.502 L 421.058 234.02 L 428.076 233.673 L 424.953 240.369 L 428.445 248.014 L 421.366 245.691 L 416.558 250.816 L 415.316 242.63 L 408.832 238.09 L 415.097 235.383 Z  M 415.523 182.1 L 416.403 188.123 L 417.651 196.491 L 422.55 191.233 L 426.062 187.432 L 431.299 189.182 L 438.51 191.631 L 434.949 183.832 L 432.358 178.203 L 434.679 173.26 L 437.894 166.43 L 430.75 166.833 L 425.582 167.097 L 421.773 162.291 L 416.525 155.618 L 415.686 163.71 L 415.121 169.541 L 410.492 171.517 L 404.1 174.281 L 410.745 178.843 L 415.523 182.1 Z  M 418.552 172.657 L 419.334 164.776 L 424.513 171.295 L 431.531 170.947 L 428.407 177.643 L 431.9 185.288 L 424.786 182.888 L 419.978 188.012 L 418.736 179.827 L 412.189 175.315 L 418.552 172.657 L 418.552 172.657 Z  M 543.76 176.392 C 542.379 176.023 541.156 176.938 540.988 178.468 C 538.885 205.737 543.788 234.353 555.121 260.949 C 555.779 262.421 557.277 263.239 558.508 262.782 C 559.704 262.248 560.191 260.635 559.596 259.134 C 548.723 233.961 543.914 205.798 546.024 179.937 C 546.162 178.387 545.148 176.795 543.76 176.392 Z  M 500.559 157.113 C 500.055 157.338 499.656 157.795 499.451 158.352 C 490.074 183.835 471.623 202.867 448.841 210.353 C 447.576 210.732 447.025 212.373 447.557 213.902 C 448.09 215.431 449.623 216.326 450.888 215.947 C 474.837 208.032 494.249 188.106 504.091 161.299 C 504.345 160.643 504.333 159.854 504.06 159.114 C 503.787 158.375 503.275 157.751 502.645 157.389 C 501.956 156.86 501.188 156.831 500.559 157.113 L 500.559 157.113 Z  M 494.071 269.823 C 495.569 270.641 497.212 270.093 497.763 268.452 L 527.96 174.155 C 528.447 172.543 527.707 170.549 526.174 169.654 C 525.359 169.181 524.528 169.18 523.836 169.49 C 523.206 169.771 522.744 170.257 522.483 171.024 L 492.286 265.321 C 491.833 267.011 492.636 268.977 494.071 269.823 L 494.071 269.823 Z  M 422.857 201.045 C 421.712 201.185 421.017 202.332 421.256 203.713 C 421.559 205.065 422.679 206.052 423.859 205.99 C 449.207 203.401 472.611 189.873 488.019 168.761 C 488.721 167.796 488.538 166.204 487.578 165.239 C 487.116 164.771 486.536 164.511 485.97 164.519 C 485.404 164.526 484.901 164.801 484.575 165.279 C 469.743 185.483 447.283 198.589 422.857 201.045 L 422.857 201.045 Z  M 501.948 206.516 C 501.293 206.065 500.553 205.93 499.924 206.212 C 499.546 206.38 499.238 206.704 499.027 207.077 C 487.123 232.481 469.988 254.459 449.458 270.701 C 449.018 271.031 448.745 271.576 448.7 272.21 C 448.656 272.844 448.844 273.513 449.223 274.06 C 449.582 274.622 450.106 275.026 450.672 275.176 C 451.238 275.327 451.798 275.212 452.222 274.858 C 473.186 258.236 490.721 235.801 502.83 209.841 C 503.469 208.905 503.062 207.319 501.948 206.516 Z  M 533.575 217.3 C 533.288 217.335 533.065 217.342 532.813 217.454 C 532.058 217.792 531.608 218.644 531.709 219.715 C 533.543 235.839 537.139 251.947 542.41 267.652 C 542.862 268.961 544.098 269.773 545.19 269.478 C 546.274 269.158 546.797 267.85 546.366 266.535 C 541.185 251.257 537.677 235.571 535.932 219.872 C 535.853 218.513 534.789 217.315 533.575 217.3 L 533.575 217.3 Z  M 562.483 189.224 C 562.404 187.865 561.34 186.667 560.125 186.652 C 559.804 186.609 559.552 186.722 559.301 186.834 C 558.545 187.172 558.095 188.024 558.162 189.017 C 559.48 204.537 563.69 220.066 570.506 234.547 C 571.095 235.864 572.426 236.478 573.461 235.922 C 574.531 235.444 574.865 233.993 574.213 232.704 C 567.824 218.916 563.758 203.903 562.483 189.224 L 562.483 189.224 Z " fill="rgb(71,70,71)"/></g><g><path d=" M 67.463 779.9 C 53.222 779.9 41.661 792.598 41.661 808.283 C 41.661 823.968 53.222 836.665 67.463 836.665 C 81.705 836.665 93.266 823.968 93.266 808.283 C 93.266 792.629 81.705 779.9 67.463 779.9 L 67.463 779.9 Z  M 63.61 787.182 C 57.008 790.388 52.116 796.643 50.843 803.459 C 50.709 804.144 50.072 804.61 49.368 804.61 C 49.268 804.61 49.201 804.61 49.1 804.579 C 48.286 804.437 47.738 803.722 47.86 802.961 C 49.301 795.305 54.797 788.272 62.202 784.662 C 62.558 784.487 62.973 784.451 63.357 784.562 C 63.741 784.673 64.061 784.922 64.247 785.253 C 64.615 785.969 64.347 786.809 63.61 787.182 L 63.61 787.182 Z " fill="rgb(238,55,39)"/><path d=" M 125 826.582 C 125 812.422 114.377 800.876 101.342 800.876 C 98.902 800.876 96.55 801.28 94.338 802.027 C 91.671 788.353 80.492 778.064 67.128 778.064 C 51.781 778.064 39.315 791.633 39.315 808.314 C 39.315 824.621 51.245 837.941 66.09 838.564 C 65.687 843.854 68.033 848.834 70.312 853.689 C 71.284 855.774 72.322 857.921 73.06 860.037 C 77.148 871.521 73.797 885.028 64.682 893.68 L 66.827 895.64 C 76.712 886.273 80.365 871.615 75.908 859.166 C 75.104 856.925 74.065 854.716 73.06 852.568 C 70.781 847.745 68.636 843.17 69.105 838.502 C 72.653 838.217 76.092 837.217 79.182 835.573 C 82.506 845.205 91.004 852.12 100.973 852.285 C 103.721 855.989 104.659 859.101 104.291 863.022 C 104.157 864.457 103.889 865.947 103.621 867.348 C 103.252 869.464 102.85 871.643 102.816 873.852 C 102.716 878.52 104.425 882.473 107.474 884.714 L 109.317 882.504 C 106.033 880.108 105.765 875.688 105.799 873.914 C 105.832 871.892 106.201 869.931 106.57 867.815 C 106.838 866.352 107.106 864.827 107.273 863.271 C 107.675 859.163 106.838 855.771 104.425 852.067 C 115.986 850.421 125 839.622 125 826.582 L 125 826.582 Z  M 78.173 831.786 C 74.869 833.724 71.113 834.829 67.128 834.829 C 54.026 834.829 43.336 822.941 43.336 808.314 C 43.336 793.687 54.026 781.799 67.128 781.799 C 78.823 781.799 88.591 791.275 90.552 803.714 C 90.773 805.096 90.897 806.515 90.914 807.959 L 90.92 808.314 C 90.92 810.159 90.75 811.958 90.424 813.698 C 89.793 817.162 88.496 820.492 86.594 823.529 C 85.294 825.603 83.682 827.496 81.809 829.15 C 80.691 830.135 79.474 831.018 78.173 831.786 L 78.173 831.786 Z  M 101.308 848.554 C 92.613 848.554 85.217 842.183 82.643 833.398 C 88.766 828.901 93.156 821.827 94.506 813.632 C 95.967 812.341 97.616 811.423 99.231 811.146 C 100.045 811.008 100.585 810.284 100.437 809.528 C 100.289 808.771 99.509 808.27 98.695 808.407 C 97.347 808.661 96.063 809.146 94.908 809.839 C 94.968 808.506 94.948 807.171 94.848 805.84 C 96.891 805.032 99.088 804.614 101.308 804.61 C 112.132 804.61 120.945 814.476 120.945 826.582 C 120.979 838.688 112.166 848.554 101.308 848.554 L 101.308 848.554 Z " fill="rgb(71,70,71)"/></g></g></g></svg>