<?xml version="1.0" encoding="UTF-8" standalone="no"?><!-- Generator: Gravit.io --><svg xmlns="http://www.w3.org/2000/svg" xmlns:xlink="http://www.w3.org/1999/xlink" style="isolation:isolate" viewBox="0 0 800 1200" width="800pt" height="1200pt"><defs><clipPath id="_clipPath_pwThLziSpGSUqUz9stwhLR2rEOYJ5az5"><rect width="800" height="1200"/></clipPath></defs><g clip-path="url(#_clipPath_pwThLziSpGSUqUz9stwhLR2rEOYJ5az5)"><defs><filter id="lb2M0VDOVdLQK4tENJQeXyCrolDb8vey" x="-200%" y="-200%" width="400%" height="400%" filterUnits="objectBoundingBox" color-interpolation-filters="sRGB"><feGaussianBlur xmlns="http://www.w3.org/2000/svg" in="SourceGraphic" stdDeviation="2.146804531419514"/><feOffset xmlns="http://www.w3.org/2000/svg" dx="11" dy="64" result="pf_100_offsetBlur"/><feFlood xmlns="http://www.w3.org/2000/svg" flood-color="#000000" flood-opacity="0.65"/><feComposite xmlns="http://www.w3.org/2000/svg" in2="pf_100_offsetBlur" operator="in" result="pf_100_dropShadow"/><feBlend xmlns="http://www.w3.org/2000/svg" in="SourceGraphic" in2="pf_100_dropShadow" mode="normal"/></filter></defs><g filter="url(#lb2M0VDOVdLQK4tENJQeXyCrolDb8vey)"><path d=" M 15 606 L 453 859 L 780 485 L 264 262 L 15 543 L 15 606 Z " fill="rgb(7,31,56)" vector-effect="non-scaling-stroke" stroke-width="1" stroke="rgb(0,0,0)" stroke-linejoin="miter" stroke-linecap="square" stroke-miterlimit="3"/></g><path d=" M 434 773 L 668 531 L 657 210 L 406 352 L 434 773 Z " fill="rgb(255,255,255)" vector-effect="non-scaling-stroke" stroke-width="1" stroke="rgb(0,0,0)" stroke-linejoin="miter" stroke-linecap="square" stroke-miterlimit="3"/><path d=" M 395 773 L 380 372 L 380 372 L 380 352 L 406 352 L 434 773 L 395 773 Z " fill="rgb(255,255,255)" vector-effect="non-scaling-stroke" stroke-width="1" stroke="rgb(0,0,0)" stroke-linejoin="miter" stroke-linecap="square" stroke-miterlimit="3"/><path d=" M 453 874 L 453 926 L 15 640 L 15 606 L 453 874 Z " fill="rgb(7,31,56)" vector-effect="non-scaling-stroke" stroke-width="1" stroke="rgb(0,0,0)" stroke-linejoin="miter" stroke-linecap="square" stroke-miterlimit="3"/><path d=" M 780 485 L 780 543 L 453 926 L 453 859 L 780 485 Z " fill="rgb(7,31,56)" vector-effect="non-scaling-stroke" stroke-width="1" stroke="rgb(7,31,56)" stroke-linejoin="miter" stroke-linecap="square" stroke-miterlimit="3"/><path d=" M 101 587.5 L 292 708.5 L 292 501.5 L 126 416.5 L 101 416.5 L 101 587.5 Z " fill="rgb(255,255,255)" vector-effect="non-scaling-stroke" stroke-width="1" stroke="rgb(0,0,0)" stroke-linejoin="miter" stroke-linecap="square" stroke-miterlimit="3"/><path d=" M 348 332.295 L 264 478.848 L 189 442 L 238 455 L 348 332.295 Z " fill="rgb(0,255,255)" vector-effect="non-scaling-stroke" stroke-width="1" stroke="rgb(0,0,0)" stroke-linejoin="miter" stroke-linecap="square" stroke-miterlimit="3"/><path d=" M 406 352 L 406 478.848 L 264 513 L 264 478.848 L 406 352 Z " fill="rgb(255,255,255)" vector-effect="non-scaling-stroke" stroke-width="1" stroke="rgb(0,0,0)" stroke-linejoin="miter" stroke-linecap="square" stroke-miterlimit="3"/><path d=" M 406 352 L 176.709 270.755 L 152 262 L 73 384 L 73 430 L 264 513 L 264 485 L 73 384 L 152 262 L 406 352 Z " fill="rgb(255,255,255)" vector-effect="non-scaling-stroke" stroke-width="1" stroke="rgb(0,0,0)" stroke-linejoin="miter" stroke-linecap="square" stroke-miterlimit="3"/><path d=" M 176.709 183 L 178 266 L 395 352 L 395 262 L 348 236 Q 342.704 194.169 326 183 Q 309.296 171.831 251 163 L 226 183 L 176.709 183 Z " fill="rgb(7,31,56)" vector-effect="non-scaling-stroke" stroke-width="1" stroke="rgb(0,0,0)" stroke-linejoin="miter" stroke-linecap="square" stroke-miterlimit="3"/><path d=" M 251 163 L 176.709 163 L 178 183 L 226 183 L 251 163 Z " fill="rgb(22,33,70)" vector-effect="non-scaling-stroke" stroke-width="1" stroke="rgb(0,0,0)" stroke-linejoin="miter" stroke-linecap="square" stroke-miterlimit="3"/><path d=" M 394.082 262 L 421.799 265.973 L 412.292 332.295 L 392.201 352.65 L 394.082 262 Z " fill="rgb(255,255,255)" vector-effect="non-scaling-stroke" stroke-width="1" stroke="rgb(0,0,0)" stroke-linejoin="miter" stroke-linecap="square" stroke-miterlimit="3"/><path d=" M 406 289.194 L 364.201 244.194 L 332.201 186.194 Q 318.68 163.581 293.201 163.194 Q 267.722 162.806 248.201 163.194 L 248.201 186.194 L 276.201 186.194 Q 319.201 210.919 304.201 206.194 Q 289.201 201.468 332.201 233.194 L 332.201 244.194 L 332.201 259.194 L 376.402 285.194 L 406 289.194 Z " fill="rgb(22,33,70)" vector-effect="non-scaling-stroke" stroke-width="1" stroke="rgb(0,0,0)" stroke-linejoin="miter" stroke-linecap="square" stroke-miterlimit="3"/><path d=" M 272.255 165.273 L 313.518 39.999 L 697.939 167.337 L 446.618 402.191 L 422.465 431.999 L 405.973 409.736 L 418.922 381.782 L 641.888 178.892 L 349.894 79.977 L 303.394 158.854 L 309.23 187.163 L 329.874 208.57 L 357.162 251.705 L 391.254 280.605 L 411.967 298.149 L 421.356 343.69 L 418.922 381.782 L 405.973 409.736 L 428.997 430.653 L 446.453 401.391 L 700.73 180.876 L 313.518 39.999 L 272.255 165.273 Z " fill="rgb(7,31,56)" vector-effect="non-scaling-stroke" stroke-width="23" stroke="rgb(0,255,255)" stroke-linejoin="miter" stroke-linecap="square" stroke-miterlimit="3"/><path d=" M 126 455 L 126 531 L 226 587.5 L 226 513 L 226 501.5 L 126 455 Z " fill="rgb(0,255,255)" vector-effect="non-scaling-stroke" stroke-width="1" stroke="rgb(0,0,0)" stroke-linejoin="miter" stroke-linecap="square" stroke-miterlimit="3"/><path d=" M 522 384 L 558 372 L 558 501.5 L 522 478.848 L 522 384 Z " fill="rgb(101,101,125)" vector-effect="non-scaling-stroke" stroke-width="1" stroke="rgb(0,0,0)" stroke-linejoin="miter" stroke-linecap="square" stroke-miterlimit="3"/><path d=" M 292 513 L 380 485 L 392.201 726 L 292 692 L 292 513 Z " fill="rgb(0,255,255)" vector-effect="non-scaling-stroke" stroke-width="1" stroke="rgb(0,0,0)" stroke-linejoin="miter" stroke-linecap="square" stroke-miterlimit="3"/><path d=" M 434 430 L 555.847 364.587 L 616 332.295 L 634 316 L 634 416.5 L 634 455 L 570.929 492.633 L 453 563 L 434 430 Z " fill="rgb(0,255,255)" vector-effect="non-scaling-stroke" stroke-width="1" stroke="rgb(0,0,0)" stroke-linejoin="miter" stroke-linecap="square" stroke-miterlimit="3"/><path d=" M 541 484.952 L 537 367.509 L 558 352.65 L 558 513 L 541 484.952 Z " fill="rgb(7,31,56)" vector-effect="non-scaling-stroke" stroke-width="1" stroke="rgb(0,0,0)" stroke-linejoin="miter" stroke-linecap="square" stroke-miterlimit="3"/><path d=" M 73 384 L 101 397 L 101 442 L 73 430 L 73 384 Z " fill="rgb(0,255,255)" vector-effect="non-scaling-stroke" stroke-width="1" stroke="rgb(0,0,0)" stroke-linejoin="miter" stroke-linecap="square" stroke-miterlimit="3"/><path d=" M 126 416.5 L 101 397 L 101 442 L 126 455 L 126 416.5 Z " fill="rgb(255,255,255)" vector-effect="non-scaling-stroke" stroke-width="1" stroke="rgb(0,0,0)" stroke-linejoin="miter" stroke-linecap="square" stroke-miterlimit="3"/><path d=" M 126 416.5 L 152 430 L 152 455 L 126 455 L 126 416.5 Z " fill="rgb(0,255,255)" vector-effect="non-scaling-stroke" stroke-width="1" stroke="rgb(0,0,0)" stroke-linejoin="miter" stroke-linecap="square" stroke-miterlimit="3"/><path d=" M 178 442 L 176.709 478.848 L 152 455 L 152 430 L 178 442 Z " fill="rgb(255,255,255)" vector-effect="non-scaling-stroke" stroke-width="1" stroke="rgb(0,0,0)" stroke-linejoin="miter" stroke-linecap="square" stroke-miterlimit="3"/><path d=" M 206 455 L 204 485 L 176.709 478.848 L 176.709 442 L 206 455 Z " fill="rgb(0,255,255)" vector-effect="non-scaling-stroke" stroke-width="1" stroke="rgb(0,0,0)" stroke-linejoin="miter" stroke-linecap="square" stroke-miterlimit="3"/><line x1="226" y1="485" x2="206" y2="485" vector-effect="non-scaling-stroke" stroke-width="1" stroke="rgb(0,0,0)" stroke-linejoin="miter" stroke-linecap="square" stroke-miterlimit="3"/><path d=" M 226 501.5 L 204 485 L 204 455 L 226 455 L 226 501.5 Z " fill="rgb(255,255,255)" vector-effect="non-scaling-stroke" stroke-width="1" stroke="rgb(0,0,0)" stroke-linejoin="miter" stroke-linecap="square" stroke-miterlimit="3"/><path d=" M 251 501.5 L 251 478.848 L 226 466 L 226 485 L 251 501.5 Z " fill="rgb(0,255,255)" vector-effect="non-scaling-stroke" stroke-width="1" stroke="rgb(0,0,0)" stroke-linejoin="miter" stroke-linecap="square" stroke-miterlimit="3"/><path d=" M 152 265.973 L 73 372 L 73 384 L 126 416.5 L 226 303 L 226 292 L 152 265.973 Z " fill="rgb(0,255,255)" vector-effect="non-scaling-stroke" stroke-width="1" stroke="rgb(0,0,0)" stroke-linejoin="miter" stroke-linecap="square" stroke-miterlimit="3"/><path d=" M 292 316 L 189 442 L 126 416.5 L 238 292 L 292 316 Z " fill="rgb(255,255,255)" vector-effect="non-scaling-stroke" stroke-width="1" stroke="rgb(0,0,0)" stroke-linejoin="miter" stroke-linecap="square" stroke-miterlimit="3"/><path d=" M 348 332.295 L 238 455 L 204 442 L 189 442 L 292 316 L 348 332.295 Z " fill="rgb(0,255,255)" vector-effect="non-scaling-stroke" stroke-width="1" stroke="rgb(0,0,0)" stroke-linejoin="miter" stroke-linecap="square" stroke-miterlimit="3"/><path d=" M 264 478.848 L 348 332.295 L 380 352.65 L 392.201 372 L 264 478.848 Z " fill="rgb(255,255,255)" vector-effect="non-scaling-stroke" stroke-width="1" stroke="rgb(0,0,0)" stroke-linejoin="miter" stroke-linecap="square" stroke-miterlimit="3"/><path d=" M 313.518 60 L 348 62 L 303.394 146 L 292 158.854 L 313.518 60 Z " fill="rgb(0,255,255)"/><path d=" M 395 303 L 391.254 364.587 L 405.973 343.69 L 395 303 Z " fill="rgb(0,255,255)" vector-effect="non-scaling-stroke" stroke-width="1" stroke="rgb(0,0,0)" stroke-linejoin="miter" stroke-linecap="square" stroke-miterlimit="3"/><path d=" M 657 178.892 L 644.229 190.638 L 586 244.194 L 597 251.705 L 657 178.892 Z " fill="rgb(0,255,255)"/><path d=" M 570.929 244.194 L 597 251.705 L 434 409.736 L 412.292 401.391 L 570.929 244.194 Z " fill="rgb(0,255,255)"/><path d=" M 657 167.337 L 616 210 L 634 233.194 L 657 190.638 L 657 167.337 Z " fill="rgb(0,255,255)"/><g clip-path="url(#_clipPath_2HrY2FFRWY0jk4i0wEEGuMPQc2mJj7Px)"><text transform="matrix(0.914,0.405,-0.405,0.914,188.172,248.159)" style="font-family:'Rammetto One';font-weight:400;font-size:40px;font-style:normal;fill:#ffffff;stroke:none;">STORE</text></g><defs><clipPath id="_clipPath_2HrY2FFRWY0jk4i0wEEGuMPQc2mJj7Px"><rect x="0" y="0" width="398.514" height="90.772" transform="matrix(0.914,0.405,-0.405,0.914,87.05,151.291)"/></clipPath></defs><path d=" M 446.618 859 L 41 606 L 41 640 L 453 898 L 446.618 859 Z " fill="rgb(7,31,56)" vector-effect="non-scaling-stroke" stroke-width="1" stroke="rgb(0,0,0)" stroke-linejoin="miter" stroke-linecap="square" stroke-miterlimit="3"/></g></svg>