<?xml version="1.0" encoding="UTF-8" standalone="no"?><!-- Generator: Gravit.io --><svg xmlns="http://www.w3.org/2000/svg" xmlns:xlink="http://www.w3.org/1999/xlink" style="isolation:isolate" viewBox="0 0 800 1200" width="800pt" height="1200pt"><defs><clipPath id="_clipPath_sNnR7VkUD8XTJPxn3aSKhblNmDPKg17h"><rect width="800" height="1200"/></clipPath></defs><g clip-path="url(#_clipPath_sNnR7VkUD8XTJPxn3aSKhblNmDPKg17h)"><g><defs><filter id="LtpqRZPTgUk43VkhZnhgotP9z3MsSyhQ" x="-200%" y="-200%" width="400%" height="400%" filterUnits="objectBoundingBox" color-interpolation-filters="sRGB"><feGaussianBlur xmlns="http://www.w3.org/2000/svg" stdDeviation="11.549808379036985"/></filter></defs><g filter="url(#LtpqRZPTgUk43VkhZnhgotP9z3MsSyhQ)"><linearGradient id="_lgradient_1" x1="0.387765346246377" y1="-0.09027457093464394" x2="0.5431266204896561" y2="1.223787378103661" gradientTransform="matrix(737.249,-594.288,685.094,849.9,-282.55,467.165)" gradientUnits="userSpaceOnUse"><stop offset="2.083333333333333%" stop-opacity="1" style="stop-color:rgb(7,31,56)"/><stop offset="97.5%" stop-opacity="1" style="stop-color:rgb(162,162,162)"/></linearGradient><path d=" M 59.997 892.115 C -129.06 657.579 -117.375 334.019 86.075 170.021 C 289.524 6.023 608.189 63.291 797.246 297.827 C 986.303 532.363 974.618 855.922 771.169 1019.921 C 567.719 1183.919 249.054 1126.651 59.997 892.115 Z " fill="url(#_lgradient_1)"/></g><path d="M 22.537 261.134 L 556.572 106.702 C 565.978 103.982 575.824 109.41 578.544 118.817 L 782.868 825.373 C 785.588 834.78 780.16 844.625 770.753 847.346 L 236.718 1001.778 C 227.312 1004.498 217.466 999.07 214.746 989.663 L 10.422 283.107 C 7.702 273.7 13.13 263.855 22.537 261.134 Z" style="stroke:none;fill:#FFFFFF;stroke-miterlimit:10;"/><path d="M 166.985 631.91 L 600.325 480.421 C 602.654 479.607 605.205 480.837 606.019 483.165 L 625.759 539.636 C 626.573 541.965 625.343 544.516 623.015 545.33 L 189.675 696.819 C 187.346 697.633 184.795 696.403 183.981 694.075 L 164.241 637.604 C 163.427 635.275 164.657 632.724 166.985 631.91 Z" style="stroke:none;fill:#EBEBEB;stroke-miterlimit:10;"/><line x1="541.219" y1="380" x2="587.555" y2="357"/><rect x="29.275" y="209.524" width="531.67" height="59.383" transform="matrix(-0.958,0.287,-0.287,-0.958,646.487,383.602)" fill="rgb(232,232,232)"/><defs><filter id="t3zXkWEmt0BgNBYM1DmtpSCglY6FgFVM" x="-200%" y="-200%" width="400%" height="400%" filterUnits="objectBoundingBox" color-interpolation-filters="sRGB"><feGaussianBlur xmlns="http://www.w3.org/2000/svg" in="SourceGraphic" stdDeviation="2.146804531419514"/><feOffset xmlns="http://www.w3.org/2000/svg" dx="15" dy="0" result="pf_100_offsetBlur"/><feFlood xmlns="http://www.w3.org/2000/svg" flood-color="#000000" flood-opacity="0.65"/><feComposite xmlns="http://www.w3.org/2000/svg" in2="pf_100_offsetBlur" operator="in" result="pf_100_dropShadow"/><feBlend xmlns="http://www.w3.org/2000/svg" in="SourceGraphic" in2="pf_100_dropShadow" mode="normal"/><feGaussianBlur xmlns="http://www.w3.org/2000/svg" stdDeviation="2.146804531419514"/></filter></defs><g filter="url(#t3zXkWEmt0BgNBYM1DmtpSCglY6FgFVM)"><rect x="84.411" y="385.48" width="523.246" height="79.568" transform="matrix(0.964,-0.267,0.267,0.964,-100.932,107.757)" fill="rgb(255,255,255)"/></g><rect x="555.329" y="341.08" width="31.457" height="57.128" transform="matrix(0.928,-0.374,0.374,0.928,-96.767,240.206)" fill="rgb(232,232,232)"/><g clip-path="url(#_clipPath_xmgS5cSUxYsqQJSTzq9HTPzJlhchAaPE)"><text transform="matrix(0.963,-0.269,0.269,0.963,143.295,511.494)" style="font-family:'Open Sans';font-weight:400;font-size:24px;font-style:normal;fill:#000000;stroke:none;">We are THE low-fare airline</text></g><defs><clipPath id="_clipPath_xmgS5cSUxYsqQJSTzq9HTPzJlhchAaPE"><rect x="0" y="0" width="396.55" height="29.658" transform="matrix(0.963,-0.269,0.269,0.963,136.387,486.789)"/></clipPath></defs><path d="M 250.688 869.937 L 680.142 719.817 C 683.545 718.627 687.274 720.425 688.464 723.828 L 706.843 776.401 C 708.033 779.804 706.235 783.533 702.832 784.723 L 273.378 934.843 C 269.975 936.033 266.246 934.235 265.056 930.832 L 246.677 878.259 C 245.487 874.856 247.285 871.127 250.688 869.937 Z" style="stroke:none;fill:#EBEBEB;stroke-miterlimit:10;"/><path d="M 208.339 744.097 L 636.492 594.426 C 640.253 593.111 644.374 595.097 645.689 598.859 L 663.614 650.136 C 664.929 653.897 662.943 658.018 659.181 659.333 L 231.028 809.004 C 227.267 810.319 223.146 808.333 221.831 804.571 L 203.906 753.294 C 202.591 749.533 204.577 745.412 208.339 744.097 Z" style="stroke:none;fill:#EBEBEB;stroke-miterlimit:10;"/><path d=" M 188.856 669.241 C 183.901 662.609 186.02 652.636 193.586 646.983 C 201.152 641.331 211.317 642.127 216.272 648.759 C 221.227 655.391 219.107 665.364 211.542 671.017 C 203.976 676.669 193.811 675.873 188.856 669.241 Z " fill="rgb(255,255,255)"/><path d=" M 232.606 775.385 C 227.651 768.753 229.771 758.78 237.336 753.127 C 244.902 747.475 255.067 748.27 260.022 754.903 C 264.977 761.535 262.857 771.508 255.292 777.16 C 247.726 782.813 237.561 782.017 232.606 775.385 Z " fill="rgb(255,255,255)"/><path d=" M 268.248 898.12 C 263.293 891.488 265.413 881.514 272.978 875.862 C 280.544 870.21 290.709 871.005 295.664 877.637 C 300.619 884.269 298.499 894.243 290.934 899.895 C 283.368 905.547 273.203 904.752 268.248 898.12 Z " fill="rgb(255,255,255)"/><rect x="221.167" y="576.28" width="311.959" height="34.805" transform="matrix(0.942,-0.336,0.336,0.942,-177.729,161.465)" fill="rgb(255,255,255)"/><rect x="262.335" y="684.313" width="311.959" height="34.805" transform="matrix(0.942,-0.336,0.336,0.942,-211.671,181.609)" fill="rgb(255,255,255)"/><rect x="300.063" y="809.926" width="311.959" height="34.805" transform="matrix(0.942,-0.336,0.336,0.942,-251.727,201.621)" fill="rgb(255,255,255)"/></g></g></svg>