<?xml version="1.0" encoding="UTF-8" standalone="no"?><!-- Generator: Gravit.io --><svg xmlns="http://www.w3.org/2000/svg" xmlns:xlink="http://www.w3.org/1999/xlink" style="isolation:isolate" viewBox="0 0 800 1200" width="800pt" height="1200pt"><defs><clipPath id="_clipPath_dP84AeAfmlwwqtjdChMyKJ9fd8BppuJZ"><rect width="800" height="1200"/></clipPath></defs><g clip-path="url(#_clipPath_dP84AeAfmlwwqtjdChMyKJ9fd8BppuJZ)"><g><path d=" M 302.425 134.604 C 347.719 113.627 447.407 226.425 527.007 328.207 C 606.608 429.989 667.24 522.126 714.266 623.082 C 761.292 724.039 794.295 834.156 772.149 901.341 C 749.586 968.865 670.898 993.112 588.616 988.313 C 505.917 983.854 419.625 950.349 324.095 903.825 C 228.149 857.642 122.548 798.779 61.943 713.473 C 1.897 628.853 -13.427 519.155 29.263 472.893 C 71.953 426.631 172.657 443.806 218.883 376.385 C 264.966 307.938 256.57 154.896 302.425 134.604 Z " fill="rgb(232,51,51)"/><defs><filter id="ITRk5kHIh4mGaQlZXTlbOaAFmOagop65" x="-200%" y="-200%" width="400%" height="400%" filterUnits="objectBoundingBox" color-interpolation-filters="sRGB"><feGaussianBlur xmlns="http://www.w3.org/2000/svg" in="SourceGraphic" stdDeviation="2.146804531419514"/><feOffset xmlns="http://www.w3.org/2000/svg" dx="0" dy="0" result="pf_100_offsetBlur"/><feFlood xmlns="http://www.w3.org/2000/svg" flood-color="#000000" flood-opacity="0.65"/><feComposite xmlns="http://www.w3.org/2000/svg" in2="pf_100_offsetBlur" operator="in" result="pf_100_dropShadow"/><feBlend xmlns="http://www.w3.org/2000/svg" in="SourceGraphic" in2="pf_100_dropShadow" mode="normal"/></filter></defs><g filter="url(#ITRk5kHIh4mGaQlZXTlbOaAFmOagop65)"><path d="M 56.285 460 L 617.715 460 C 638.845 460 656 477.155 656 498.285 L 656 1010.715 C 656 1031.845 638.845 1049 617.715 1049 L 56.285 1049 C 35.155 1049 18 1031.845 18 1010.715 L 18 498.285 C 18 477.155 35.155 460 56.285 460 Z" style="stroke:none;fill:#14142D;stroke-miterlimit:10;"/></g><ellipse vector-effect="non-scaling-stroke" cx="382.26808182534086" cy="767.5000000000001" rx="66.5" ry="70.90895149785422" fill="rgb(232,51,51)"/><path d=" M 365.742 788.503 L 365.47 767.5 L 365.197 746.497 C 365.097 738.769 370.49 735.561 377.233 739.339 L 395.558 749.604 L 413.884 759.87 C 420.626 763.647 420.708 769.921 414.065 773.872 L 396.012 784.609 L 377.959 795.347 C 371.317 799.298 365.842 796.231 365.742 788.503 Z " fill="rgb(255,255,255)"/><path d="M 25.986 951 L 444.974 951 C 446.561 951 447.85 952.289 447.85 953.876 L 447.85 963.124 C 447.85 964.711 446.561 966 444.974 966 L 25.986 966 C 24.399 966 23.11 964.711 23.11 963.124 L 23.11 953.876 C 23.11 952.289 24.399 951 25.986 951 Z" style="stroke:none;fill:#D1D1D1;stroke-miterlimit:10;"/><path d=" M 337 1042.743 L 337.11 1018.925 L 337.219 995.107 C 337.229 992.967 338.646 992.247 340.381 993.499 L 357.001 1005.495 L 373.62 1017.49 C 375.356 1018.743 375.325 1020.732 373.551 1021.929 L 356.873 1033.19 L 340.196 1044.451 C 338.422 1045.648 336.99 1044.883 337 1042.743 Z " fill="rgb(232,232,232)"/><path d=" M 283.621 1036.739 L 283.528 1016.522 L 283.435 996.304 C 283.416 992.177 280.684 990.788 277.337 993.203 L 263.637 1003.091 L 249.937 1012.98 C 246.59 1015.395 246.65 1019.231 250.071 1021.541 L 263.764 1030.787 L 277.458 1040.033 C 280.879 1042.342 283.64 1040.866 283.621 1036.739 Z " fill="rgb(209,209,209)"/><path d=" M 419.846 996.423 L 420.084 1017.646 L 420.323 1038.869 C 420.346 1040.977 421.83 1041.802 423.633 1040.711 L 441.502 1029.894 L 459.371 1019.076 C 461.175 1017.985 461.153 1016.249 459.323 1015.202 L 441.221 1004.851 L 423.119 994.5 C 421.289 993.453 419.822 994.315 419.846 996.423 Z " fill="rgb(232,232,232)"/><path d="M 239.377 980.93 L 243.573 980.93 C 245.724 980.93 247.47 982.675 247.47 984.825 L 247.47 1037.135 C 247.47 1039.285 245.724 1041.03 243.573 1041.03 L 239.377 1041.03 C 237.226 1041.03 235.48 1039.285 235.48 1037.135 L 235.48 984.825 C 235.48 982.675 237.226 980.93 239.377 980.93 Z" style="stroke:none;fill:#E8E8E8;stroke-miterlimit:10;"/><path d="M 463.927 981.02 L 469.563 981.02 C 471.316 981.02 472.74 982.443 472.74 984.196 L 472.74 1037.944 C 472.74 1039.697 471.316 1041.12 469.563 1041.12 L 463.927 1041.12 C 462.174 1041.12 460.75 1039.697 460.75 1037.944 L 460.75 984.196 C 460.75 982.443 462.174 981.02 463.927 981.02 Z" style="stroke:none;fill:#E8E8E8;stroke-miterlimit:10;"/><defs><filter id="AYTiL1J2U3nQ20fmR8Znj7LBFzvWA04U" x="-200%" y="-200%" width="400%" height="400%" filterUnits="objectBoundingBox" color-interpolation-filters="sRGB"><feGaussianBlur xmlns="http://www.w3.org/2000/svg" in="SourceGraphic" stdDeviation="2.146804531419514"/><feOffset xmlns="http://www.w3.org/2000/svg" dx="5" dy="5" result="pf_100_offsetBlur"/><feFlood xmlns="http://www.w3.org/2000/svg" flood-color="#000000" flood-opacity="0.65"/><feComposite xmlns="http://www.w3.org/2000/svg" in2="pf_100_offsetBlur" operator="in" result="pf_100_dropShadow"/><feBlend xmlns="http://www.w3.org/2000/svg" in="SourceGraphic" in2="pf_100_dropShadow" mode="normal"/></filter></defs><g filter="url(#AYTiL1J2U3nQ20fmR8Znj7LBFzvWA04U)"><path d="M 317.43 307.88 L 643.67 307.88 C 650.475 307.88 656 313.405 656 320.21 L 656 432.55 C 656 439.355 650.475 444.88 643.67 444.88 L 317.43 444.88 C 310.625 444.88 305.1 439.355 305.1 432.55 L 305.1 320.21 C 305.1 313.405 310.625 307.88 317.43 307.88 Z" style="stroke:none;fill:#FFFFFF;stroke-miterlimit:10;"/></g><defs><filter id="cY875RGoxU1f4ZyJoSOc8Jyknr6BVut1" x="-200%" y="-200%" width="400%" height="400%" filterUnits="objectBoundingBox" color-interpolation-filters="sRGB"><feGaussianBlur xmlns="http://www.w3.org/2000/svg" in="SourceGraphic" stdDeviation="2.146804531419514"/><feOffset xmlns="http://www.w3.org/2000/svg" dx="2" dy="6" result="pf_100_offsetBlur"/><feFlood xmlns="http://www.w3.org/2000/svg" flood-color="#000000" flood-opacity="0.65"/><feComposite xmlns="http://www.w3.org/2000/svg" in2="pf_100_offsetBlur" operator="in" result="pf_100_dropShadow"/><feBlend xmlns="http://www.w3.org/2000/svg" in="SourceGraphic" in2="pf_100_dropShadow" mode="normal"/></filter></defs><g filter="url(#cY875RGoxU1f4ZyJoSOc8Jyknr6BVut1)"><path d="M 387.23 472.89 L 713.48 472.89 C 720.285 472.89 725.81 478.415 725.81 485.22 L 725.81 597.56 C 725.81 604.365 720.285 609.89 713.48 609.89 L 387.23 609.89 C 380.425 609.89 374.9 604.365 374.9 597.56 L 374.9 485.22 C 374.9 478.415 380.425 472.89 387.23 472.89 Z" style="stroke:none;fill:#FFFFFF;stroke-miterlimit:10;"/></g><g clip-path="url(#_clipPath_FnlaSF0vcXAlbRWqKHMxySvau5UJHE0H)"><text transform="matrix(1,0,0,1,428.895,391.519)" style="font-family:'Passion One';font-weight:400;font-size:70px;font-style:normal;fill:#2e2e2e;stroke:none;">Youtube</text></g><defs><clipPath id="_clipPath_FnlaSF0vcXAlbRWqKHMxySvau5UJHE0H"><rect x="0" y="0" width="218" height="77.07" transform="matrix(1,0,0,1,428.895,333.069)"/></clipPath></defs><defs><filter id="Fv4JhyjZiXTMWU381fAc6V8gW1JhDRBZ" x="-200%" y="-200%" width="400%" height="400%" filterUnits="objectBoundingBox" color-interpolation-filters="sRGB"><feGaussianBlur xmlns="http://www.w3.org/2000/svg" in="SourceGraphic" stdDeviation="2.146804531419514"/><feOffset xmlns="http://www.w3.org/2000/svg" dx="2" dy="6" result="pf_100_offsetBlur"/><feFlood xmlns="http://www.w3.org/2000/svg" flood-color="#000000" flood-opacity="0.65"/><feComposite xmlns="http://www.w3.org/2000/svg" in2="pf_100_offsetBlur" operator="in" result="pf_100_dropShadow"/><feBlend xmlns="http://www.w3.org/2000/svg" in="SourceGraphic" in2="pf_100_dropShadow" mode="normal"/></filter></defs><g filter="url(#Fv4JhyjZiXTMWU381fAc6V8gW1JhDRBZ)"><path d="M 466.112 659 L 767.848 659 C 774.113 659 779.2 664.087 779.2 670.352 L 779.2 773.258 C 779.2 779.523 774.113 784.61 767.848 784.61 L 466.112 784.61 C 459.847 784.61 454.76 779.523 454.76 773.258 L 454.76 670.352 C 454.76 664.087 459.847 659 466.112 659 Z" style="stroke:none;fill:#FFFFFF;stroke-miterlimit:10;"/></g><g><path d=" M 417.15 400.239 C 416.333 406.3 412.88 410.952 408.563 411.812 C 401.815 413.258 390.57 415 377.893 415 C 367.629 414.962 357.381 413.896 347.223 411.812 C 342.906 410.952 339.453 406.3 338.636 400.239 C 337.816 393.597 337 383.755 337 371.604 C 337 359.453 337.814 349.61 338.636 342.968 C 339.453 336.908 342.906 332.255 347.223 331.395 C 353.971 329.949 365.216 328.207 377.893 328.207 C 390.57 328.207 401.615 329.949 408.563 331.395 C 412.88 332.255 416.333 336.908 417.15 342.968 C 417.972 349.61 418.994 359.456 418.994 371.604 C 418.786 383.755 417.972 393.597 417.148 400.239 L 417.15 400.239 Z " fill="rgb(255,61,0)"/><path d=" M 369.714 391.855 L 369.714 351.352 L 394.25 371.604 L 369.714 391.855 Z " fill="rgb(255,255,255)"/></g><g clip-path="url(#_clipPath_j4CkFmWjS2mqkzBuG6TZ95ETjfCeUK2x)"><text transform="matrix(1,0,0,1,480.548,569.628)" style="font-family:'Seaweed Script';font-weight:400;font-size:70px;font-style:normal;fill:#4a86e8;stroke:none;">Vimeo</text></g><defs><clipPath id="_clipPath_j4CkFmWjS2mqkzBuG6TZ95ETjfCeUK2x"><rect x="0" y="0" width="153" height="95.02" transform="matrix(1,0,0,1,480.548,503.388)"/></clipPath></defs><path d=" M 460.731 517.252 C 460.384 527.734 455.537 541.803 445.838 559.709 C 435.971 578.645 427.659 587.846 420.733 587.846 C 416.581 587.846 412.942 582.221 410.001 570.711 C 408.101 560.231 406.019 549.738 404.118 539.248 C 401.865 527.737 399.613 522.109 397.192 522.109 C 396.671 522.112 394.763 523.391 391.477 526.716 L 388.014 520.833 C 391.654 516.224 394.94 512.908 398.402 508.299 C 403.25 502.155 406.713 499.09 409.137 498.84 C 414.85 498.07 418.313 503.695 419.525 515.714 C 420.91 528.765 422.122 535.669 422.641 538.736 C 424.196 549.48 426.104 555.115 428.012 555.115 C 429.567 555.115 431.819 551.526 434.937 544.622 C 438.047 537.46 439.61 532.344 439.778 528.507 C 440.299 522.368 438.568 519.303 434.937 519.303 C 433.206 519.303 431.298 520.582 429.39 521.6 C 433.029 504.462 439.955 495.509 449.998 496.021 C 457.612 496.282 461.075 503.434 460.731 517.252 Z " fill="rgb(41,182,246)"/><g clip-path="url(#_clipPath_ZkMp0pd3bz1N0BGzj0YCUVK0sfC2gWf0)"><text transform="matrix(1,0,0,1,469.968,737.455)" style="font-family:'Passero One';font-weight:400;font-size:60px;font-style:normal;fill:#008cff;stroke:none;">Dailymotion</text></g><defs><clipPath id="_clipPath_ZkMp0pd3bz1N0BGzj0YCUVK0sfC2gWf0"><rect x="0" y="0" width="294.022" height="75.34" transform="matrix(1,0,0,1,469.968,684.135)"/></clipPath></defs></g></g></svg>