<?xml version="1.0" encoding="UTF-8" standalone="no"?><!-- Generator: Gravit.io --><svg xmlns="http://www.w3.org/2000/svg" xmlns:xlink="http://www.w3.org/1999/xlink" style="isolation:isolate" viewBox="-67.869 292 680 705" width="680pt" height="705pt"><g><defs><filter id="6BmIlULKIRjQTfcYwoPuXg5A8Ck7lG87" x="-200%" y="-200%" width="400%" height="400%" filterUnits="objectBoundingBox" color-interpolation-filters="sRGB"><feGaussianBlur xmlns="http://www.w3.org/2000/svg" in="SourceGraphic" stdDeviation="2.146804531419514"/><feOffset xmlns="http://www.w3.org/2000/svg" dx="0" dy="0" result="pf_100_offsetBlur"/><feFlood xmlns="http://www.w3.org/2000/svg" flood-color="#000000" flood-opacity="0.65"/><feComposite xmlns="http://www.w3.org/2000/svg" in2="pf_100_offsetBlur" operator="in" result="pf_100_dropShadow"/><feBlend xmlns="http://www.w3.org/2000/svg" in="SourceGraphic" in2="pf_100_dropShadow" mode="normal"/><feGaussianBlur xmlns="http://www.w3.org/2000/svg" stdDeviation="21.46804531419514" result="_out_k1o8EVPTdDhbYdrmwDH57ab43jxomj4n"/><feGaussianBlur xmlns="http://www.w3.org/2000/svg" stdDeviation="21.46804531419514" in="_out_k1o8EVPTdDhbYdrmwDH57ab43jxomj4n"/></filter></defs><g filter="url(#6BmIlULKIRjQTfcYwoPuXg5A8Ck7lG87)"><linearGradient id="_lgradient_1" x1="0" y1="0.5" x2="1" y2="0.5" gradientTransform="matrix(566,0,0,591,-10.869,349)" gradientUnits="userSpaceOnUse"><stop offset="21.666666666666668%" stop-opacity="1" style="stop-color:rgb(145,213,238)"/><stop offset="80%" stop-opacity="1" style="stop-color:rgb(7,31,56)"/><stop offset="98.33333333333333%" stop-opacity="1" style="stop-color:rgb(0,0,0)"/></linearGradient><path d=" M 440.778 408.56 Q 432.5 325.675 357.815 368.334 Q 283.13 410.993 178.437 368.334 Q 141.188 421.602 93.232 368.334 Q 45.276 315.066 28.208 408.56 Q -30.564 415.317 -0.941 480.966 Q 28.682 546.615 77.537 529.237 Q 62.779 664.35 77.537 641.869 Q 92.294 619.387 93.232 679.413 Q -3.144 752.646 52.872 778.636 Q 108.888 804.627 178.437 778.636 L 247.946 880.542 Q 293.304 999.458 407.144 880.542 C 520.984 761.625 527.543 832.672 521.498 727.684 Q 515.453 622.695 555.131 582.871 L 487.864 368.334 L 440.778 408.56 Z " fill="url(#_lgradient_1)" style="mix-blend-mode:multiply;"/></g><path d="M 142.983 388 L 433.017 388 C 441.91 388 449.13 395.22 449.13 404.113 L 449.13 775.887 C 449.13 784.78 441.91 792 433.017 792 L 142.983 792 C 134.09 792 126.87 784.78 126.87 775.887 L 126.87 404.113 C 126.87 395.22 134.09 388 142.983 388 Z" style="stroke:none;fill:#FFFFFF;stroke-miterlimit:10;"/><path d=" M 134 408.06 C 134 411.371 136.689 414.06 140 414.06 C 143.311 414.06 146 411.371 146 408.06 C 146 404.748 143.311 402.06 140 402.06 C 136.689 402.06 134 404.748 134 408.06 Z " fill="rgb(235,235,235)"/><rect x="160.869" y="402.06" width="16" height="13" transform="matrix(1,0,0,1,0,0)" fill="rgb(235,235,235)"/><line x1="188.869" y1="401.56" x2="200.869" y2="414.56" vector-effect="non-scaling-stroke" stroke-width="1" stroke="rgb(185,185,185)" stroke-linejoin="miter" stroke-linecap="square" stroke-miterlimit="3"/><path d="M 143.86 430.5 L 433.14 430.5 C 434.994 430.5 436.5 432.006 436.5 433.86 L 436.5 469.14 C 436.5 470.994 434.994 472.5 433.14 472.5 L 143.86 472.5 C 142.006 472.5 140.5 470.994 140.5 469.14 L 140.5 433.86 C 140.5 432.006 142.006 430.5 143.86 430.5 Z" style="stroke:none;fill:#B9B9B9;stroke-miterlimit:10;"/><path d="M 143.86 430.5 L 433.14 430.5 C 434.994 430.5 436.5 432.006 436.5 433.86 L 436.5 469.14 C 436.5 470.994 434.994 472.5 433.14 472.5 L 143.86 472.5 C 142.006 472.5 140.5 470.994 140.5 469.14 L 140.5 433.86 C 140.5 432.006 142.006 430.5 143.86 430.5 Z" style="fill:none;stroke:#B9B9B9;stroke-width:1;stroke-linecap:square;stroke-miterlimit:2;"/><line x1="204" y1="401.5" x2="190" y2="415.5" vector-effect="non-scaling-stroke" stroke-width="1" stroke="rgb(185,185,185)" stroke-linejoin="miter" stroke-linecap="square" stroke-miterlimit="3"/><rect x="150" y="501.5" width="151" height="273" transform="matrix(1,0,0,1,0,0)" fill="rgb(185,185,185)"/><rect x="322" y="501.5" width="114" height="81.371" transform="matrix(1,0,0,1,0,0)" fill="rgb(185,185,185)"/><rect x="337.5" y="590" width="83" height="25.5" transform="matrix(1,0,0,1,0,0)" fill="rgb(185,185,185)"/><rect x="322" y="625.676" width="114" height="18.5" transform="matrix(1,0,0,1,0,0)" fill="rgb(185,185,185)"/><rect x="324" y="667.5" width="116" height="75" transform="matrix(1,0,0,1,0,0)" fill="rgb(185,185,185)"/><rect x="324" y="758.5" width="116" height="20" transform="matrix(1,0,0,1,0,0)" fill="rgb(185,185,185)"/><path d=" M 250 595 L 308 653 L 278 653 L 296 690 L 287 709 L 266 669 L 250 690 L 250 595 Z " fill="rgb(7,31,56)" vector-effect="non-scaling-stroke" stroke-width="1" stroke="rgb(23,23,23)" stroke-linejoin="miter" stroke-linecap="square" stroke-miterlimit="3"/></g></svg>